<?xml version="1.0" encoding="UTF-8"?><svg xmlns="http://www.w3.org/2000/svg" width="150.832" height="64.268" viewBox="0 0 150.832 64.268" x="0px" y="0px" xmlns:xlink="http://www.w3.org/1999/xlink" version="1.1"><title>code_bubble</title><g id="Layer_2" data-name="Layer 2"><g id="Layer_1-2" data-name="Layer 1"><path d="M150.832,41.365h-45.9a26.225,26.225,0,0,0,.194-3.127V26.03A26.029,26.029,0,0,0,79.1,0H26.131A26.114,26.114,0,0,0,0,26.03V38.238a26.029,26.029,0,0,0,26.03,26.03H79.1A26.043,26.043,0,0,0,102.968,48.63h47.864Z" fill="#f9d5ff"/><path d="M38.54,42.475,21.994,34.807V30.671L38.54,23v4.54L26.433,32.689,38.54,37.935Z" fill="#5e41f4"/><path d="M46.41,47.52H41.769L58.92,12.309h4.641Z" fill="#5e41f4"/><path d="M66.689,22.9,83.235,30.57v4.137L66.689,42.475v-4.54L78.8,32.79,66.689,27.543Z" fill="#5e41f4"/></g></g></svg>