<?xml version="1.0"?><svg fill="#000000" xmlns="http://www.w3.org/2000/svg"  viewBox="0 0 128 128" width="128px" height="128px">    <path d="M 64 6 C 32 6 6 32 6 64 C 6 96 32 122 64 122 C 96 122 122 96 122 64 C 122 32 96 6 64 6 z M 64 12 C 92.7 12 116 35.3 116 64 C 116 92.7 92.7 116 64 116 C 35.3 116 12 92.7 12 64 C 12 35.3 35.3 12 64 12 z M 69.201172 43.009766 C 67.816211 42.935938 66.537109 43.799219 66.099609 45.199219 L 56.099609 81.199219 C 55.699609 82.799219 56.599219 84.400391 58.199219 84.900391 C 58.499219 85.000391 58.7 85 59 85 C 60.3 85 61.500391 84.100781 61.900391 82.800781 L 71.900391 46.800781 C 72.300391 45.200781 71.400781 43.599609 69.800781 43.099609 C 69.600781 43.049609 69.399023 43.020313 69.201172 43.009766 z M 45.037109 52.9375 C 44.274609 52.9 43.500391 53.149219 42.900391 53.699219 L 33.800781 61.800781 C 33.200781 62.400781 32.800781 63.2 32.800781 64 C 32.800781 64.8 33.200781 65.699219 33.800781 66.199219 L 42.900391 74.300781 C 43.500391 74.800781 44.200391 75.099609 44.900391 75.099609 C 45.700391 75.099609 46.499609 74.799609 47.099609 74.099609 C 48.199609 72.899609 48.100391 71.000391 46.900391 69.900391 L 40.300781 64 L 46.900391 58.199219 C 48.100391 57.099219 48.199609 55.200391 47.099609 53.900391 C 46.549609 53.300391 45.799609 52.975 45.037109 52.9375 z M 82.962891 52.9375 C 82.200391 52.975 81.450391 53.300391 80.900391 53.900391 C 79.800391 55.100391 79.899609 56.999609 81.099609 58.099609 L 87.699219 63.900391 L 81.099609 69.699219 C 79.899609 70.799219 79.800391 72.700391 80.900391 73.900391 C 81.500391 74.600391 82.299609 74.900391 83.099609 74.900391 C 83.799609 74.900391 84.499609 74.699609 85.099609 74.099609 L 94.199219 66 C 94.799219 65.4 95.199219 64.600781 95.199219 63.800781 C 95.199219 63.000781 94.799219 62.099609 94.199219 61.599609 L 85.099609 53.699219 C 84.499609 53.149219 83.725391 52.9 82.962891 52.9375 z"/></svg>