<?xml version="1.0" encoding="UTF-8" standalone="no"?>
<svg
   xmlns:dc="http://purl.org/dc/elements/1.1/"
   xmlns:cc="http://creativecommons.org/ns#"
   xmlns:rdf="http://www.w3.org/1999/02/22-rdf-syntax-ns#"
   xmlns:svg="http://www.w3.org/2000/svg"
   xmlns="http://www.w3.org/2000/svg"
   xmlns:sodipodi="http://sodipodi.sourceforge.net/DTD/sodipodi-0.dtd"
   xmlns:inkscape="http://www.inkscape.org/namespaces/inkscape"
   preserveAspectRatio="none"
   viewBox="0 0 638.33099 322.64899"
   x="0px"
   y="0px"
   version="1.1"
   id="svg201"
   sodipodi:docname="computer.svg"
   inkscape:version="1.0.1 (3bc2e813f5, 2020-09-07)">
  <metadata
     id="metadata207">
    <rdf:RDF>
      <cc:Work
         rdf:about="">
        <dc:format>image/svg+xml</dc:format>
        <dc:type
           rdf:resource="http://purl.org/dc/dcmitype/StillImage" />
        <dc:title></dc:title>
      </cc:Work>
    </rdf:RDF>
  </metadata>
  <defs
     id="defs205" />
  <sodipodi:namedview
     pagecolor="#ffffff"
     bordercolor="#666666"
     borderopacity="1"
     objecttolerance="10"
     gridtolerance="10"
     guidetolerance="10"
     inkscape:pageopacity="0"
     inkscape:pageshadow="2"
     inkscape:window-width="744"
     inkscape:window-height="480"
     id="namedview203"
     showgrid="false"
     fit-margin-top="0"
     fit-margin-left="0"
     fit-margin-right="0"
     fit-margin-bottom="0"
     inkscape:zoom="0.538"
     inkscape:cx="339.83901"
     inkscape:cy="196.28371"
     inkscape:window-x="0"
     inkscape:window-y="0"
     inkscape:window-maximized="0"
     inkscape:current-layer="svg201" />
  <g
     style="isolation:isolate"
     id="g199"
     transform="translate(-160.161,-343.654)">
    <g
       id="Layer_1"
       data-name="Layer 1">
      <rect
         x="160.161"
         y="648.30298"
         width="638.33099"
         height="18"
         rx="9"
         fill="#c9c9c9"
         id="rect10" />
      <path
         d="m 285.891,573.289 a 17.343,17.343 0 0 1 0,-34.685 h 98.034 v 34.685 z"
         fill="#cecece"
         id="path12" />
      <path
         d="M 285.891,532.6 H 389.6 v 46.685 H 285.891 a 23.342,23.342 0 0 1 -23.342,-23.342 v 0 A 23.342,23.342 0 0 1 285.891,532.6 Z"
         fill="#ffffff"
         id="path14" />
      <path
         d="M 383.925,552.567 H 279.549 a 2,2 0 0 1 0,-4 h 104.376 a 2,2 0 0 1 0,4 z"
         fill="#1f3969"
         id="path16" />
      <path
         d="M 383.925,563.158 H 279.549 a 2,2 0 0 1 0,-4 h 104.376 a 2,2 0 1 1 0,4 z"
         fill="#1f3969"
         id="path18" />
      <path
         d="m 383.925,575.289 h -98.034 a 19.343,19.343 0 0 1 0,-38.685 h 98.034 a 2,2 0 0 1 2,2 v 34.685 a 2,2 0 0 1 -2,2 z M 285.891,540.6 a 15.343,15.343 0 0 0 0,30.685 h 96.034 V 540.6 Z"
         fill="#1f3969"
         id="path20" />
      <path
         d="m 285.891,573.289 a 17.343,17.343 0 0 1 0,-34.685 H 385.6 l 4,-6 H 285.891 a 23.342,23.342 0 0 0 -23.342,23.342 v 0 a 23.342,23.342 0 0 0 23.342,23.343 H 389.6 l -4,-6 z"
         fill="#ff3e3e"
         id="path22" />
      <path
         d="M 389.6,581.289 H 285.891 a 25.343,25.343 0 0 1 0,-50.685 H 389.6 a 2,2 0 0 1 1.664,3.109 l -4,6 a 2,2 0 0 1 -1.664,0.891 h -99.709 a 15.343,15.343 0 0 0 0,30.685 H 385.6 a 2,2 0 0 1 1.664,0.891 l 4,6 a 2,2 0 0 1 -1.664,3.109 z M 285.891,534.6 a 21.343,21.343 0 0 0 0,42.685 h 99.976 l -1.334,-2 h -98.642 a 19.343,19.343 0 0 1 0,-38.685 h 98.642 l 1.334,-2 z"
         fill="#1f3969"
         id="path24" />
      <g
         opacity="0.28"
         id="g30">
        <rect
           x="348.914"
           y="532.604"
           width="18.391001"
           height="46.685001"
           fill="#1f3969"
           id="rect26" />
        <path
           d="m 367.305,581.289 h -18.391 a 2,2 0 0 1 -2,-2 V 532.6 a 2,2 0 0 1 2,-2 h 18.391 a 2,2 0 0 1 2,2 v 46.685 a 2,2 0 0 1 -2,2.004 z m -16.391,-4 h 14.391 V 534.6 h -14.391 z"
           fill="#1f3969"
           id="path28" />
      </g>
      <rect
         x="182.27"
         y="579.289"
         width="203.42599"
         height="38.556999"
         rx="6.7610002"
         fill="#50b56f"
         id="rect32" />
      <path
         d="m 378.935,619.846 h -189.9 a 8.772,8.772 0 0 1 -8.762,-8.761 V 586.05 a 8.772,8.772 0 0 1 8.762,-8.761 h 189.9 a 8.771,8.771 0 0 1 8.761,8.761 v 25.035 a 8.771,8.771 0 0 1 -8.761,8.761 z m -189.9,-38.557 a 4.767,4.767 0 0 0 -4.762,4.761 v 25.035 a 4.767,4.767 0 0 0 4.762,4.761 h 189.9 a 4.767,4.767 0 0 0 4.761,-4.761 V 586.05 a 4.767,4.767 0 0 0 -4.761,-4.761 z"
         fill="#1f3969"
         id="path34" />
      <g
         opacity="0.28"
         id="g40">
        <path
           d="m 378.935,579.289 h -30.021 v 15 a 17.06,17.06 0 0 0 17.061,17.061 h 19.708 c 0,-0.087 0.013,-0.173 0.013,-0.261 V 586.05 a 6.761,6.761 0 0 0 -6.761,-6.761 z"
           fill="#1f3969"
           id="path36" />
        <path
           d="m 385.683,613.347 h -19.708 a 19.083,19.083 0 0 1 -19.061,-19.062 v -15 a 2,2 0 0 1 2,-2 h 30.021 a 8.771,8.771 0 0 1 8.761,8.761 v 25.035 c 0,0.1 -0.005,0.2 -0.012,0.294 a 2.1,2.1 0 0 1 -2.001,1.972 z m -34.769,-32.058 v 13 a 15.078,15.078 0 0 0 15.061,15.062 h 17.718 v -23.3 a 4.767,4.767 0 0 0 -4.761,-4.761 z"
           fill="#1f3969"
           id="path38" />
      </g>
      <path
         d="M 432.39,625.587 H 212.442 a 32.774,32.774 0 0 1 0,22.716 H 432.39 a 32.789,32.789 0 0 1 0,-22.716 z"
         fill="#cecece"
         id="path42" />
      <rect
         x="206.485"
         y="619.54303"
         width="231.87"
         height="6.0440001"
         fill="#5f5aff"
         id="rect44" />
      <path
         d="m 438.355,627.587 h -231.87 a 2,2 0 0 1 -2,-2 v -6.044 a 2,2 0 0 1 2,-2 h 231.87 a 2,2 0 0 1 2,2 v 6.044 a 2,2 0 0 1 -2,2 z m -229.87,-4 h 227.87 v -2.044 h -227.87 z"
         fill="#1f3969"
         id="path46" />
      <rect
         x="206.485"
         y="648.30298"
         width="231.87"
         height="6.0440001"
         fill="#f6f9fd"
         id="rect48" />
      <rect
         x="206.485"
         y="648.30298"
         width="231.87"
         height="6.0440001"
         fill="#5f5aff"
         id="rect50" />
      <path
         d="m 438.355,656.347 h -231.87 a 2,2 0 0 1 -2,-2 V 648.3 a 2,2 0 0 1 2,-2 h 231.87 a 2,2 0 0 1 2,2 v 6.044 a 2,2 0 0 1 -2,2.003 z m -229.87,-4 h 227.87 V 650.3 h -227.87 z"
         fill="#1f3969"
         id="path52" />
      <path
         d="m 553.631,633 -3.013,-33.652 H 501.21 L 498.2,633 c -0.7,7.816 -5.4,15.3 -12.777,21.276 l -0.009,0.072 h 81.007 l -0.009,-0.072 C 559.035,648.3 554.331,640.814 553.631,633 Z"
         fill="#bfcfe2"
         id="path54" />
      <g
         opacity="0.28"
         id="g60">
        <polygon
           points="501.21,599.346 499.401,619.543 552.426,619.543 550.618,599.346 "
           fill="#1f3969"
           id="polygon56" />
        <path
           d="M 552.427,621.543 H 499.4 a 2,2 0 0 1 -1.992,-2.179 l 1.809,-20.2 a 2,2 0 0 1 1.992,-1.821 h 49.408 a 2,2 0 0 1 1.992,1.821 l 1.809,20.2 a 2,2 0 0 1 -1.992,2.179 z m -50.839,-4 h 48.651 l -1.45,-16.2 h -45.75 z"
           fill="#1f3969"
           id="path58" />
      </g>
      <path
         d="M 566.417,656.347 H 485.41 a 2,2 0 0 1 -1.985,-2.242 2.178,2.178 0 0 1 0.735,-1.385 c 7.135,-5.778 11.412,-12.846 12.044,-19.9 l 3.014,-33.651 a 2,2 0 0 1 1.992,-1.821 h 49.407 a 2,2 0 0 1 1.992,1.821 l 3.015,33.651 v 0 c 0.631,7.054 4.908,14.121 12.043,19.9 a 2,2 0 0 1 0.727,1.312 2.082,2.082 0 0 1 -0.484,1.6 2.031,2.031 0 0 1 -1.493,0.715 z m -75.894,-4 H 561.3 c -5.674,-5.765 -9.063,-12.435 -9.665,-19.171 l -2.852,-31.829 h -45.744 l -2.851,31.83 c -0.603,6.736 -3.988,13.406 -9.665,19.17 z"
         fill="#1f3969"
         id="path62" />
      <rect
         x="355.914"
         y="374.34601"
         width="340"
         height="230"
         rx="12"
         fill="#ffffff"
         id="rect64" />
      <rect
         x="355.914"
         y="374.34601"
         width="340"
         height="230"
         rx="12"
         fill="#bfcfe2"
         id="rect66" />
      <path
         d="m 683.914,606.347 h -316 a 14.016,14.016 0 0 1 -14,-14 v -206 a 14.015,14.015 0 0 1 14,-14 h 316 a 14.015,14.015 0 0 1 14,14 v 206 a 14.016,14.016 0 0 1 -14,14 z m -316,-230 a 10.011,10.011 0 0 0 -10,10 v 206 a 10.011,10.011 0 0 0 10,10 h 316 a 10.012,10.012 0 0 0 10,-10 v -206 a 10.011,10.011 0 0 0 -10,-10 z"
         fill="#1f3969"
         id="path68" />
      <rect
         x="438.61801"
         y="325.642"
         width="174.591"
         height="306"
         transform="rotate(90,525.914,478.642)"
         fill="#f6f9fd"
         id="rect70" />
      <g
         opacity="0.28"
         id="g76">
        <path
           d="m 383.928,374.346 v 138.593 a 8,8 0 0 0 8,8 H 581 a 8,8 0 0 0 8,-8 V 374.346 Z"
           fill="#1f3969"
           id="path72" />
        <path
           d="M 581,522.939 H 391.928 a 10.011,10.011 0 0 1 -10,-10 V 374.346 a 2,2 0 0 1 2,-2 H 589 a 2,2 0 0 1 2,2 v 138.593 a 10.011,10.011 0 0 1 -10,10 z M 385.928,376.346 v 136.593 a 6.007,6.007 0 0 0 6,6 H 581 a 6.006,6.006 0 0 0 6,-6 V 376.346 Z"
           fill="#1f3969"
           id="path74" />
      </g>
      <path
         d="m 678.914,567.938 h -306 a 2,2 0 0 1 -2,-2 V 391.346 a 2,2 0 0 1 2,-2 h 306 a 2,2 0 0 1 2,2 v 174.592 a 2,2 0 0 1 -2,2 z m -304,-4 h 302 V 393.346 h -302 z"
         fill="#1f3969"
         id="path78" />
      <path
         d="m 539.359,587.048 h -26.891 a 2,2 0 1 1 0,-4 h 26.891 a 2,2 0 1 1 0,4 z"
         fill="#1f3969"
         id="path80" />
      <rect
         x="392.92801"
         y="345.65399"
         width="205.073"
         height="164.286"
         rx="8"
         fill="#2d425e"
         id="rect82" />
      <path
         d="M 598,367.108 H 392.928 a 2,2 0 0 1 -2,-2 v -11.454 a 10.011,10.011 0 0 1 10,-10 H 590 a 10.011,10.011 0 0 1 10,10 v 11.454 a 2,2 0 0 1 -2,2 z m -203.073,-4 H 596 v -9.454 a 6.006,6.006 0 0 0 -6,-6 H 400.928 a 6.007,6.007 0 0 0 -6,6 z"
         fill="#1f3969"
         id="path84" />
      <path
         d="M 400.928,345.654 H 590 a 8,8 0 0 1 8,8 v 15.264 H 392.928 v -15.264 a 8,8 0 0 1 8,-8 z"
         fill="#d0ddf0"
         id="path86" />
      <path
         d="M 598,370.918 H 392.928 a 2,2 0 0 1 -2,-2 v -15.264 a 10.011,10.011 0 0 1 10,-10 H 590 a 10.011,10.011 0 0 1 10,10 v 15.264 a 2,2 0 0 1 -2,2 z m -203.073,-4 H 596 v -13.264 a 6.006,6.006 0 0 0 -6,-6 H 400.928 a 6.007,6.007 0 0 0 -6,6 z"
         fill="#1f3969"
         id="path88" />
      <path
         d="M 598,370.918 H 392.928 a 2,2 0 0 1 -2,-2 v -15.264 a 10.011,10.011 0 0 1 10,-10 H 590 a 10.011,10.011 0 0 1 10,10 v 15.264 a 2,2 0 0 1 -2,2 z m -203.073,-4 H 596 v -13.264 a 6.006,6.006 0 0 0 -6,-6 H 400.928 a 6.007,6.007 0 0 0 -6,6 z"
         fill="#1f3969"
         id="path90" />
      <path
         d="M 590,511.939 H 400.928 a 10.011,10.011 0 0 1 -10,-10 V 353.654 a 10.011,10.011 0 0 1 10,-10 H 590 a 10.011,10.011 0 0 1 10,10 v 148.285 a 10.011,10.011 0 0 1 -10,10 z M 400.928,347.654 a 6.007,6.007 0 0 0 -6,6 v 148.285 a 6.007,6.007 0 0 0 6,6 H 590 a 6.006,6.006 0 0 0 6,-6 V 353.654 a 6.006,6.006 0 0 0 -6,-6 z"
         fill="#1f3969"
         id="path92" />
      <g
         opacity="0.28"
         id="g98">
        <rect
           x="564.67297"
           y="406.39999"
           width="132.01601"
           height="138.94501"
           rx="8"
           fill="#1f3969"
           id="rect94" />
        <path
           d="M 688.689,547.346 H 572.673 a 10.012,10.012 0 0 1 -10,-10 V 414.4 a 10.011,10.011 0 0 1 10,-10 h 116.016 a 10.011,10.011 0 0 1 10,10 v 122.946 a 10.012,10.012 0 0 1 -10,10 z M 572.673,408.4 a 6.006,6.006 0 0 0 -6,6 v 122.946 a 6.007,6.007 0 0 0 6,6 h 116.016 a 6.007,6.007 0 0 0 6,-6 V 414.4 a 6.006,6.006 0 0 0 -6,-6 z"
           fill="#1f3969"
           id="path96" />
      </g>
      <rect
         x="572.67297"
         y="399.39999"
         width="132.01601"
         height="138.94501"
         rx="8"
         fill="#2aa1ff"
         id="rect100" />
      <path
         d="M 696.689,540.346 H 580.673 a 10.012,10.012 0 0 1 -10,-10 V 407.4 a 10.011,10.011 0 0 1 10,-10 h 116.016 a 10.011,10.011 0 0 1 10,10 v 122.946 a 10.012,10.012 0 0 1 -10,10 z M 580.673,401.4 a 6.006,6.006 0 0 0 -6,6 v 122.946 a 6.007,6.007 0 0 0 6,6 h 116.016 a 6.007,6.007 0 0 0 6,-6 V 407.4 a 6.006,6.006 0 0 0 -6,-6 z"
         fill="#1f3969"
         id="path102" />
      <rect
         x="592.69"
         y="419.33899"
         width="91.903"
         height="18.134001"
         rx="5.1669998"
         fill="none"
         stroke="#ffffff"
         stroke-linecap="round"
         stroke-linejoin="round"
         stroke-width="2"
         opacity="0.34"
         style="mix-blend-mode:screen"
         id="rect104" />
      <g
         opacity="0.34"
         style="mix-blend-mode:screen"
         id="g110">
        <rect
           x="592.77002"
           y="448.646"
           width="55.977001"
           height="18.134001"
           rx="5.1669998"
           stroke-width="2"
           stroke="#ffffff"
           stroke-linecap="round"
           stroke-linejoin="round"
           fill="none"
           id="rect106" />
        <rect
           x="656.68402"
           y="448.646"
           width="27.989"
           height="18.134001"
           rx="5.1669998"
           stroke-width="2"
           stroke="#ffffff"
           stroke-linecap="round"
           stroke-linejoin="round"
           fill="none"
           id="rect108" />
      </g>
      <line
         x1="592.69"
         y1="497.23001"
         x2="684.59302"
         y2="497.23001"
         fill="none"
         stroke="#ffffff"
         stroke-linecap="round"
         stroke-linejoin="round"
         stroke-width="2"
         id="line112" />
      <line
         x1="592.69"
         y1="508.021"
         x2="684.59302"
         y2="508.021"
         fill="none"
         stroke="#ffffff"
         stroke-linecap="round"
         stroke-linejoin="round"
         stroke-width="2"
         id="line114" />
      <line
         x1="592.69"
         y1="518.81097"
         x2="648.66699"
         y2="518.81097"
         fill="none"
         stroke="#ffffff"
         stroke-linecap="round"
         stroke-linejoin="round"
         stroke-width="2"
         id="line116" />
      <circle
         cx="413"
         cy="357.28601"
         r="4"
         fill="#1f3969"
         id="circle118" />
      <circle
         cx="426.88599"
         cy="357.28601"
         r="4"
         fill="#1f3969"
         id="circle120" />
      <circle
         cx="440.772"
         cy="357.28601"
         r="4"
         fill="#1f3969"
         id="circle122" />
      <line
         x1="510.741"
         y1="387.379"
         x2="523.66901"
         y2="387.379"
         fill="none"
         stroke="#ffffff"
         stroke-linecap="round"
         stroke-linejoin="round"
         stroke-width="4"
         id="line124" />
      <line
         x1="444.772"
         y1="387.379"
         x2="501.14801"
         y2="387.379"
         fill="none"
         stroke="#7bffa0"
         stroke-linecap="round"
         stroke-linejoin="round"
         stroke-width="4"
         id="line126" />
      <line
         x1="417"
         y1="387.379"
         x2="436.772"
         y2="387.379"
         fill="none"
         stroke="#9169ff"
         stroke-linecap="round"
         stroke-linejoin="round"
         stroke-width="4"
         id="line128" />
      <line
         x1="442.772"
         y1="485.93799"
         x2="485.82999"
         y2="485.93799"
         fill="none"
         stroke="#9169ff"
         stroke-linecap="round"
         stroke-linejoin="round"
         stroke-width="4"
         id="line130" />
      <line
         x1="417"
         y1="485.93799"
         x2="430.88501"
         y2="485.93799"
         fill="none"
         stroke="#7bffa0"
         stroke-linecap="round"
         stroke-linejoin="round"
         stroke-width="4"
         id="line132" />
      <line
         x1="501.14899"
         y1="399.69901"
         x2="509.164"
         y2="399.69901"
         fill="none"
         stroke="#ffffff"
         stroke-linecap="round"
         stroke-linejoin="round"
         stroke-width="4"
         id="line134" />
      <line
         x1="464.27899"
         y1="399.69901"
         x2="491.50601"
         y2="399.69901"
         fill="none"
         stroke="#9169ff"
         stroke-linecap="round"
         stroke-linejoin="round"
         stroke-width="4"
         id="line136" />
      <line
         x1="426.88599"
         y1="399.69901"
         x2="454.63"
         y2="399.69901"
         fill="none"
         stroke="#ffc47d"
         stroke-linecap="round"
         stroke-linejoin="round"
         stroke-width="4"
         id="line138" />
      <line
         x1="469.82999"
         y1="412.01901"
         x2="493.668"
         y2="412.01901"
         fill="none"
         stroke="#ffffff"
         stroke-linecap="round"
         stroke-linejoin="round"
         stroke-width="4"
         id="line140" />
      <line
         x1="439.76901"
         y1="412.01901"
         x2="462.25101"
         y2="412.01901"
         fill="none"
         stroke="#ff5757"
         stroke-linecap="round"
         stroke-linejoin="round"
         stroke-width="4"
         id="line142" />
      <line
         x1="473.009"
         y1="424.33899"
         x2="477.94699"
         y2="424.33899"
         fill="none"
         stroke="#ffffff"
         stroke-linecap="round"
         stroke-linejoin="round"
         stroke-width="4"
         id="line144" />
      <line
         x1="453.189"
         y1="424.33899"
         x2="464.27899"
         y2="424.33899"
         fill="none"
         stroke="#9169ff"
         stroke-linecap="round"
         stroke-linejoin="round"
         stroke-width="4"
         id="line146" />
      <line
         x1="426.88599"
         y1="424.33899"
         x2="444.772"
         y2="424.33899"
         fill="none"
         stroke="#7bffa0"
         stroke-linecap="round"
         stroke-linejoin="round"
         stroke-width="4"
         id="line148" />
      <line
         x1="465.28799"
         y1="436.659"
         x2="497.18201"
         y2="436.659"
         fill="none"
         stroke="#ffc47d"
         stroke-linecap="round"
         stroke-linejoin="round"
         stroke-width="4"
         id="line150" />
      <line
         x1="426.88599"
         y1="436.659"
         x2="455.513"
         y2="436.659"
         fill="none"
         stroke="#ff5757"
         stroke-linecap="round"
         stroke-linejoin="round"
         stroke-width="4"
         id="line152" />
      <line
         x1="502.18201"
         y1="448.979"
         x2="519.52502"
         y2="448.979"
         fill="none"
         stroke="#9169ff"
         stroke-linecap="round"
         stroke-linejoin="round"
         stroke-width="4"
         id="line154" />
      <line
         x1="465.28799"
         y1="448.979"
         x2="493.03699"
         y2="448.979"
         fill="none"
         stroke="#ff5757"
         stroke-linecap="round"
         stroke-linejoin="round"
         stroke-width="4"
         id="line156" />
      <line
         x1="439.76901"
         y1="448.979"
         x2="455.513"
         y2="448.979"
         fill="none"
         stroke="#7bffa0"
         stroke-linecap="round"
         stroke-linejoin="round"
         stroke-width="4"
         id="line158" />
      <line
         x1="477.89301"
         y1="461.29901"
         x2="493.03699"
         y2="461.29901"
         fill="none"
         stroke="#ffffff"
         stroke-linecap="round"
         stroke-linejoin="round"
         stroke-width="4"
         id="line160" />
      <line
         x1="439.76901"
         y1="461.29901"
         x2="467.513"
         y2="461.29901"
         fill="none"
         stroke="#9169ff"
         stroke-linecap="round"
         stroke-linejoin="round"
         stroke-width="4"
         id="line162" />
      <line
         x1="517.20502"
         y1="473.61899"
         x2="534.49701"
         y2="473.61899"
         fill="none"
         stroke="#ffffff"
         stroke-linecap="round"
         stroke-linejoin="round"
         stroke-width="4"
         id="line164" />
      <line
         x1="464.27899"
         y1="473.61899"
         x2="507.84799"
         y2="473.61899"
         fill="none"
         stroke="#ffc47d"
         stroke-linecap="round"
         stroke-linejoin="round"
         stroke-width="4"
         id="line166" />
      <line
         x1="426.88599"
         y1="473.61899"
         x2="454.63"
         y2="473.61899"
         fill="none"
         stroke="#ffffff"
         stroke-linecap="round"
         stroke-linejoin="round"
         stroke-width="4"
         id="line168" />
      <path
         d="M 430.359,634.522 H 214.9 a 2,2 0 1 1 0,-4 h 215.459 a 2,2 0 1 1 0,4 z"
         fill="#1f3969"
         id="path170" />
      <path
         d="M 430.359,642.539 H 214.9 a 2,2 0 1 1 0,-4 h 215.459 a 2,2 0 0 1 0,4 z"
         fill="#1f3969"
         id="path172" />
      <path
         d="M 432.39,650.3 H 212.442 a 2,2 0 0 1 -1.86,-2.735 30.787,30.787 0 0 0 0,-21.247 2,2 0 0 1 1.86,-2.734 H 432.39 a 2,2 0 0 1 1.86,2.733 30.792,30.792 0 0 0 0,21.249 2,2 0 0 1 -1.86,2.734 z m -217.168,-4 h 214.389 a 35.6,35.6 0 0 1 0,-18.716 H 215.222 a 35.626,35.626 0 0 1 0,18.716 z"
         fill="#1f3969"
         id="path174" />
      <rect
         x="722.76001"
         y="544.44397"
         width="9.8140001"
         height="72.650002"
         transform="rotate(-6.695,727.66082,580.76586)"
         fill="#ffa364"
         id="rect176" />
      <rect
         x="718.95599"
         y="544.66602"
         width="9.8140001"
         height="7.3899999"
         transform="rotate(-6.695,723.86078,548.3608)"
         fill="#2aa1ff"
         id="rect178" />
      <path
         d="m 719.42,554.6 a 2,2 0 0 1 -1.986,-1.767 l -0.862,-7.34 a 2,2 0 0 1 1.753,-2.22 l 9.747,-1.144 a 2,2 0 0 1 2.22,1.753 l 0.861,7.34 a 2,2 0 0 1 -1.753,2.219 l -9.747,1.145 a 2.037,2.037 0 0 1 -0.233,0.014 z m 1.358,-7.587 0.395,3.367 5.774,-0.678 -0.394,-3.367 z"
         fill="#1f3969"
         id="path180" />
      <path
         d="m 727.028,619.418 a 2,2 0 0 1 -1.986,-1.767 l -8.47,-72.154 a 2,2 0 0 1 1.753,-2.22 l 9.747,-1.144 a 2,2 0 0 1 2.22,1.753 l 8.47,72.154 a 2,2 0 0 1 -1.753,2.22 l -9.747,1.144 a 2.054,2.054 0 0 1 -0.234,0.014 z m -6.25,-72.4 8,68.181 5.775,-0.677 -8,-68.182 z"
         fill="#1f3969"
         id="path182" />
      <rect
         x="741.43903"
         y="558.065"
         width="9.8140001"
         height="72.650002"
         transform="rotate(6.204,746.30109,594.34594)"
         fill="#ff5252"
         id="rect184" />
      <path
         d="m 747.3,633.032 c -0.073,0 -0.146,0 -0.219,-0.011 l -9.757,-1.061 a 2,2 0 0 1 -1.772,-2.2 l 7.85,-72.224 a 2,2 0 0 1 2.2,-1.772 l 9.757,1.06 a 2,2 0 0 1 1.773,2.2 l -7.851,72.224 a 2,2 0 0 1 -1.981,1.784 z m -7.556,-4.833 5.78,0.629 7.419,-68.247 -5.78,-0.629 z"
         fill="#1f3969"
         id="path186" />
      <rect
         x="744.96503"
         y="558.25598"
         width="9.8140001"
         height="7.3899999"
         transform="rotate(6.204,749.82729,561.91611)"
         fill="#2d425e"
         id="rect188" />
      <path
         d="m 754.354,568.155 c -0.072,0 -0.145,0 -0.218,-0.011 l -9.757,-1.061 a 2,2 0 0 1 -1.773,-2.2 l 0.8,-7.347 a 2,2 0 0 1 2.2,-1.772 l 9.757,1.06 a 2,2 0 0 1 1.773,2.2 l -0.8,7.347 a 2,2 0 0 1 -1.982,1.784 z m -7.555,-4.833 5.78,0.629 0.367,-3.37 -5.78,-0.629 z"
         fill="#1f3969"
         id="path190" />
      <polygon
         points="761.07,654.573 721.809,654.573 715.424,594.39 767.455,594.39 "
         fill="#6567c3"
         id="polygon192" />
      <polygon
         points="761.07,654.573 767.455,594.39 715.424,594.39 715.541,595.495 755.183,595.495 748.915,654.573 "
         fill="#6567c3"
         style="mix-blend-mode:overlay"
         id="polygon194" />
      <path
         d="m 761.069,656.573 h -39.26 a 2,2 0 0 1 -1.99,-1.789 L 713.435,594.6 a 2,2 0 0 1 1.989,-2.211 h 52.031 a 2,2 0 0 1 1.989,2.211 l -6.385,60.183 a 2,2 0 0 1 -1.99,1.79 z m -37.462,-4 h 35.664 l 5.96,-56.183 h -47.584 z"
         fill="#1f3969"
         id="path196" />
    </g>
  </g>
</svg>
