<?xml version="1.0" encoding="UTF-8"?><svg xmlns="http://www.w3.org/2000/svg" width="105.129" height="143.112" viewBox="0 0 105.129 143.112" x="0px" y="0px" xmlns:xlink="http://www.w3.org/1999/xlink" version="1.1"><title>programming_bubble</title><g id="Layer_2" data-name="Layer 2"><g id="Layer_1-2" data-name="Layer 1"><path d="M79.1,0H26.031A25.986,25.986,0,0,0,0,26.131V38.238a26.029,26.029,0,0,0,26.03,26.03H49.508l5.382,78.844,7.247-.5L56.789,64.268H79.1a26.029,26.029,0,0,0,26.03-26.03V26.03A26.028,26.028,0,0,0,79.1,0Z" fill="#f9d5ff"/><path d="M43.989,17.454c-2.926,0-4.843,1.614-4.641,4.439l.1,2.321c.1,3.43-1.412,5.952-4.54,7.163,3.128,1.211,4.641,3.733,4.54,7.163l-.1,2.321c-.1,2.825,1.715,4.439,4.641,4.439H45v4.238H43.989c-6.356,0-9.685-3.532-9.383-9.282l.1-2.321c.1-2.825-1.715-4.439-4.742-4.439V29.258c3.027,0,4.843-1.614,4.742-4.439l-.1-2.32c-.3-5.65,3.027-9.282,9.383-9.282H45v4.237Z" fill="#ffa300"/><path d="M61.242,45.4c2.925,0,4.842-1.614,4.641-4.439l-.1-2.321c-.1-3.43,1.412-5.952,4.54-7.163-3.128-1.211-4.641-3.733-4.54-7.163l.1-2.321c.1-2.825-1.716-4.439-4.641-4.439H60.233V13.318h1.009c6.356,0,9.685,3.531,9.382,9.282l-.1,2.32c-.1,2.825,1.715,4.439,4.741,4.439V33.6c-3.026,0-4.842,1.614-4.741,4.439l.1,2.32c.3,5.65-3.026,9.282-9.382,9.282H60.233V45.4Z" fill="#ffa300"/></g></g></svg>