<?xml version="1.0" encoding="UTF-8"?><svg xmlns="http://www.w3.org/2000/svg" width="183.925" height="114.31" viewBox="0 0 183.925 114.31" x="0px" y="0px" version="1.1" xmlns:xlink="http://www.w3.org/1999/xlink"><title>if_bubble</title><g id="Layer_2" data-name="Layer 2"><g id="Layer_1-2" data-name="Layer 1"><path d="M141.046,82.327c10.8-3.834,25.122-6.053,42.879-6.759l-.3-7.265c-22.8.908-38.036,4.137-48.024,8.273-9.4-9.5-22.107-20.383-32.294-28.76a25.975,25.975,0,0,0,1.825-9.578V26.03A26.029,26.029,0,0,0,79.1,0H26.03A26.158,26.158,0,0,0,0,26.03V38.238a26.029,26.029,0,0,0,26.03,26.03H79.1A26,26,0,0,0,99.651,54.2c9.26,7.646,20.384,17.2,28.985,25.7-6.759,3.935-9.988,8.172-11.4,11.4-2.523,5.549-1.615,11.6,2.724,16.747a16.157,16.157,0,0,0,12.51,6.256,12.51,12.51,0,0,0,2.724-.3,15.659,15.659,0,0,0,12.107-10.19c1.312-3.834,2.321-11.6-5.851-20.985C141.349,82.731,141.147,82.428,141.046,82.327Zm-.6,18.867a8.314,8.314,0,0,1-6.457,5.448c-1.817.4-5.247.4-8.274-3.329-2.522-2.926-3.127-6.054-1.715-9.081,1.413-3.228,4.843-6.255,9.989-8.878.706.807,1.412,1.513,2.017,2.119C140.34,92.315,141.853,97.259,140.441,101.194Z" fill="#f9d5ff"/><path d="M68.606,29.258H61.544V45.805H57V29.258H52.867V25.122H57V21.591c0-4.137,2.118-7.466,6.961-7.466a11.393,11.393,0,0,1,5.751,1.513L68.1,19.472a7.652,7.652,0,0,0-3.834-1.11c-1.715,0-2.724,1.211-2.724,3.229v3.531h7.062Z" fill="#ff288c"/><path d="M49.235,17.959a3.166,3.166,0,0,1-3.229,3.127,3.1,3.1,0,0,1-3.127-3.228,3.143,3.143,0,0,1,3.127-3.128,3.319,3.319,0,0,1,3.229,3.229ZM48.226,45.7h-4.54V25.122h4.54Z" fill="#ff288c"/></g></g></svg>