<?xml version="1.0"?><svg fill="#000000" xmlns="http://www.w3.org/2000/svg"  viewBox="0 0 128 128" width="128px" height="128px">    <path d="M 89 2 C 73.8 2 61.5 14.300391 61 29.900391 C 60.6 44.400391 74.500781 63.5 82.800781 73.5 C 84.400781 75.4 86.6 76.400391 89 76.400391 C 91.4 76.400391 93.599219 75.3 95.199219 73.5 C 103.49922 63.4 117.5 44.400391 117 29.900391 C 116.5 14.300391 104.2 2 89 2 z M 57.392578 6.7890625 C 57.198047 6.7722656 57.000781 6.7757812 56.800781 6.8007812 C 37.000781 9.0007813 20 21.299609 11.5 39.599609 C -2 68.599609 10.6 103.09961 39.5 116.59961 C 47.3 120.19961 55.6 122.09961 64 122.09961 C 70.7 122.09961 77.400391 120.89961 83.900391 118.59961 C 98.500391 113.29961 110.09961 102.69961 116.59961 88.599609 C 119.39961 82.599609 121.10078 76.300781 121.80078 69.800781 C 121.90078 68.100781 120.7 66.6 119 66.5 C 117.4 66.3 115.89922 67.499219 115.69922 69.199219 C 115.09922 74.999219 113.59961 80.699609 111.09961 86.099609 C 105.19961 98.699609 94.800781 108.2 81.800781 113 C 68.800781 117.7 54.599609 117.10078 42.099609 111.30078 C 40.199609 110.40078 38.399609 109.40078 36.599609 108.30078 C 38.299609 108.20078 40.099609 107.70078 41.599609 106.80078 C 43.399609 105.80078 45.300781 104.59922 47.300781 103.19922 C 48.700781 102.19922 49.900781 100.90039 50.800781 99.400391 C 51.800781 97.600391 52.999609 95.7 53.599609 93.5 C 57.499609 78.5 44.499609 77.899609 44.099609 74.599609 C 43.699609 70.899609 48.500391 68.099219 51.400391 65.199219 C 54.300391 62.299219 55.199219 57.799219 53.699219 55.199219 C 48.899219 46.599219 37.500391 51.100781 36.400391 60.300781 C 35.800391 65.800781 32.499219 71.400781 29.699219 74.300781 C 26.899219 77.200781 21.400391 75.6 19.900391 71.5 C 18.200391 66.9 24.099219 65.200781 23.199219 59.300781 C 22.999219 57.700781 21.299219 56.899609 19.199219 56.599609 L 12.400391 56.800781 C 13.100391 51.900781 14.499219 47.000781 16.699219 42.300781 C 24.299219 25.900781 39.6 14.899219 57.5 12.699219 C 59.1 12.499219 60.299609 11.000391 60.099609 9.4003906 C 59.924609 8.0003906 58.754297 6.9066406 57.392578 6.7890625 z M 89 20 C 94.5 20 99 24.5 99 30 C 99 35.5 94.5 40 89 40 C 83.5 40 79 35.5 79 30 C 79 24.5 83.5 20 89 20 z"/></svg>