<svg width="264" height="136" viewBox="0 0 264 136" fill="none" xmlns="http://www.w3.org/2000/svg">
<path d="M102.613 23.854C105.47 28.443 107.424 32.4174 107.53 37.9096C107.624 42.8341 107.155 47.8654 106.502 52.7429C105.583 59.6042 104.344 67.4826 101.613 73.854" stroke="#0BC4E2" stroke-linecap="round" stroke-linejoin="round"/>
<path d="M75.1129 52.854C83.4683 39.4552 92.769 28.6044 107.557 22.1318C111.21 20.5332 126.954 14.0916 128.78 21.4651C130.459 28.2513 122.049 34.4032 117.557 37.7429C115.649 39.1618 113.802 40.6469 111.946 42.1318C110.943 42.9347 113.968 40.5364 115.057 39.854C121.046 36.1018 131.708 31.944 137.28 38.5207C143.736 46.142 141.195 58.0153 135.557 65.2429C127.644 75.3875 115.652 79.5543 103.502 75.2984C94.3027 72.0763 85.9483 67.1416 76.5018 64.4651C69.6171 62.5144 62.6867 61.6065 55.6129 60.854" stroke="#0BC4E2" stroke-linecap="round" stroke-linejoin="round"/>
<path d="M139.363 62.604C142.061 61.6202 142.432 61.7032 144.918 59.6873C146.415 58.4738 151.47 54.4289 151.224 51.9373C151.194 51.6372 150.658 51.5978 150.363 51.6596C149.327 51.8763 147.118 53.3265 146.418 53.9096C144.012 55.9153 142.073 58.583 141.071 61.5623C139.378 66.5983 141.407 72.4682 147.752 71.1318C154.046 69.8061 158.601 64.1189 162.363 59.354" stroke="#0B95E2" stroke-linecap="round" stroke-linejoin="round"/>
<path d="M162.113 59.104C167.304 50.0758 171.228 40.4603 172.557 30.0485C172.63 29.483 173.439 23.2963 172.391 23.1596C171.75 23.076 170.576 24.5673 170.307 24.8818C168.911 26.5174 167.868 28.3709 166.988 30.3262C162.409 40.5023 159.587 53.202 160.641 64.4096C161.617 74.793 172.935 71.0866 178.863 67.354" stroke="#0F77D7" stroke-linecap="round" stroke-linejoin="round"/>
<path d="M132.863 45.104C131.584 47.6093 130.326 49.72 127.335 50.2707C126.066 50.5043 123.13 50.5043 122.78 48.7151C122.326 46.4022 125.537 44.4121 127.141 43.5762C130.216 41.9728 133.819 41.1754 137.28 41.2429C146.88 41.4302 156.288 45.5247 165.53 47.6873C173.719 49.6038 181.204 49.5547 189.113 46.854" stroke="#0F77D7" stroke-linecap="round" stroke-linejoin="round"/>
<path d="M180.863 63.104C182.047 64.8716 183.356 67.9288 180.071 68.4096C177.449 68.7933 175.049 66.859 176.293 64.229C177.569 61.5338 180.424 60.4854 182.918 59.2429C185.852 57.7818 188.793 56.1848 191.141 53.854C191.901 53.0995 193.809 50.6086 192.891 51.1596C191.042 52.2685 190.257 56.4789 189.918 58.354C189.448 60.9624 189.121 63.8384 189.224 66.4929C189.265 67.5514 189.377 68.9991 190.613 69.3679C191.961 69.7703 192.955 68.7534 194.113 68.354" stroke="#004AB8" stroke-linecap="round" stroke-linejoin="round"/>
<path d="M192.863 42.604C191.472 43.9637 189.775 46.0011 191.835 47.7707C193.366 49.086 195.511 47.8921 196.641 46.6873C197.635 45.627 198.522 43.6924 197.28 42.4373C195.927 41.0711 194.117 42.1114 192.613 42.354" stroke="#004AB8" stroke-linecap="round" stroke-linejoin="round"/>
<path d="M197.113 70.854C197.049 67.3861 196.934 63.9209 197.321 60.4651C197.612 57.8754 198.095 54.9047 200.266 53.1734C203.531 50.5698 205.317 54.5523 206.113 57.2151C206.9 59.8502 207.363 62.4847 207.363 65.229C207.363 66.1311 207.68 67.1955 206.863 67.604" stroke="#104492" stroke-linecap="round" stroke-linejoin="round"/>
<path d="M206.863 58.104C208.693 56.8203 216.34 51.3825 218.307 54.7429C220.218 58.005 218.35 62.0112 216.599 64.8401C215.747 66.216 214.832 67.6364 213.516 68.6179C213.101 68.9269 211.549 69.2382 212.057 69.1457C213.392 68.903 215.05 69.6522 216.377 69.7707C218.528 69.9628 219.998 69.4876 221.863 68.604" stroke="#104492" stroke-linecap="round" stroke-linejoin="round"/>
<path d="M235.363 54.604C230.131 48.9821 221.354 56.0783 221.946 62.5484C222.22 65.5358 224.152 68.2615 227.474 67.4929C231.606 66.5369 233.208 62.5978 233.807 58.854C233.919 58.1538 233.791 56.6228 234.127 55.9512C234.331 55.5434 234.301 56.8467 234.363 57.2984C234.605 59.0717 234.875 60.8115 235.53 62.4929C236.71 65.5254 241.887 71.5679 244.863 67.104" stroke="#1C2194" stroke-linecap="round" stroke-linejoin="round"/>
<path d="M56.3629 60.604C52.9174 60.9947 47.127 62.5955 47.0018 67.104C46.876 71.6328 53.382 70.749 55.8629 69.604" stroke="#0BC4E2" stroke-linecap="round" stroke-linejoin="round"/>
<path d="M102.113 74.354C97.0003 77.8821 92.9414 81.6054 89.1685 86.5346C85.8271 90.8998 82.3206 94.8977 78.224 98.5762C75.3207 101.183 72.1588 103.886 68.4462 105.271C67.2762 105.707 65.4486 106.215 64.3351 105.298C62.775 104.014 63.9276 101.526 64.724 100.215C70.8066 90.2041 84.6544 93.2144 93.5296 96.9234C98.4513 98.9803 103.267 101.606 108.668 102.16C114.969 102.805 120.309 100.619 125.863 98.104" stroke="#0BC4E2" stroke-linecap="round" stroke-linejoin="round"/>
<path d="M113.613 67.354C116.775 72.8995 120.132 78.5774 121.946 84.7429C122.889 87.9465 123.418 91.4207 123.752 94.7429C124.029 97.4993 124.085 100.285 124.307 103.048C124.49 105.325 124.173 101.236 124.168 101.076C124.052 96.5476 124.49 91.7187 126.391 87.5484C127.645 84.7957 131.782 80.3009 132.668 85.8818C133.318 89.9718 131.731 94.8576 135.752 97.7151C137.477 98.9414 139.75 99.3493 141.807 98.979C144.236 98.5419 145.388 97.0659 147.363 95.854" stroke="#0B95E2" stroke-linecap="round" stroke-linejoin="round"/>
<path d="M151.363 84.104C149.431 87.398 146.009 92.9489 150.599 95.8123C153.864 97.8491 158.275 95.6709 159.793 92.479C161.077 89.7809 160.892 85.7197 158.78 83.4373C156.793 81.291 153.867 81.7578 151.363 82.354" stroke="#0F77D7" stroke-linecap="round" stroke-linejoin="round"/>
<path d="M160.613 86.104C163.084 84.7707 167.836 82.6743 165.891 87.4929C165.003 89.6927 162.659 94.3343 166.391 95.4096C169.995 96.4481 171.828 92.5583 172.446 89.7707C172.786 88.238 173.629 83.6035 173.335 85.1457C172.742 88.2612 172.154 92.3535 172.849 95.479C172.985 96.0897 172.902 96.037 172.613 95.604" stroke="#104492" stroke-linecap="round" stroke-linejoin="round"/>
<path d="M125.363 97.854C130.252 97.0392 134.91 95.2491 139.752 94.1596C145.117 92.9523 150.256 92.5707 155.752 93.1596C161.111 93.7338 166.216 95.5233 171.474 96.604C180.556 98.4707 188.994 97.0113 197.863 94.854" stroke="#0BC4E2" stroke-linecap="round" stroke-linejoin="round"/>
<path d="M24.0181 49.3751C26.1881 48.5338 30.6484 46.8622 26.6509 44.6679C23.065 42.6995 18.6157 43.1068 15.1501 45.116C11.9218 46.9876 7.53961 50.809 8.85574 55.0444C10.5009 60.3386 17.7916 62.2513 22.0719 64.6104C29.6889 68.8083 32.1266 80.0239 25.9591 86.7303C19.402 93.8604 7.85017 90.2202 1.61011 84.8593" stroke="#94EBCD" stroke-opacity="0.18" stroke-linecap="round" stroke-linejoin="round"/>
<path d="M10 34C11.8478 37.5828 12.2698 41.0394 12.4028 44.9423C12.527 48.5877 12.9802 52.1021 13.6304 55.6978C14.1757 58.7128 14.9257 61.6853 15.2966 64.7256C15.6682 67.7717 16.052 70.8129 16.4716 73.8545C17.2266 79.3261 17.7326 84.883 17.9273 90.3925C18.028 93.2409 18.1053 96.1847 17.5766 99" stroke="#94EBCD" stroke-opacity="0.18" stroke-linecap="round" stroke-linejoin="round"/>
<path d="M18 34C19.0437 41.1883 19.2305 48.5664 19.683 55.8421C20.0816 62.2517 21.1828 68.3336 22.6104 74.4971C23.7922 79.5995 24.8159 84.7016 25.3363 89.9795C25.6318 92.9771 25.7298 96.0001 26 99" stroke="#94EBCD" stroke-opacity="0.18" stroke-linecap="round" stroke-linejoin="round"/>
<path d="M244 13.5C245.648 10.0024 247.776 5.67187 252.306 8.11111C254.982 9.55204 255.324 12.4129 254.944 15.1667C253.671 24.3966 249.719 32.7553 247.222 41.6111C245.369 48.1841 243.368 60.5095 251.056 64.1667C252.905 65.0465 259.138 64.5835 257.139 65.0278C251.44 66.2941 252.052 74.9154 252.361 79.1111C253.058 88.5625 256.768 97.3313 257.694 106.694C258.469 114.53 255.741 123.457 250 129.083C247.893 131.148 242.564 135.113 239.5 134.5" stroke="#94EBCD" stroke-opacity="0.18" stroke-linecap="round" stroke-linejoin="round"/>
<path d="M46.8237 14.1011C45.1758 10.6035 43.0481 6.27293 38.5181 8.71217C35.8421 10.1531 35.4994 13.0139 35.8792 15.7677C37.1523 24.9976 41.1049 33.3564 43.6014 42.2122C45.4545 48.7852 47.4556 61.1106 39.7681 64.7677C37.9187 65.6475 31.6856 65.1846 33.6848 65.6288C39.3832 66.8952 38.7721 75.5165 38.4626 79.7122C37.7653 89.1635 34.0553 97.9323 33.1292 107.296C32.3543 115.131 35.0827 124.058 40.8237 129.684C42.9303 131.749 48.2595 135.714 51.3237 135.101" stroke="#94EBCD" stroke-opacity="0.18" stroke-linecap="round" stroke-linejoin="round"/>
<path d="M23 7C24.8333 11 26.6667 15 28.5 19" stroke="#94EBCD" stroke-opacity="0.18" stroke-linecap="round" stroke-linejoin="round"/>
<path d="M258 1C260.138 5.15118 262.08 9.40202 263 14" stroke="#94EBCD" stroke-opacity="0.18" stroke-linecap="round" stroke-linejoin="round"/>
</svg>
