<svg width="128" height="128" viewBox="0 0 128 128" fill="none" xmlns="http://www.w3.org/2000/svg">
<g clip-path="url(#clip0)">
<path d="M124.382 93.9391L106.519 76.0763C100.139 69.6968 89.2942 72.2488 86.7424 80.542C84.8285 86.2839 78.4489 89.4737 72.7073 88.1975C59.9482 85.0077 42.7234 68.4208 39.5336 55.0238C37.6197 49.2819 41.4474 42.9023 47.189 40.9887C55.4825 38.4369 58.0343 27.5916 51.6547 21.2121L33.792 3.34927C28.6883 -1.11642 21.0328 -1.11642 16.5671 3.34927L4.44596 15.4704C-7.67521 28.2296 5.72188 62.0413 35.7058 92.0252C65.6898 122.009 99.5015 136.044 112.261 123.285L124.382 111.164C128.848 106.06 128.848 98.4048 124.382 93.9391Z" fill="black"/>
</g>
<defs>
<clipPath id="clip0">
<rect width="128" height="128" fill="white"/>
</clipPath>
</defs>
</svg>
