<?xml version="1.0" encoding="UTF-8" standalone="no"?>
<svg
   xmlns:dc="http://purl.org/dc/elements/1.1/"
   xmlns:cc="http://creativecommons.org/ns#"
   xmlns:rdf="http://www.w3.org/1999/02/22-rdf-syntax-ns#"
   xmlns:svg="http://www.w3.org/2000/svg"
   xmlns="http://www.w3.org/2000/svg"
   xmlns:sodipodi="http://sodipodi.sourceforge.net/DTD/sodipodi-0.dtd"
   xmlns:inkscape="http://www.inkscape.org/namespaces/inkscape"
   version="1.1"
   viewBox="0 0 1162 2029.4567"
   width="1162"
   height="2029.4567"
   x="0px"
   y="0px"
   id="svg1062"
   sodipodi:docname="studyingGirl.svg"
   inkscape:version="1.0.1 (3bc2e813f5, 2020-09-07)">
  <metadata
     id="metadata1068">
    <rdf:RDF>
      <cc:Work
         rdf:about="">
        <dc:format>image/svg+xml</dc:format>
        <dc:type
           rdf:resource="http://purl.org/dc/dcmitype/StillImage" />
        <dc:title></dc:title>
      </cc:Work>
    </rdf:RDF>
  </metadata>
  <defs
     id="defs1066" />
  <sodipodi:namedview
     pagecolor="#ffffff"
     bordercolor="#666666"
     borderopacity="1"
     objecttolerance="10"
     gridtolerance="10"
     guidetolerance="10"
     inkscape:pageopacity="0"
     inkscape:pageshadow="2"
     inkscape:window-width="1366"
     inkscape:window-height="705"
     id="namedview1064"
     showgrid="false"
     fit-margin-top="0"
     fit-margin-left="0"
     fit-margin-right="0"
     fit-margin-bottom="0"
     inkscape:zoom="0.35866667"
     inkscape:cx="547"
     inkscape:cy="372.32576"
     inkscape:window-x="-8"
     inkscape:window-y="-8"
     inkscape:window-maximized="1"
     inkscape:current-layer="g994" />
  <!-- ITEM 0 -->
  <g
     transform="matrix(1.3120557,-0.36005498,0.35950444,1.3140649,37.08593,82.619449)"
     id="g826">
    <g
       id="g824">
      <path
         id="texture-2_5_-i0"
         fill="#fbb03b"
         d="m 338.21,151.094 c -0.149,0.749 0.35,1.476 1.097,1.623 0.75,0.149 1.476,-0.35 1.623,-1.099 0.149,-0.75 -0.35,-1.476 -1.097,-1.623 v 0 c -0.748,-0.149 -1.479,0.34 -1.623,1.099 z m 30.535,138.813 c -0.653,0.437 -0.825,1.32 -0.388,1.968 v 0 c 0.38,0.607 1.182,0.791 1.787,0.411 0.05,-0.027 0.104,-0.066 0.147,-0.11 0.636,-0.406 0.823,-1.24 0.425,-1.882 -0.442,-0.636 -1.319,-0.822 -1.971,-0.387 z m -10.942,-71.298 c -0.746,0.216 -1.215,0.956 -1.093,1.723 0.166,0.773 0.941,1.267 1.723,1.093 0.773,-0.166 1.267,-0.941 1.093,-1.723 -0.225,-0.742 -0.956,-1.213 -1.723,-1.093 z M 174.229,195.108 c -1.447,0.239 -2.44,1.59 -2.231,3.047 0.153,1.408 1.412,2.426 2.815,2.279 0.05,-0.006 0.095,-0.008 0.139,-0.021 1.447,-0.239 2.44,-1.59 2.231,-3.047 -0.189,-1.433 -1.512,-2.451 -2.954,-2.258 z m 63.616,-9.235 c -1.459,0.244 -2.434,1.621 -2.183,3.076 0.238,1.428 1.573,2.408 3.006,2.198 1.441,-0.191 2.452,-1.511 2.261,-2.954 v 0 c -0.277,-1.463 -1.619,-2.469 -3.084,-2.32 z m 63.729,-9.187 c -1.438,0.199 -2.437,1.514 -2.238,2.952 0.006,0.029 0.012,0.058 0.015,0.087 0.153,1.408 1.412,2.426 2.815,2.279 0.05,-0.006 0.095,-0.008 0.139,-0.021 1.456,-0.265 2.465,-1.606 2.32,-3.082 -0.244,-1.433 -1.598,-2.425 -3.051,-2.215 z M 209.745,62.269 c -0.314,1.424 0.581,2.832 2.014,3.143 1.422,0.317 2.831,-0.584 3.143,-2.014 0.307,-1.396 -0.555,-2.782 -1.94,-3.128 -1.433,-0.309 -2.858,0.576 -3.217,1.999 z m 62.371,15.85 c -0.314,1.424 0.581,2.832 2.014,3.143 1.422,0.317 2.831,-0.584 3.143,-2.014 0.307,-1.396 -0.555,-2.782 -1.94,-3.128 -1.425,-0.314 -2.86,0.575 -3.217,1.999 z M 244.174,304.58 c -1.246,0.779 -1.646,2.409 -0.878,3.671 0.722,1.243 2.313,1.652 3.557,0.932 0.008,-0.003 0.015,-0.008 0.023,-0.014 1.254,-0.644 1.744,-2.179 1.105,-3.435 -0.031,-0.058 -0.061,-0.116 -0.098,-0.185 -0.806,-1.232 -2.406,-1.659 -3.709,-0.969 z m 55.354,-32.874 c -1.237,0.794 -1.66,2.403 -0.973,3.698 0.779,1.246 2.415,1.638 3.671,0.878 1.252,-0.748 1.663,-2.374 0.915,-3.623 -0.008,-0.015 -0.02,-0.035 -0.023,-0.043 -0.722,-1.243 -2.313,-1.652 -3.547,-0.935 -0.025,0.017 -0.036,0.022 -0.043,0.025 z m 55.261,-32.834 c -1.229,0.691 -1.671,2.239 -0.979,3.464 0.02,0.035 0.04,0.075 0.066,0.104 0.697,1.278 2.307,1.741 3.586,1.044 0.043,-0.023 0.077,-0.04 0.116,-0.061 1.263,-0.765 1.666,-2.409 0.906,-3.663 -0.765,-1.263 -2.409,-1.666 -3.663,-0.906 -0.017,0.01 -0.023,0.015 -0.032,0.018 z M 226.904,1.55 c -0.432,1.225 0.197,2.575 1.414,3.033 1.221,0.444 2.581,-0.185 3.033,-1.414 0.454,-1.226 -0.185,-2.581 -1.414,-3.033 v 0 c -1.227,-0.431 -2.576,0.195 -3.033,1.414 z m 12.922,240.05 c -1.185,0.614 -1.681,2.038 -1.136,3.257 0.533,1.15 1.893,1.649 3.042,1.12 0.035,-0.02 0.058,-0.031 0.092,-0.05 1.194,-0.533 1.727,-1.934 1.186,-3.12 -0.008,-0.015 -0.014,-0.025 -0.023,-0.043 -0.578,-1.146 -1.956,-1.66 -3.161,-1.164 z m 51.877,-24.392 c -1.163,0.57 -1.64,1.973 -1.082,3.131 0.533,1.15 1.893,1.649 3.042,1.12 0.035,-0.02 0.058,-0.031 0.092,-0.05 1.194,-0.533 1.727,-1.934 1.196,-3.125 -0.008,-0.015 -0.014,-0.025 -0.023,-0.043 -0.621,-1.147 -2.046,-1.613 -3.225,-1.033 z m 52.017,-24.553 c -1.194,0.533 -1.727,1.934 -1.196,3.125 0.008,0.015 0.014,0.025 0.023,0.043 0.481,1.136 1.799,1.66 2.935,1.179 0.072,-0.027 0.139,-0.064 0.205,-0.101 1.194,-0.533 1.727,-1.934 1.196,-3.125 -0.008,-0.015 -0.014,-0.025 -0.023,-0.043 -0.596,-1.129 -1.978,-1.61 -3.14,-1.078 z M 239.276,115.703 c -1.304,0.106 -2.29,1.231 -2.21,2.538 0.06,1.298 1.15,2.299 2.446,2.241 1.306,-0.086 2.331,-1.167 2.334,-2.475 -0.085,-1.336 -1.227,-2.354 -2.57,-2.304 z m 57.396,-2.692 c -1.255,0.017 -2.268,1.045 -2.253,2.301 0.002,0.043 0.006,0.092 0,0.139 0.06,1.298 1.149,2.299 2.446,2.241 1.306,-0.086 2.331,-1.167 2.334,-2.475 -0.094,-1.299 -1.216,-2.284 -2.527,-2.206 z m 33.104,203.051 c -0.855,0.903 -0.817,2.319 0.077,3.179 0.038,0.032 0.069,0.072 0.104,0.095 0.937,0.9 2.437,0.873 3.344,-0.068 0.02,-0.021 0.043,-0.043 0.054,-0.06 0.835,-1.001 0.74,-2.483 -0.222,-3.369 -0.944,-0.875 -2.42,-0.806 -3.294,0.139 -0.018,0.026 -0.034,0.058 -0.063,0.084 z m 38.633,-42.546 c -0.878,0.979 -0.826,2.486 0.132,3.398 1.004,0.866 2.527,0.762 3.39,-0.245 0.829,-0.952 0.769,-2.39 -0.132,-3.278 -0.918,-0.903 -2.403,-0.892 -3.303,0.025 -0.028,0.025 -0.064,0.063 -0.087,0.1 z M 167.078,13.352 c -1.507,0.15 -2.637,1.447 -2.566,2.967 0.087,1.508 1.367,2.668 2.872,2.593 1.517,-0.133 2.656,-1.449 2.566,-2.967 -0.086,-1.507 -1.367,-2.668 -2.872,-2.593 z m 66.21,-3.8 c -1.513,0.08 -2.668,1.367 -2.593,2.872 0.075,1.505 1.367,2.668 2.872,2.593 1.513,-0.08 2.668,-1.367 2.593,-2.872 -0.078,-1.512 -1.368,-2.668 -2.872,-2.593 z m 53.528,255.968 c -0.987,1.179 -0.884,2.917 0.242,3.966 1.174,0.979 2.926,0.815 3.899,-0.365 0.944,-1.136 0.823,-2.809 -0.261,-3.802 -1.141,-0.979 -2.849,-0.895 -3.88,0.201 z m 44.08,-49.515 c -0.976,1.142 -0.892,2.846 0.202,3.878 1.128,1.014 2.863,0.924 3.878,-0.205 1.015,-1.129 0.924,-2.863 -0.202,-3.878 -1.134,-0.986 -2.857,-0.893 -3.878,0.205 z M 227.884,133.57 c -1.32,0.719 -1.868,2.334 -1.278,3.713 0.703,1.329 2.337,1.855 3.683,1.186 1.352,-0.618 1.953,-2.216 1.329,-3.576 -0.008,-0.015 -0.02,-0.035 -0.027,-0.05 -0.663,-1.378 -2.318,-1.946 -3.707,-1.273 0.007,-0.006 0,0 0,0 z m 59.745,-28.904 c -1.378,0.674 -1.945,2.331 -1.283,3.703 0,0 0,0 0.003,0.008 0.647,1.327 2.261,1.876 3.582,1.219 v 0 c 1.355,-0.653 1.93,-2.279 1.281,-3.628 -0.623,-1.347 -2.229,-1.92 -3.583,-1.302 z m -89.106,-5.838 c -1.356,0.632 -1.943,2.255 -1.306,3.619 0.636,1.366 2.255,1.943 3.619,1.308 1.32,-0.624 1.92,-2.178 1.349,-3.522 -0.634,-1.402 -2.266,-2.026 -3.662,-1.405 z m 60.604,-26.285 c -1.391,0.628 -2.015,2.261 -1.395,3.655 0.622,1.341 2.193,1.967 3.566,1.433 1.389,-0.651 2.037,-2.261 1.49,-3.684 -0.655,-1.375 -2.266,-1.979 -3.661,-1.404 z m 42.885,117.768 c -1.03,1.117 -0.981,2.86 0.116,3.914 1.082,1.028 2.794,0.995 3.821,-0.086 1.065,-1.015 1.109,-2.702 0.092,-3.767 -0.027,-0.029 -0.052,-0.058 -0.089,-0.083 -1.056,-1.085 -2.796,-1.103 -3.876,-0.035 -0.023,0.013 -0.042,0.034 -0.064,0.057 z" />
      <g
         id="g808">
        <path
           fill="#fbb03b"
           d="m 250.889,186.412 c -0.185,0 -0.373,-0.052 -0.537,-0.164 -0.443,-0.297 -0.561,-0.898 -0.262,-1.341 0.319,-0.475 32.366,-47.622 71.061,-57.868 0.514,-0.135 1.045,0.17 1.18,0.685 0.135,0.516 -0.17,1.045 -0.685,1.18 -37.999,10.06 -69.637,56.608 -69.952,57.076 -0.189,0.284 -0.494,0.432 -0.805,0.432 z"
           id="path806" />
      </g>
      <g
         id="g812">
        <path
           fill="#fbb03b"
           d="m 276.973,215.39 c -0.276,0 -0.549,-0.118 -0.74,-0.344 -0.344,-0.408 -0.291,-1.016 0.118,-1.36 0.662,-0.558 67.251,-55.907 145.447,-61.079 0.535,-0.012 0.995,0.368 1.028,0.9 0.037,0.533 -0.368,0.993 -0.9,1.028 -77.552,5.127 -143.672,60.074 -144.332,60.628 -0.183,0.153 -0.403,0.227 -0.621,0.227 z"
           id="path810" />
      </g>
      <g
         id="g816">
        <path
           fill="#fbb03b"
           d="m 68.329,215.39 c -0.432,0 -0.826,-0.291 -0.935,-0.732 -4.636,-18.537 -28.326,-34.04 -28.566,-34.195 -0.448,-0.29 -0.576,-0.887 -0.286,-1.335 0.288,-0.448 0.885,-0.576 1.335,-0.285 1.001,0.647 24.567,16.068 29.389,35.351 0.129,0.518 -0.185,1.041 -0.703,1.171 -0.076,0.017 -0.156,0.025 -0.234,0.025 z"
           id="path814" />
      </g>
      <rect
         x="332.776"
         y="97.570999"
         transform="matrix(-0.8422,0.5391,-0.5391,-0.8422,693.8681,15.7826)"
         fill="#23286b"
         width="23.697001"
         height="23.697001"
         id="rect818" />
      <rect
         x="3.049"
         y="161.45399"
         transform="matrix(-0.9524,-0.3049,0.3049,-0.9524,-23.7509,342.8985)"
         fill="#23286b"
         width="23.700001"
         height="23.700001"
         id="rect820" />
      <rect
         x="442.26501"
         y="135.032"
         transform="matrix(-0.8422,0.5391,-0.5391,-0.8422,925.2871,30.9746)"
         fill="#e94a47"
         width="31.691999"
         height="31.691999"
         id="rect822" />
    </g>
  </g>
  <!-- ITEM 1 -->
  <g
     transform="matrix(4.8680851,0,0,4.8651685,18,730.45665)"
     id="g923">
    <g
       id="g921">
      <g
         id="books-i1">
        <linearGradient
           id="_3_1_-i1"
           gradientUnits="userSpaceOnUse"
           x1="635.7561"
           y1="4626.0767"
           x2="12260.991"
           y2="4626.0767"
           gradientTransform="matrix(0.0178,0,0,0.0178,0,13.0844)">
          <stop
             offset="0"
             style="stop-color:#23286B"
             id="stop828" />
          <stop
             offset="1"
             style="stop-color:#151A4F"
             id="stop830" />
        </linearGradient>
        <path
           id="_3-i1"
           fill="url(#_3_1_-i1)"
           d="m 217.973,95.399 c 0,10.551 -8.513,19.05 -19.082,19.05 -0.147,0 -0.147,0 -0.294,0 v 0 H 11.302 v -7.767 h 187.883 v 0 c 6.312,-0.293 11.155,-5.569 10.862,-11.723 -0.294,-6.008 -5.284,-10.844 -11.302,-10.844 -0.147,0 -0.294,0 -0.44,0 H 11.302 v -7.913 h 187.442 v 0 h 0.147 c 10.569,0.147 19.082,8.646 19.082,19.197 z"
           style="fill:url(#_3_1_-i1)" />
        <linearGradient
           id="_7_1_-i1"
           gradientUnits="userSpaceOnUse"
           x1="12603.617"
           y1="13412.521"
           x2="-1115.4821"
           y2="12971.162"
           gradientTransform="matrix(0.0178,0,0,0.0178,0,13.0844)">
          <stop
             offset="0"
             style="stop-color:#23286B"
             id="stop834" />
          <stop
             offset="1"
             style="stop-color:#151A4F"
             id="stop836" />
        </linearGradient>
        <path
           id="_7-i1"
           fill="url(#_7_1_-i1)"
           d="m 7.926,247.95 c 0,6.008 4.844,10.991 10.862,11.284 v 0 H 206.671 V 267 H 19.229 v 0 H 19.082 C 8.513,267 0,258.501 0,247.95 0,237.399 8.513,228.9 19.082,228.9 v 0 h 187.736 v 7.767 H 19.816 c -0.147,0 -0.294,0 -0.44,0 -6.312,-0.148 -11.45,4.981 -11.45,11.283 z"
           style="fill:url(#_7_1_-i1)" />
        <linearGradient
           id="_5_1_-i1"
           gradientUnits="userSpaceOnUse"
           x1="30562.211"
           y1="16081.688"
           x2="-5064.9688"
           y2="4873.1367"
           gradientTransform="matrix(0.0178,0,0,0.0178,0,13.0844)">
          <stop
             offset="0"
             style="stop-color:#A1C3FC"
             id="stop840" />
          <stop
             offset="0.6955"
             style="stop-color:#81AEF2"
             id="stop842" />
          <stop
             offset="1"
             style="stop-color:#78A9EF"
             id="stop844" />
        </linearGradient>
        <path
           id="_5-i1"
           fill="url(#_5_1_-i1)"
           d="m 35.962,171.894 c 0,6.008 4.844,10.991 10.862,11.284 v 0 h 186.855 v 7.62 H 46.237 v 0 c -10.568,-0.147 -19.082,-8.793 -18.935,-19.344 0.147,-10.405 8.513,-18.757 18.935,-18.904 v 0 h 187.589 v 8.06 H 47.851 c -0.147,0 -0.294,0 -0.44,0 -6.312,0 -11.449,4.983 -11.449,11.284 z"
           style="fill:url(#_5_1_-i1)" />
        <linearGradient
           id="_4_1_-i1"
           gradientUnits="userSpaceOnUse"
           x1="11059.202"
           y1="9050.2168"
           x2="-6681.6182"
           y2="-182.248"
           gradientTransform="matrix(0.0178,0,0,0.0178,0,13.0844)">
          <stop
             offset="0"
             style="stop-color:#A1C3FC"
             id="stop848" />
          <stop
             offset="0.6955"
             style="stop-color:#81AEF2"
             id="stop850" />
          <stop
             offset="1"
             style="stop-color:#78A9EF"
             id="stop852" />
        </linearGradient>
        <path
           id="_4-i1"
           fill="url(#_4_1_-i1)"
           d="m 109.647,132.621 c 0,0.293 0,0.586 0,0.733 0,6.008 4.844,10.991 10.862,11.284 v 0 h 0.44 v 0 0 h 93.648 v 7.767 H 27.008 c -10.568,0 -19.082,-8.646 -19.082,-19.197 0,-10.551 8.513,-19.05 19.082,-19.05 H 214.45 v 7.767 h -93.207 c -0.147,0 -0.294,0 -0.44,0 -0.294,0 -0.44,0 -0.734,0 -5.284,0.293 -9.541,4.396 -10.422,9.525 0,0.585 0,0.878 0,1.171 z"
           style="fill:url(#_4_1_-i1)" />
        <linearGradient
           id="_1_1_-i1"
           gradientUnits="userSpaceOnUse"
           x1="652.2677"
           y1="339.71191"
           x2="11633.494"
           y2="339.71191"
           gradientTransform="matrix(0.0178,0,0,0.0178,0,13.0844)">
          <stop
             offset="0.1291"
             style="stop-color:#428DFC"
             id="stop856" />
          <stop
             offset="0.9987"
             style="stop-color:#1D72D8"
             id="stop858" />
        </linearGradient>
        <path
           id="_1-i1"
           fill="url(#_1_1_-i1)"
           d="m 128.435,18.025 c 0,0.44 0,0.733 0,1.172 0,6.008 4.844,10.991 10.862,11.284 v 0 h 67.52 v 7.767 H 30.678 C 20.11,38.248 11.596,29.602 11.596,19.051 11.596,8.5 20.109,0.147 30.678,0 h 175.993 v 7.767 h -66.64 c -0.147,0 -0.294,0 -0.44,0 -0.146,0 -0.44,0 -0.587,0 -5.284,0.293 -9.834,4.25 -10.568,9.525 -0.001,0.293 -0.001,0.586 -0.001,0.733 z"
           style="fill:url(#_1_1_-i1)" />
        <linearGradient
           id="_6_1_-i1"
           gradientUnits="userSpaceOnUse"
           x1="2539.1138"
           y1="11059.738"
           x2="14172.603"
           y2="11059.738"
           gradientTransform="matrix(0.0178,0,0,0.0178,0,13.0844)">
          <stop
             offset="0.1291"
             style="stop-color:#428DFC"
             id="stop862" />
          <stop
             offset="0.9987"
             style="stop-color:#1D72D8"
             id="stop864" />
        </linearGradient>
        <path
           id="_6-i1"
           fill="url(#_6_1_-i1)"
           d="m 235,209.702 c 0,10.551 -8.513,19.05 -19.082,19.05 0,0 -0.147,0 -0.294,0 v 0 H 28.182 v -7.767 H 130.49 v 0 c 6.018,-0.293 10.862,-5.276 10.862,-11.284 0,-0.293 0,-0.586 0,-0.733 -0.44,-5.569 -4.844,-10.111 -10.568,-10.551 -0.294,0 -0.44,0 -0.734,0 -0.147,0 -0.294,0 -0.44,0 H 28.329 v -7.767 h 187.442 v 0 c 0,0 0.147,0 0.294,0 10.275,0.002 18.935,8.501 18.935,19.052 z"
           style="fill:url(#_6_1_-i1)" />
        <linearGradient
           id="_2_1_-i1"
           gradientUnits="userSpaceOnUse"
           x1="673.34003"
           y1="2486.9661"
           x2="14663.33"
           y2="2486.9661"
           gradientTransform="matrix(0.0178,0,0,0.0178,0,13.0844)">
          <stop
             offset="0"
             style="stop-color:#A1C3FC"
             id="stop868" />
          <stop
             offset="0.6955"
             style="stop-color:#81AEF2"
             id="stop870" />
          <stop
             offset="0.7528"
             style="stop-color:#7FADF1"
             id="stop872" />
          <stop
             offset="1"
             style="stop-color:#78A9EF"
             id="stop874" />
        </linearGradient>
        <path
           id="_2-i1"
           fill="url(#_2_1_-i1)"
           d="m 230.009,57.298 c 0,10.551 -8.513,19.05 -19.082,19.05 h -0.294 v 0 H 23.045 V 68.581 H 209.9 v 0 c 6.312,-0.293 11.155,-5.569 10.862,-11.723 -0.294,-6.008 -5.284,-10.844 -11.302,-10.844 -0.147,0 -0.294,0 -0.44,0 H 23.045 v -7.767 h 187.442 v 0 h 0.294 c 10.568,-0.146 19.228,8.5 19.228,19.051 z"
           style="fill:url(#_2_1_-i1)" />
        <linearGradient
           id="_6-2_1_-i1"
           gradientUnits="userSpaceOnUse"
           x1="3648.7627"
           y1="11059.738"
           x2="9585.2314"
           y2="11059.738"
           gradientTransform="matrix(0.0178,0,0,0.0178,0,13.0844)">
          <stop
             offset="0.0898"
             style="stop-color:#EEEEEE"
             id="stop878" />
          <stop
             offset="0.8178"
             style="stop-color:#D6D7D8"
             id="stop880" />
        </linearGradient>
        <path
           id="_6-2-i1"
           fill="url(#_6-2_1_-i1)"
           d="m 141.206,209.702 c 0,6.008 -4.844,10.991 -10.862,11.284 v 0 H 35.668 v -22.568 h 94.969 c 5.578,0.44 10.128,4.836 10.568,10.551 10e-4,0.147 10e-4,0.44 10e-4,0.733 z"
           style="fill:url(#_6-2_1_-i1)" />
        <linearGradient
           id="_2-2_1_-i1"
           gradientUnits="userSpaceOnUse"
           x1="1467.6443"
           y1="2572.3164"
           x2="12604.485"
           y2="2394.4131"
           gradientTransform="matrix(0.0178,0,0,0.0178,0,13.0844)">
          <stop
             offset="0.0898"
             style="stop-color:#EEEEEE"
             id="stop884" />
          <stop
             offset="0.8178"
             style="stop-color:#D6D7D8"
             id="stop886" />
        </linearGradient>
        <path
           id="_2-2-i1"
           fill="url(#_2-2_1_-i1)"
           d="m 220.909,57.298 c 0.147,-6.008 -4.697,-11.137 -10.715,-11.284 -0.147,0 -0.294,0 -0.44,0 H 31.558 v 22.568 h 178.488 v 0 0 h 0.44 v 0 c 6.019,-0.44 10.423,-5.422 10.423,-11.284 z"
           style="fill:url(#_2-2_1_-i1)" />
        <linearGradient
           id="_3-2_1_-i1"
           gradientUnits="userSpaceOnUse"
           x1="1056.8386"
           y1="4630.1958"
           x2="11807.074"
           y2="4630.1958"
           gradientTransform="matrix(0.0178,0,0,0.0178,0,13.0844)">
          <stop
             offset="0.0898"
             style="stop-color:#EEEEEE"
             id="stop890" />
          <stop
             offset="0.8178"
             style="stop-color:#D6D7D8"
             id="stop892" />
        </linearGradient>
        <path
           id="_3-2-i1"
           fill="url(#_3-2_1_-i1)"
           d="m 209.9,95.399 c 0.147,-6.155 -4.697,-11.137 -10.862,-11.284 -0.147,0 -0.294,0 -0.44,0 H 18.788 v 22.567 h 180.25 v 0 0 h 0.44 v 0 c 6.019,-0.439 10.569,-5.421 10.422,-11.283 z"
           style="fill:url(#_3-2_1_-i1)" />
        <linearGradient
           id="_4-2_1_-i1"
           gradientUnits="userSpaceOnUse"
           x1="11983.044"
           y1="6913.7051"
           x2="4227.27"
           y2="6522.3662"
           gradientTransform="matrix(0.0178,0,0,0.0178,0,13.0844)">
          <stop
             offset="0.0898"
             style="stop-color:#EEEEEE"
             id="stop896" />
          <stop
             offset="0.8178"
             style="stop-color:#D6D7D8"
             id="stop898" />
        </linearGradient>
        <path
           id="_4-2-i1"
           fill="url(#_4-2_1_-i1)"
           d="m 206.818,122.216 v 22.567 h -86.455 v 0 c -6.018,-0.293 -10.862,-5.276 -10.862,-11.284 0,-0.293 0,-0.586 0,-0.733 0,-0.293 0,-0.586 0.147,-0.879 0.734,-5.276 5.137,-9.232 10.422,-9.525 h 86.749 v -0.146 z"
           style="fill:url(#_4-2_1_-i1)" />
        <linearGradient
           id="_7-2_1_-i1"
           gradientUnits="userSpaceOnUse"
           x1="13206.946"
           y1="13225.982"
           x2="-3729.6157"
           y2="13190.404"
           gradientTransform="matrix(0.0178,0,0,0.0178,0,13.0844)">
          <stop
             offset="0.0898"
             style="stop-color:#EEEEEE"
             id="stop902" />
          <stop
             offset="0.8178"
             style="stop-color:#D6D7D8"
             id="stop904" />
        </linearGradient>
        <path
           id="_7-2-i1"
           fill="url(#_7-2_1_-i1)"
           d="M 200.212,236.666 H 19.375 c -0.147,0 -0.294,0 -0.44,0 -6.312,0.293 -11.156,5.422 -10.862,11.723 0.147,5.715 4.697,10.405 10.422,10.844 v 0 h 0.44 v 0 0 h 181.277 z"
           style="fill:url(#_7-2_1_-i1)" />
        <linearGradient
           id="_1-2_1_-i1"
           gradientUnits="userSpaceOnUse"
           x1="12550.723"
           y1="831.99548"
           x2="7464.1123"
           y2="13.8683"
           gradientTransform="matrix(0.0178,0,0,0.0178,0,13.0844)">
          <stop
             offset="0.0898"
             style="stop-color:#EEEEEE"
             id="stop908" />
          <stop
             offset="0.8178"
             style="stop-color:#D6D7D8"
             id="stop910" />
        </linearGradient>
        <path
           id="_1-2-i1"
           fill="url(#_1-2_1_-i1)"
           d="M 199.625,7.913 V 30.48 H 139.15 v 0 c -6.018,-0.293 -10.862,-5.276 -10.862,-11.284 0,-0.44 0,-0.733 0,-1.172 0,-0.147 0,-0.44 0,-0.586 0.881,-5.276 5.284,-9.232 10.568,-9.525 z"
           style="fill:url(#_1-2_1_-i1)" />
        <linearGradient
           id="_5-2_1_-i1"
           gradientUnits="userSpaceOnUse"
           x1="12174.638"
           y1="9003.3984"
           x2="-1630.7786"
           y2="8789.917"
           gradientTransform="matrix(0.0178,0,0,0.0178,0,13.0844)">
          <stop
             offset="0.0898"
             style="stop-color:#EEEEEE"
             id="stop914" />
          <stop
             offset="0.8178"
             style="stop-color:#D6D7D8"
             id="stop916" />
        </linearGradient>
        <path
           id="_5-2-i1"
           fill="url(#_5-2_1_-i1)"
           d="M 224.872,160.61 H 47.117 c -0.147,0 -0.294,0 -0.44,0 -6.312,0.293 -11.009,5.715 -10.715,11.87 0.294,5.569 4.697,10.111 10.275,10.698 v 0 h 0.44 v 0 0 H 224.725 V 160.61 Z"
           style="fill:url(#_5-2_1_-i1)" />
      </g>
    </g>
  </g>
  <!-- ITEM 2 -->
  <g
     transform="matrix(2.8125,0,0,2.81875,0,314.45665)"
     id="g994">
    <g
       id="g992">
      <polygon
         fill="#d6d7d8"
         points="0,142.294 77.203,142.294 92.55,158.071 15.348,158.071 "
         id="polygon925" />
      <path
         fill="#d62929"
         d="m 296.344,5.678 c -1.161,9.181 -2.321,18.362 -3.482,27.543 1.25,-1.253 3.196,-1.425 4.967,-1.474 11.301,-0.322 11.497,5.995 22.763,5.061 11.266,-0.935 34.126,-9.616 41.011,-18.562 -6.327,-2.808 -13.471,-2.87 -20.346,-3.704 -14.374,-1.743 -28.041,-6.993 -41.963,-10.966 -0.638,-0.183 -1.355,-0.354 -1.939,-0.042 -0.725,0.389 -0.908,1.328 -1.011,2.144 z"
         id="path927" />
      <path
         fill="#151a4f"
         d="m 295.319,23.525 c -5.043,3.813 -7.864,10.362 -7.164,16.638 0.477,4.273 2.444,8.601 1.177,12.71 -1.029,3.339 -3.962,5.678 -5.989,8.527 -8.586,12.072 0.068,31.051 -9.228,42.587 -4.33,5.374 -11.521,7.55 -18.383,8.378 -6.73,0.813 -13.582,0.606 -20.251,-0.609 2.512,11.305 3.22,23.008 2.087,34.535 22.568,0.085 45.409,-1.653 66.84,-8.71 1.356,-0.446 2.739,-0.934 3.82,-1.863 1.928,-1.658 2.51,-4.35 3.014,-6.839 6.125,-30.289 16.859,-59.647 31.721,-86.754 -15.764,-6.495 -31.649,-12.697 -47.644,-18.6 z"
         id="path929" />
      <linearGradient
         id="SVGID_1_-i2"
         gradientUnits="userSpaceOnUse"
         x1="2445.6006"
         y1="1239.2324"
         x2="2796"
         y2="1239.2324"
         gradientTransform="matrix(0.2,0,0,0.2,-159.2,-203.2)">
        <stop
           offset="0"
           style="stop-color:#E94A47"
           id="stop931" />
        <stop
           offset="1"
           style="stop-color:#D62929"
           id="stop933" />
      </linearGradient>
      <path
         fill="url(#SVGID_1_-i2)"
         d="m 341.516,26.93 c -3.866,8.412 -7.731,16.824 -11.596,25.235 1.569,-0.822 3.478,-0.404 5.183,0.079 10.877,3.072 21.215,7.954 32.243,10.431 11.028,2.478 23.397,2.237 32.654,-4.238 -5.192,-4.571 -11.99,-6.767 -18.298,-9.619 -13.189,-5.962 -24.651,-15.059 -36.738,-23.012 -0.555,-0.365 -1.185,-0.743 -1.837,-0.62 -0.811,0.156 -1.267,0.996 -1.611,1.744 z"
         id="path936"
         style="fill:url(#SVGID_1_-i2)" />
      <path
         fill="#23286b"
         d="m 42.251,137.962 -2.685,9.565 c 0,0 6.392,-7.78 6.264,-7.589 -0.128,0.192 -3.579,-1.976 -3.579,-1.976 z"
         id="path938" />
      <linearGradient
         id="SVGID_2_-i2"
         gradientUnits="userSpaceOnUse"
         x1="2242.479"
         y1="1333.822"
         x2="2133.3743"
         y2="1905.1265"
         gradientTransform="matrix(0.2,0,0,0.2,-159.2,-203.2)">
        <stop
           offset="0"
           style="stop-color:#23286B"
           id="stop940" />
        <stop
           offset="1"
           style="stop-color:#151A4F"
           id="stop942" />
      </linearGradient>
      <path
         fill="url(#SVGID_2_-i2)"
         d="m 305.829,76.141 c 1.481,-2.892 1.352,-6.297 1.686,-9.526 1.086,-10.496 7.785,-20.248 17.206,-25.046 7.706,12.88 27.25,11.254 39.356,20.149 -13.265,31.819 -30.443,62.011 -51.027,89.684 -9.821,1.721 -28.395,0.331 -35.244,1.102 -29.706,3.349 -44.74,1.321 -74.574,-0.602 6.043,-10.884 6.667,-24.598 1.637,-35.982 10.896,-4.415 22.898,-8.892 34.116,-5.369 2.848,0.894 5.519,2.279 8.35,3.222 6.879,2.291 14.329,1.868 21.567,1.421 2.634,-0.163 5.381,-0.361 7.645,-1.712 7.54,-4.501 4.025,-16.863 9.39,-23.807 4.989,-6.459 16.174,-6.274 19.892,-13.534 z"
         id="path945"
         style="fill:url(#SVGID_2_-i2)" />
      <path
         fill="#ffbeb6"
         d="m 107.608,130.267 c -3.503,1.773 -7.114,3.336 -10.806,4.677 -3.503,1.272 -7.161,2.354 -10.886,2.215 -4.281,-0.16 -9.659,-3.007 -14.199,-3.47 -3.441,-0.35 -6.206,2.008 -7.607,1.786 -4.403,-0.93 -6.606,-2.971 -9.332,-5.548 -1.784,-1.686 -5.962,-2.463 -8.246,-4.017 1.132,4.628 -1.543,8.508 -4.517,12.233 -1.31,1.64 -4.159,3.183 -5.071,1.293 3.336,-5.285 5.479,-11.316 6.219,-17.518 5.453,-0.988 11.208,-0.247 16.231,2.088 3.124,1.451 6.195,3.555 9.637,3.377 2.128,-0.11 15.981,-5.515 18.092,-5.816 13.022,-1.855 6.276,1.332 14.263,-1.547 9.275,1.611 8.735,5.375 6.222,10.247 z"
         id="path947" />
      <g
         id="g951">
        <polygon
           fill="#d62929"
           points="62.635,100.597 67.188,103.147 45.601,141.524 41.048,138.974 "
           id="polygon949" />
      </g>
      <path
         fill="#ffbeb6"
         d="m 69.23,131.29 c -0.821,-0.717 -3.401,-1.524 -4.48,-1.363 -3.834,0.574 -5.559,1.683 -9.04,1.872 -4.236,0.23 -11.544,2.694 -11.494,4.836 0.034,1.389 1.637,2.289 3.011,2.518 1.373,0.229 2.771,-0.096 4.125,-0.418 4.995,-1.19 9.042,-2.134 14.037,-3.324 0.978,-0.233 2.802,-1.334 3.515,-2.041 0.715,-0.706 1.082,-1.42 0.326,-2.08 z"
         id="path953" />
      <path
         fill="#89b3f4"
         d="m 134.052,80.103 c -3.927,6.731 -23.725,38.73 -25.844,38.683 -10.809,-0.246 -18.913,1.855 -27.284,4.641 4.161,4.728 6.543,8.858 5.419,15.049 15.212,0.859 19.377,3.14 36.438,-2.675 3.667,-16.439 18.944,-38.61 18.63,-55.449 -0.021,-1.144 -0.1,-2.406 -0.899,-3.225 -1.93,-1.98 -5.071,0.591 -6.46,2.976 z"
         id="path955" />
      <path
         fill="#f2a19c"
         d="m 130.772,86.88 c 1.142,-1.639 -0.305,-6.076 -1.481,-7.693 -4.471,-6.148 -9.264,-9.624 -14.871,-14.764 3.817,-1.758 6.969,-10.976 8.36,-14.934 4.875,5.327 11.26,15.034 18.283,16.742 -2.597,7.257 -6.06,14.204 -10.291,20.649 z"
         id="path957" />
      <path
         fill="#ffbeb6"
         d="m 109.198,34.827 c -3.226,-0.199 -6.452,-0.398 -9.677,-0.597 -1.546,-0.096 -3.143,-0.184 -4.596,0.348 -1.023,0.375 -1.913,1.035 -2.785,1.687 -3.488,2.605 -7.2,5.535 -8.281,9.746 -1.19,4.641 1.318,9.612 5.032,12.645 1.291,1.054 2.756,1.967 3.666,3.362 1.312,2.014 1.127,4.878 -0.433,6.708 4.292,0.494 7.417,4.474 11.606,5.526 2.278,0.572 4.678,0.227 6.99,-0.188 2.793,-0.501 5.618,-1.121 8.082,-2.525 4.678,-2.666 7.471,-7.969 7.954,-13.321 0.484,-5.353 -1.109,-10.724 -3.58,-15.501 -1.043,-2.014 -2.286,-3.997 -4.112,-5.346 -2.771,-2.044 -6.425,-2.331 -9.866,-2.544 z"
         id="path959" />
      <path
         fill="#23286b"
         d="m 123.271,54.514 c -3.734,-1.511 -7.907,0.104 -11.915,0.509 -8.22,0.83 -15.973,-3.516 -23.086,-7.713 -1.724,-1.017 -3.501,-2.083 -4.642,-3.725 -0.911,-1.31 -1.345,-2.903 -1.478,-4.492 -0.609,-7.307 5.935,-14.404 13.283,-14.407 1.972,-0.001 4.038,0.419 5.854,-0.346 3.813,-1.607 4.292,-7.345 7.999,-9.18 4.102,-2.031 9.209,2.036 13.461,0.338 3.438,-1.374 4.576,-5.811 7.672,-7.842 4.152,-2.723 9.675,-0.069 13.632,2.929 3.958,2.997 8.42,6.589 13.286,5.588 3.532,-0.726 6.17,-3.746 9.594,-4.879 4.35,-1.439 9.006,0.38 13.467,1.426 4.46,1.046 10.065,0.86 12.486,-3.021 2.155,5.831 -8.031,9.504 -8.361,15.71 -0.231,4.349 4.617,8.052 3.624,12.294 -1.117,4.764 -9.058,7.479 -7.079,11.957 0.478,1.081 1.475,1.824 2.267,2.702 3.33,3.691 2.358,10.332 -1.89,12.918 -3.154,-5.308 -7.884,-11.388 -13.97,-10.291 -3.121,0.563 -5.71,3.015 -8.869,3.3 -7.297,0.658 -11.851,-10.095 -19.142,-9.371 -3.807,0.955 -3.328,7.442 -6.939,8.979 -3.143,1.338 -6.092,-2.103 -9.254,-3.383 z"
         id="path961" />
      <g
         id="g965">
        <path
           fill="#23286b"
           d="m 85.472,45.762 c -0.109,0 -0.217,-0.033 -0.311,-0.103 -3.826,-2.839 -5.905,-7.722 -5.298,-12.439 0.609,-4.718 3.859,-8.917 8.28,-10.697 1.511,-0.607 3.153,-0.953 4.742,-1.287 2.804,-0.589 5.451,-1.145 7.315,-3.029 0.887,-0.897 1.552,-2.084 2.194,-3.232 0.984,-1.759 2.002,-3.579 3.876,-4.518 2.24,-1.122 4.714,-0.522 7.106,0.059 2.22,0.538 4.316,1.047 6.2,0.277 2.067,-0.846 3.179,-2.933 4.358,-5.143 1.207,-2.264 2.456,-4.606 4.849,-5.609 0.264,-0.111 0.572,0.013 0.683,0.279 0.112,0.265 -0.013,0.57 -0.279,0.681 -2.05,0.859 -3.157,2.937 -4.331,5.138 -1.213,2.275 -2.468,4.629 -4.883,5.617 -2.196,0.898 -4.558,0.326 -6.842,-0.228 -2.31,-0.56 -4.493,-1.089 -6.39,-0.14 -1.588,0.796 -2.485,2.399 -3.434,4.094 -0.676,1.209 -1.375,2.458 -2.362,3.455 -2.084,2.107 -5.012,2.721 -7.843,3.317 -1.545,0.324 -3.14,0.659 -4.567,1.234 -4.014,1.616 -7.082,5.58 -7.635,9.864 -0.553,4.283 1.411,8.893 4.884,11.47 0.232,0.172 0.279,0.498 0.108,0.729 -0.103,0.138 -0.261,0.211 -0.42,0.211 z"
           id="path963" />
      </g>
      <linearGradient
         id="SVGID_3_-i2"
         gradientUnits="userSpaceOnUse"
         x1="1709.3475"
         y1="1296.1277"
         x2="1679.3578"
         y2="1703.2242"
         gradientTransform="matrix(0.2,0,0,0.2,-159.2,-203.2)">
        <stop
           offset="0"
           style="stop-color:#A1C3FC"
           id="stop967" />
        <stop
           offset="1"
           style="stop-color:#89B3F4"
           id="stop969" />
      </linearGradient>
      <path
         fill="url(#SVGID_3_-i2)"
         d="m 140.765,99.877 c -0.466,-4.837 -1.951,-9.52 -2.684,-14.324 -0.733,-4.804 -0.638,-9.984 1.825,-14.178 2.463,-4.193 1.919,-9.774 6.447,-7.986 4.008,1.583 11.993,8.721 14.098,12.473 5.979,10.654 15.004,19.224 23.89,27.621 2.599,2.455 5.229,4.934 8.337,6.703 6.546,3.725 14.589,2.992 21.989,1.58 1.933,13.827 3.267,28.665 4.001,42.607 -22.532,2.408 -45.915,-4.378 -63.638,-18.468 -5.852,-4.652 -11.305,-10.411 -13.179,-17.637 -1.544,-5.96 -0.495,-12.264 -1.086,-18.391 z"
         id="path972"
         style="fill:url(#SVGID_3_-i2)" />
      <g
         id="g976">
        <path
           fill="#23286b"
           d="m 90.104,64.183 c -0.048,0 -0.098,0 -0.146,-0.001 -0.289,-0.005 -0.518,-0.242 -0.512,-0.531 0.005,-0.284 0.238,-0.511 0.522,-0.511 0.038,-0.002 0.091,10e-4 0.138,10e-4 2.744,0 5.46,-1.701 6.642,-4.173 0.123,-0.26 0.433,-0.37 0.696,-0.246 0.26,0.124 0.371,0.435 0.247,0.695 -1.349,2.822 -4.453,4.766 -7.587,4.766 z"
           id="path974" />
      </g>
      <path
         fill="#ffbeb6"
         d="m 122.585,131.233 c -2.703,6.212 -4.206,12.941 -4.401,19.71 -2.887,-1.077 -5.775,-2.152 -8.663,-3.228 -1.674,-4.015 -3.703,-7.883 -6.057,-11.544 -1.017,-1.43 6.251,-8.444 8.816,-13.021 1.22,-2.177 6.87,5.389 10.305,8.083 z"
         id="path978" />
      <linearGradient
         id="SVGID_4_-i2"
         gradientUnits="userSpaceOnUse"
         x1="1270.2711"
         y1="1587.6918"
         x2="1362.8049"
         y2="1507.0562"
         gradientTransform="matrix(0.1941,-0.0482,0.0482,0.1941,-211.9278,-90.5039)">
        <stop
           offset="0"
           style="stop-color:#A1C3FC"
           id="stop980" />
        <stop
           offset="1"
           style="stop-color:#89B3F4"
           id="stop982" />
      </linearGradient>
      <path
         fill="url(#SVGID_4_-i2)"
         d="m 107.063,140.978 c -1.511,1.243 -2.917,2.702 -3.377,4.423 -0.901,3.363 1.906,6.307 4.524,8.669 1.75,1.581 4.875,3.29 6.996,4.325 3.463,1.69 5.81,1.786 7.976,1.449 2.874,-0.447 3.164,-3.958 3.77,-6.448 0.895,-3.667 -1.552,-5.514 -0.656,-9.18 0.469,-1.926 0.938,-3.947 0.319,-5.771 -0.619,-1.824 -10.073,-5.261 -19.552,2.533 z"
         id="path985"
         style="fill:url(#SVGID_4_-i2)" />
      <path
         fill="#a1c3fc"
         d="m 148.853,64.381 c 1.38,1.468 1.804,3.526 2.121,5.489 4.741,29.295 -3.232,60.568 -21.687,85.077 -1.293,1.717 -2.701,3.459 -4.659,4.45 -1.958,0.991 -7.291,-1.787 -7.987,-4.836 -1.75,-27.967 7.575,-51.542 15.58,-78.752 1.131,-3.844 2.396,-7.884 5.435,-10.679 3.036,-2.795 8.452,-3.669 11.197,-0.749 z"
         id="path987" />
      <ellipse
         fill="#f2a19c"
         cx="106.967"
         cy="64.338997"
         rx="3.2219999"
         ry="3.2149999"
         id="ellipse989" />
      <path
         id="texture-2_14_-i2"
         fill="#ffffff"
         d="m 312.725,61.635 c 0.116,-0.04 0.153,-0.117 0.115,-0.232 -0.04,-0.116 -0.117,-0.153 -0.233,-0.115 -0.116,0.04 -0.153,0.117 -0.115,0.232 v 0 c 0.04,0.117 0.155,0.077 0.233,0.115 z m 12.283,-13.591 c 0.077,0.039 0.193,-10e-4 0.232,-0.079 v 0 c 0.039,-0.077 -0.001,-0.193 -0.079,-0.231 v 0 c -0.077,-0.039 -0.193,10e-4 -0.232,0.079 -0.154,0.116 -0.037,0.271 0.079,0.231 z m -6.647,6.452 c 0.077,0.039 0.156,0.076 0.27,0.037 0.039,-0.077 0.076,-0.155 0.037,-0.27 -0.077,-0.039 -0.155,-0.076 -0.27,-0.037 -0.153,0.117 -0.114,0.232 -0.037,0.27 z m 11.284,20.915 c 0.117,0.153 0.31,0.152 0.464,0.035 0.154,-0.117 0.152,-0.309 0.036,-0.463 v 0 c -0.117,-0.153 -0.31,-0.152 -0.464,-0.035 -0.231,0.079 -0.191,0.387 -0.036,0.463 z m -5.764,-5.902 c 0.117,0.153 0.31,0.152 0.464,0.035 0.153,-0.117 0.152,-0.309 0.036,-0.463 -0.117,-0.153 -0.31,-0.152 -0.464,-0.035 v 0 c -0.156,0.116 -0.154,0.309 -0.036,0.463 z m -5.728,-5.982 c 0.117,0.153 0.31,0.152 0.464,0.035 v 0 c 0.153,-0.117 0.152,-0.309 0.036,-0.463 v 0 c -0.117,-0.153 -0.31,-0.152 -0.464,-0.035 -0.155,0.117 -0.154,0.31 -0.036,0.463 z m -5.059,18.096 c 0.153,-0.117 0.23,-0.272 0.229,-0.464 -0.117,-0.153 -0.272,-0.229 -0.465,-0.228 -0.153,0.117 -0.23,0.272 -0.191,0.387 0.041,0.308 0.196,0.384 0.427,0.305 z m -3.069,-7.659 c 0.153,-0.117 0.23,-0.272 0.229,-0.464 -0.117,-0.153 -0.272,-0.229 -0.465,-0.228 -0.153,0.117 -0.23,0.272 -0.191,0.387 0.079,0.23 0.311,0.345 0.427,0.305 z m 25.779,-13.992 c 0.155,0.076 0.386,-0.003 0.462,-0.157 0.076,-0.155 -0.003,-0.385 -0.158,-0.461 v 0 c -0.155,-0.076 -0.386,0.003 -0.462,0.157 v 0 c -0.077,0.154 0.004,0.384 0.158,0.461 z m -7.603,-3.344 c 0.156,0.076 0.386,-0.003 0.462,-0.157 0.076,-0.155 -0.003,-0.385 -0.158,-0.461 -0.155,-0.076 -0.386,0.003 -0.462,0.157 v 0 c -0.078,0.155 0.002,0.385 0.158,0.461 z m -7.527,-3.305 c 0.156,0.076 0.386,-0.003 0.462,-0.157 v 0 c 0.076,-0.155 -0.003,-0.385 -0.158,-0.461 v 0 c -0.155,-0.076 -0.386,0.003 -0.462,0.157 -0.114,0.23 0.003,0.385 0.158,0.461 z m -15.179,31.015 c 0.116,-0.04 0.308,-0.233 0.191,-0.387 -0.04,-0.116 -0.234,-0.307 -0.388,-0.191 -0.116,0.04 -0.308,0.233 -0.191,0.387 v 0 c 0,0.194 0.155,0.27 0.388,0.191 z m 24.04,-19.268 c 0.156,0.076 0.349,0.075 0.425,-0.08 0.076,-0.155 0.037,-0.27 -0.08,-0.424 v 0 c -0.155,-0.076 -0.349,-0.075 -0.425,0.08 v 0 c -0.077,0.155 -0.075,0.348 0.08,0.424 z m -6.445,-3.545 c 0.156,0.076 0.349,0.075 0.425,-0.08 0.076,-0.155 0.037,-0.27 -0.08,-0.424 v 0 c -0.156,-0.076 -0.349,-0.075 -0.425,0.08 v 0 c -0.078,0.156 -0.075,0.348 0.08,0.424 z m -6.407,-3.62 c 0.156,0.076 0.349,0.075 0.425,-0.08 v 0 c 0.076,-0.155 0.037,-0.27 -0.08,-0.424 v 0 c -0.156,-0.076 -0.349,-0.075 -0.425,0.08 v 0 c -0.116,0.231 -0.076,0.347 0.08,0.424 z m -0.194,16.632 c 0.117,0.153 0.31,0.152 0.464,0.035 0.153,-0.117 0.152,-0.309 0.036,-0.463 -0.117,-0.153 -0.31,-0.152 -0.464,-0.035 -0.155,0.117 -0.192,0.387 -0.036,0.463 z m -4.605,-5.717 c 0.117,0.153 0.31,0.152 0.426,0.113 v 0 c 0.153,-0.117 0.152,-0.309 0.036,-0.463 -0.117,-0.153 -0.31,-0.152 -0.464,-0.035 -0.116,0.037 -0.115,0.231 0.002,0.385 z m 18.709,-18.614 c 0.193,-0.001 0.309,-0.041 0.308,-0.233 v 0 c -0.001,-0.193 -0.118,-0.347 -0.234,-0.307 v 0 c -0.193,0.001 -0.348,0.118 -0.346,0.311 0,0 0.116,0.153 0.272,0.229 z m -7.277,-0.877 c 0.193,-10e-4 0.348,-0.118 0.346,-0.311 -10e-4,-0.193 -0.118,-0.347 -0.312,-0.345 -0.193,10e-4 -0.348,0.118 -0.308,0.233 -0.038,0.271 0.08,0.425 0.274,0.423 -0.079,-0.038 0,0 0,0 z M 311.14,89.701 c 0.117,0.153 0.31,0.152 0.464,0.035 0.154,-0.117 0.152,-0.309 0.036,-0.463 -0.117,-0.153 -0.31,-0.152 -0.464,-0.035 -0.155,0.118 -0.153,0.31 -0.036,0.463 z m -5.344,-6.562 c 0.117,0.153 0.31,0.152 0.464,0.035 0.153,-0.117 0.152,-0.309 0.036,-0.463 -0.117,-0.153 -0.31,-0.152 -0.464,-0.035 -0.118,0.039 -0.154,0.31 -0.036,0.463 z M 328.56,58.44 c 0.193,-10e-4 0.348,-0.118 0.346,-0.311 -0.001,-0.193 -0.118,-0.347 -0.312,-0.345 -0.193,10e-4 -0.348,0.118 -0.346,0.311 -0.076,0.154 0.119,0.346 0.312,0.345 z m -8.515,-0.907 c 0.193,-0.001 0.348,-0.118 0.346,-0.311 -0.001,-0.193 -0.118,-0.347 -0.312,-0.345 -0.193,10e-4 -0.348,0.118 -0.346,0.311 0.04,0.116 0.119,0.346 0.312,0.345 z m -0.889,16.87 c 0.156,0.076 0.386,-0.003 0.462,-0.157 0.076,-0.155 -0.003,-0.385 -0.158,-0.461 -0.155,-0.076 -0.386,0.003 -0.462,0.157 v 0 c -0.077,0.154 0.004,0.385 0.158,0.461 z m -7.454,-4.038 c 0.156,0.076 0.386,-0.003 0.462,-0.157 v 0 c 0.076,-0.155 -0.003,-0.385 -0.158,-0.461 v 0 c -0.156,-0.076 -0.386,0.003 -0.462,0.157 -0.077,0.153 -0.075,0.346 0.158,0.461 z m 6.023,9.682 c 0.156,0.076 0.386,-0.003 0.462,-0.157 0.076,-0.155 -0.003,-0.385 -0.158,-0.461 -0.156,-0.076 -0.349,-0.075 -0.462,0.157 -0.075,0.155 0.004,0.385 0.158,0.461 z m -7.301,-4.349 c 0.155,0.076 0.386,-0.003 0.462,-0.157 0.076,-0.155 0.075,-0.348 -0.158,-0.461 -0.155,-0.076 -0.386,0.003 -0.541,0.12 0.003,0.192 0.082,0.422 0.237,0.498 z m 9.114,-13.222 c 0.193,-10e-4 0.348,-0.118 0.424,-0.273 -10e-4,-0.193 -0.118,-0.347 -0.273,-0.423 -0.193,10e-4 -0.348,0.118 -0.424,0.273 v 0 c -0.076,0.156 0.118,0.347 0.273,0.423 z" />
    </g>
  </g>
  <!-- ITEM 3 -->
  <g
     transform="matrix(1.2173348,0,0,1.2173348,613,193.45665)"
     id="g1000">
    <g
       transform="translate(1373.77,-605.694)"
       id="g998">
      <circle
         fill="#d9e021"
         cx="-1367.609"
         cy="611.85498"
         r="6.1609998"
         id="circle996" />
    </g>
  </g>
  <!-- ITEM 4 -->
  <g
     transform="matrix(0.21502562,0,0,0.21421303,674,239.45665)"
     id="g1006">
    <g
       transform="translate(1707.72,-225.97)"
       id="g1004">
      <polygon
         fill="#428dfc"
         points="-1707.72,239.189 -1614.805,225.97 -1600.756,324.789 -1693.67,338.008 "
         id="polygon1002" />
    </g>
  </g>
  <!-- ITEM 5 -->
  <g
     transform="matrix(0.09,0,0,0.09,151,124.45665)"
     id="g1012">
    <g
       id="g1010">
      <circle
         fill="#fbb03b"
         cx="50"
         cy="50"
         r="50"
         id="circle1008" />
    </g>
  </g>
  <!-- ITEM 6 -->
  <g
     transform="matrix(0.1,0,0,0.1,284,189.45665)"
     id="g1018">
    <g
       id="g1016">
      <circle
         fill="#fbb03b"
         cx="50"
         cy="50"
         r="50"
         id="circle1014" />
    </g>
  </g>
  <!-- ITEM 7 -->
  <g
     transform="matrix(0.16,0,0,0.16,409,14.456649)"
     id="g1024">
    <g
       id="g1022">
      <circle
         fill="#fbb03b"
         cx="50"
         cy="50"
         r="50"
         id="circle1020" />
    </g>
  </g>
  <!-- ITEM 8 -->
  <g
     transform="matrix(0.12,0,0,0.12,208,168.45665)"
     id="g1030">
    <g
       id="g1028">
      <circle
         fill="#fbb03b"
         cx="50"
         cy="50"
         r="50"
         id="circle1026" />
    </g>
  </g>
  <!-- ITEM 9 -->
  <g
     transform="matrix(0.09,0,0,0.09,217,98.456649)"
     id="g1036">
    <g
       id="g1034">
      <circle
         fill="#fbb03b"
         cx="50"
         cy="50"
         r="50"
         id="circle1032" />
    </g>
  </g>
  <!-- ITEM 10 -->
  <g
     transform="matrix(0.12,0,0,0.12,623,381.45665)"
     id="g1042">
    <g
       id="g1040">
      <circle
         fill="#fbb03b"
         cx="50"
         cy="50"
         r="50"
         id="circle1038" />
    </g>
  </g>
  <!-- ITEM 11 -->
  <g
     transform="matrix(0.09,0,0,0.09,245,251.45665)"
     id="g1048">
    <g
       id="g1046">
      <circle
         fill="#fbb03b"
         cx="50"
         cy="50"
         r="50"
         id="circle1044" />
    </g>
  </g>
  <!-- ITEM 12 -->
  <g
     transform="matrix(0.1817563,0.05535925,-0.05535925,0.1817563,684.18015,334.10087)"
     id="g1054">
    <g
       id="g1052">
      <path
         fill="#23286b"
         d="m 98.663,98.531 c -33.052,1.963 -65.546,1.955 -97.487,0 -1.46,-34.57 -1.676,-67.372 0,-97.487 32.497,-1.392 64.992,-1.392 97.487,0 1.849,31.48 1.718,64.047 0,97.487 z"
         id="path1050" />
    </g>
  </g>
  <!-- ITEM 13 -->
  <g
     transform="matrix(0.1725107,-0.05138149,0.05138149,0.1725107,66.80539,215.40019)"
     id="g1060">
    <g
       id="g1058">
      <path
         fill="#e94a47"
         d="m 98.663,98.531 c -33.052,1.963 -65.546,1.955 -97.487,0 -1.46,-34.57 -1.676,-67.372 0,-97.487 32.497,-1.392 64.992,-1.392 97.487,0 1.849,31.48 1.718,64.047 0,97.487 z"
         id="path1056" />
    </g>
  </g>
</svg>
