<svg fill="#000000" xmlns="http://www.w3.org/2000/svg"  viewBox="0 0 64 64" width="128px" height="128px"><path d="M 30.988281 6.015625 C 30.929688 6.015625 30.871094 6.011719 30.8125 6.023438 C 30.742188 6.039063 30.675781 6.070313 30.609375 6.101563 C 30.5625 6.117188 30.515625 6.125 30.472656 6.148438 L 1.472656 24.152344 C 1.003906 24.441406 0.859375 25.058594 1.148438 25.527344 C 1.339844 25.832031 1.667969 26 2 26 C 2.183594 26 2.363281 25.949219 2.527344 25.847656 L 6 23.691406 L 6 54 L 3 54 C 2.445313 54 2 54.445313 2 55 C 2 55.554688 2.445313 56 3 56 L 59 56 C 59.554688 56 60 55.554688 60 55 C 60 54.445313 59.554688 54 59 54 L 56 54 L 56 23.691406 L 59.472656 25.847656 C 59.636719 25.953125 59.820313 26 60 26 C 60.332031 26 60.660156 25.832031 60.847656 25.527344 C 61.140625 25.058594 60.996094 24.441406 60.527344 24.152344 L 31.527344 6.148438 C 31.480469 6.121094 31.429688 6.117188 31.378906 6.09375 C 31.316406 6.070313 31.257813 6.039063 31.191406 6.023438 C 31.125 6.011719 31.058594 6.015625 30.988281 6.015625 Z M 31 8.179688 L 54 22.453125 L 54 54 L 8 54 L 8 22.453125 Z M 31.050781 16.082031 C 30.65625 16.082031 30.261719 16.1875 29.910156 16.394531 L 15.074219 25.195313 C 14.398438 25.59375 13.992188 26.300781 13.980469 27.078125 C 13.964844 27.859375 14.347656 28.582031 15.003906 29.003906 L 20 32.210938 L 19.136719 39.773438 C 19.070313 40.339844 19.246094 40.90625 19.625 41.332031 C 20.007813 41.757813 20.550781 42 21.121094 42 L 25.171875 42 C 25.433594 42 25.691406 42.105469 25.878906 42.292969 L 28.878906 45.292969 C 29.445313 45.859375 30.199219 46.171875 31 46.171875 C 31.800781 46.171875 32.554688 45.859375 33.121094 45.292969 L 36.121094 42.292969 C 36.3125 42.105469 36.5625 42 36.828125 42 L 40.882813 42 C 41.449219 42 41.992188 41.757813 42.375 41.332031 C 42.753906 40.90625 42.933594 40.34375 42.871094 39.78125 L 42.027344 32.207031 L 46.050781 29.605469 L 46.050781 33.613281 C 45.429688 34.304688 44.050781 36.054688 44.050781 38.011719 C 44.050781 40.691406 46.527344 41.859375 46.632813 41.90625 L 47.050781 42.101563 L 47.46875 41.90625 C 47.574219 41.859375 50.050781 40.691406 50.050781 38.011719 C 50.050781 36.054688 48.671875 34.304688 48.050781 33.613281 L 48.050781 28 C 48.050781 27.90625 48.019531 27.824219 48 27.738281 C 48.074219 27.503906 48.128906 27.257813 48.125 27 C 48.105469 26.21875 47.695313 25.515625 47.019531 25.117188 L 32.1875 16.390625 C 31.835938 16.1875 31.445313 16.082031 31.050781 16.082031 Z M 31.074219 18.289063 L 41.292969 24.34375 L 31.34375 25.996094 C 30.746094 26.097656 30.339844 26.664063 30.441406 27.265625 C 30.53125 27.800781 30.996094 28.183594 31.527344 28.183594 C 31.585938 28.183594 31.644531 28.179688 31.707031 28.167969 L 44.234375 26.085938 L 45.90625 27.078125 L 31.070313 36.675781 C 31.058594 36.683594 31.042969 36.683594 31.03125 36.675781 L 16.199219 27.089844 Z M 21.875 33.414063 L 29.839844 38.53125 C 30.207031 38.765625 30.628906 38.886719 31.046875 38.886719 C 31.472656 38.886719 31.894531 38.765625 32.265625 38.527344 L 40.148438 33.425781 L 40.882813 40 L 36.828125 40 C 36.027344 40 35.273438 40.3125 34.707031 40.878906 L 31.703125 43.878906 C 31.332031 44.257813 30.671875 44.257813 30.292969 43.878906 L 27.292969 40.878906 C 26.726563 40.3125 25.972656 40 25.171875 40 L 21.121094 40 Z M 47.050781 35.546875 C 47.519531 36.183594 48.050781 37.105469 48.050781 38.007813 C 48.050781 38.910156 47.472656 39.511719 47.050781 39.828125 C 46.632813 39.507813 46.050781 38.90625 46.050781 38.007813 C 46.050781 37.144531 46.5625 36.21875 47.050781 35.546875 Z M 11 48 C 10.445313 48 10 48.445313 10 49 L 10 51 C 10 51.554688 10.445313 52 11 52 C 11.554688 52 12 51.554688 12 51 L 12 49 C 12 48.445313 11.554688 48 11 48 Z M 16 48 C 15.445313 48 15 48.445313 15 49 L 15 51 C 15 51.554688 15.445313 52 16 52 C 16.554688 52 17 51.554688 17 51 L 17 49 C 17 48.445313 16.554688 48 16 48 Z M 21 48 C 20.445313 48 20 48.445313 20 49 L 20 51 C 20 51.554688 20.445313 52 21 52 C 21.554688 52 22 51.554688 22 51 L 22 49 C 22 48.445313 21.554688 48 21 48 Z M 26 48 C 25.445313 48 25 48.445313 25 49 L 25 51 C 25 51.554688 25.445313 52 26 52 C 26.554688 52 27 51.554688 27 51 L 27 49 C 27 48.445313 26.554688 48 26 48 Z M 31 48 C 30.445313 48 30 48.445313 30 49 L 30 51 C 30 51.554688 30.445313 52 31 52 C 31.554688 52 32 51.554688 32 51 L 32 49 C 32 48.445313 31.554688 48 31 48 Z M 36 48 C 35.445313 48 35 48.445313 35 49 L 35 51 C 35 51.554688 35.445313 52 36 52 C 36.554688 52 37 51.554688 37 51 L 37 49 C 37 48.445313 36.554688 48 36 48 Z M 41 48 C 40.445313 48 40 48.445313 40 49 L 40 51 C 40 51.554688 40.445313 52 41 52 C 41.554688 52 42 51.554688 42 51 L 42 49 C 42 48.445313 41.554688 48 41 48 Z M 46 48 C 45.445313 48 45 48.445313 45 49 L 45 51 C 45 51.554688 45.445313 52 46 52 C 46.554688 52 47 51.554688 47 51 L 47 49 C 47 48.445313 46.554688 48 46 48 Z M 51 48 C 50.445313 48 50 48.445313 50 49 L 50 51 C 50 51.554688 50.445313 52 51 52 C 51.554688 52 52 51.554688 52 51 L 52 49 C 52 48.445313 51.554688 48 51 48 Z"/></svg>