<?xml version="1.0" encoding="UTF-8"?><svg xmlns="http://www.w3.org/2000/svg" width="155.171" height="64.268" viewBox="0 0 155.171 64.268" x="0px" y="0px" xmlns:xlink="http://www.w3.org/1999/xlink" version="1.1"><title>var_bubble</title><g id="Layer_2" data-name="Layer 2"><g id="Layer_1-2" data-name="Layer 1"><path d="M129.141,0H76.072a26.114,26.114,0,0,0-26.03,26.131v3.43H0v7.264H50.042v1.413a26.029,26.029,0,0,0,26.03,26.03h53.069a26.029,26.029,0,0,0,26.03-26.03V26.03A26.029,26.029,0,0,0,129.141,0Z" fill="#f9d5ff"/><path d="M85.858,41.971H81.016L73.348,22.9h4.54l5.65,14.73,5.65-14.73h4.338Z" fill="#ffa300"/><path d="M115.218,41.971H110.98v-2.22a7.131,7.131,0,0,1-5.952,2.724c-5.348,0-9.484-4.136-9.484-9.988S99.68,22.5,105.028,22.5a7.131,7.131,0,0,1,5.952,2.724V23h4.137V41.971ZM99.882,32.487c0,3.329,2.22,6.154,5.751,6.154,3.43,0,5.751-2.623,5.751-6.154s-2.321-6.154-5.751-6.154c-3.632.1-5.751,2.724-5.751,6.154Z" fill="#ffa300"/><path d="M134.488,23l-1.009,4.137a8.312,8.312,0,0,0-3.128-.707c-2.623,0-4.54,1.917-4.54,5.146V41.971h-4.136V22.9h4.136v2.119A6.446,6.446,0,0,1,131.36,22.4,11.465,11.465,0,0,1,134.488,23Z" fill="#ffa300"/></g></g></svg>