<svg width="2597" height="2246" viewBox="0 0 2597 2246" fill="none" xmlns="http://www.w3.org/2000/svg">
<g clip-path="url(#clip0_10_2)">
<path d="M67.2562 941.429C60.3732 976.684 57.5733 1013.09 58.6232 1049.5C81.6057 996.043 149.588 984.889 185.52 941.429C219.118 900.662 222.417 826.562 253.799 783.743C284.014 738.36 306.18 687.721 329.279 637.851C297.081 645.543 265.815 657.978 235.95 677.208C153.703 729.899 88.9554 830.023 67.2562 941.429Z" fill="#C7D9FA"/>
<path d="M1461.55 475.722C1504.52 490.422 1548.39 502.183 1593.84 509.239C1608.54 510.415 1623.02 510.807 1637.71 510.807C1652.64 510.807 1667.79 510.219 1682.72 509.043C1683.85 508.847 1684.98 508.651 1686.11 508.455C1617.81 451.22 1548.16 394.966 1468.34 354.784C1397.78 319.11 1324.51 298.137 1245.14 291.473C1231.12 290.296 1217.1 289.708 1202.85 289.708C1157.63 289.708 1112.17 295.393 1067.85 304.997C1141.8 331.654 1212.8 362.82 1283.13 396.142C1341.7 424.171 1400.5 452.004 1461.55 475.722Z" fill="#C7D9FA"/>
<path d="M1369.32 1743.19C1295.82 1721.79 1221.74 1701.91 1146.5 1689.99C1110.22 1685.12 1073.82 1682.3 1037.3 1682.3C1010.12 1682.3 983.054 1683.84 955.988 1687.17C915.273 1694.09 875.491 1705.5 835.826 1717.94C758.479 1742.17 680.082 1767.68 598.885 1768.19C598.185 1768.19 597.369 1768.19 596.669 1768.19C566.22 1768.19 534.838 1764.99 504.856 1757.3C506.139 1772.3 506.956 1787.3 506.956 1802.42C507.189 1835.76 530.055 1867.68 557.82 1867.68C558.52 1867.68 559.104 1867.68 559.804 1867.68C575.436 1866.78 589.786 1858.32 599.702 1844.73C752.529 1883.96 908.857 1904.21 1065.07 1904.21C1086.07 1904.21 1107.07 1903.83 1128.06 1903.06C1225.36 1899.6 1322.31 1888.06 1418.44 1869.6C1484.47 1856.91 1549.33 1838.96 1611.86 1811.01C1606.5 1809.99 1601.25 1808.83 1596 1807.68C1519.7 1790.63 1444.69 1765.25 1369.32 1743.19Z" fill="#C7D9FA"/>
<path d="M1902 661.952C1906.43 674.901 1910.4 688.105 1913.9 701.182C1935.25 780.794 1941.32 866.047 1940.15 948.865C1938.98 1029.12 1931.05 1108.99 1924.05 1188.86C1916 1280.26 1908.07 1371.67 1900.02 1462.95C1897.8 1488.85 1895.82 1514.74 1893.48 1540.51C1926.27 1478.72 1951.93 1412.05 1971.3 1341.41C1996.5 1249.49 2009.91 1152.45 2014.46 1055.78C2018.9 961.3 2010.85 865.022 1978.88 778.23C1961.62 731.437 1934.78 691.695 1902 661.952Z" fill="#C7D9FA"/>
<path d="M1231.97 311.15C1180.35 305.377 1128.37 301.401 1076.2 301.401C1066.43 301.401 1056.48 301.529 1046.52 301.786C922.279 305.506 802.644 326.542 691.304 365.023C580.333 403.375 487.612 461.866 416.826 532.286C383.092 565.764 355.626 601.936 329.082 638.365C363.184 633.234 398.024 630.155 433.416 628.488C514.341 624.896 595.818 628.359 676.557 621.176C707.342 617.328 737.573 611.685 767.251 603.988C775.731 601.808 784.026 599.371 792.321 596.805C794.902 596.036 797.667 595.138 800.247 594.368C814.81 589.237 829.188 583.978 843.382 578.206C902.002 554.605 956.934 526.001 1011.31 497.012C1116.94 440.83 1222.75 385.033 1345.89 354.633C1362.11 350.657 1378.88 347.065 1395.84 344.115C1391.42 342.832 1386.99 341.549 1382.57 340.267C1334.09 326.67 1283.4 317.05 1231.97 311.15Z" fill="#C7D9FA"/>
<path d="M1668.09 1782.81C1649.54 1793.32 1630.88 1802.68 1611.86 1811.14C1628.66 1814.35 1645.58 1816.78 1662.38 1818.32C1667.74 1818.83 1673.11 1818.96 1678.36 1818.96C1695.04 1818.96 1711.38 1816.91 1728.17 1814.09C1749.06 1810.76 1769.12 1802.3 1787.79 1791.53C1806.11 1781.01 1823.25 1765.76 1836.09 1747.94C1854.4 1722.81 1867 1697.94 1875.99 1666.79C1882.87 1642.94 1885.32 1617.81 1888.24 1593.2C1890.22 1575.64 1891.97 1558.07 1893.48 1540.51C1882.4 1561.28 1870.62 1581.53 1857.9 1601.02C1807.5 1678.97 1741.47 1741.4 1668.09 1782.81Z" fill="#C7D9FA"/>
<path d="M487.473 1673.2C485.49 1666.66 483.273 1660.25 481.29 1653.71C482.107 1656.66 482.807 1658.84 483.273 1660.38C483.857 1662.17 484.207 1663.71 484.207 1663.71C484.207 1663.71 483.973 1662.81 483.273 1660.38C482.573 1658.07 481.64 1654.99 481.057 1653.33C479.89 1650.12 478.607 1647.04 477.44 1643.84C472.074 1630.25 466.124 1617.05 459.708 1604.1C453.291 1591.15 445.825 1579.23 438.942 1566.79C441.975 1572.3 443.142 1574.35 443.025 1574.35C442.908 1574.35 436.958 1564.23 434.742 1561.02C430.425 1554.87 426.109 1548.84 421.559 1542.95C413.159 1532.05 404.293 1521.66 394.96 1511.79C392.394 1509.1 389.827 1506.54 387.26 1503.97C382.944 1500.13 378.627 1496.28 374.194 1492.56C333.362 1458.85 287.631 1435.9 244.699 1406.8C220.55 1390.52 198.035 1371.8 176.685 1350.52C157.203 1331.16 191.851 1283.72 176.685 1259.37C135.154 1192.57 61.0732 1133.6 58.6233 1049.37C57.1067 1052.71 55.7067 1056.17 54.4235 1059.63C42.5239 1089.89 31.6744 1120.14 26.6579 1152.7C21.0581 1189.11 18.9582 1222.96 23.3913 1259.37C27.7078 1294.37 36.5742 1327.18 52.6735 1358.08C66.5563 1384.62 85.4556 1408.98 107.388 1427.95C131.887 1449.23 157.203 1466.92 184.502 1483.46C203.284 1494.87 222.184 1506.15 239.683 1519.61C245.283 1524.87 250.532 1530.38 255.432 1536.41C260.682 1545.38 265.232 1554.74 269.198 1564.48C275.615 1582.05 281.915 1599.61 289.148 1616.79C298.014 1637.94 310.497 1657.3 324.963 1674.35C353.312 1707.43 392.277 1727.68 432.759 1728.71C448.625 1737.55 465.191 1744.86 482.807 1750.76C490.04 1753.19 497.506 1755.37 504.972 1757.3C504.972 1757.04 504.972 1756.78 504.856 1756.66C501.239 1728.2 495.406 1700.25 487.473 1673.2Z" fill="#C7D9FA"/>
<path d="M1709.63 1600.64C1709.04 1601.28 1708.46 1601.79 1707.76 1602.43C1708.69 1601.66 1709.39 1600.89 1709.63 1600.64Z" fill="#C7D9FA"/>
<path d="M1794.91 479.779C1761.77 447.216 1724.21 421.576 1681.39 407.603C1657.71 399.911 1634.03 396.834 1610.23 396.834C1589.46 396.834 1568.58 399.141 1547.58 402.859C1481.43 414.269 1421.12 449.011 1356.84 468.37C1345.76 471.703 1334.67 474.523 1323.36 476.831C1337.82 492.215 1352.17 507.599 1366.64 522.598C1371.54 527.598 1376.56 532.598 1381.45 537.598C1381.22 537.341 1381.22 537.341 1381.22 537.341C1381.22 537.341 1382.62 538.623 1386.35 542.341C1389.04 544.777 1391.72 547.341 1394.52 549.777C1406.89 560.802 1419.72 571.186 1433.02 580.289C1438.39 584.006 1443.75 587.468 1449.24 590.673C1449 590.545 1448.89 590.416 1449 590.416C1449.24 590.416 1451.1 591.442 1456 594.391C1458.69 595.673 1461.48 596.955 1464.17 598.108C1477.82 603.877 1491.93 607.98 1506.17 610.8C1520.75 612.723 1535.33 613.621 1549.91 613.621C1551.43 613.621 1553.06 613.621 1554.58 613.621C1593.08 613.108 1631.46 607.723 1669.84 604.006C1688.28 602.211 1706.48 601.185 1724.67 601.185C1747.77 601.185 1770.76 602.98 1793.86 607.211C1833.4 614.518 1870.5 633.876 1902 662.337C1892.32 633.62 1880.42 605.672 1866.54 579.391C1847.4 542.726 1823.37 507.727 1794.91 479.779Z" fill="#C7D9FA"/>
<path d="M1457.87 595.288C1457.17 594.903 1456.59 594.519 1455.89 594.134C1455.42 593.878 1455.07 593.75 1454.6 593.493C1455.77 594.134 1456.82 594.647 1457.87 595.288Z" fill="#C7D9FA"/>
<path d="M1449.24 590.417C1449.94 590.929 1451.8 592.083 1453.44 592.852C1453.79 593.109 1454.25 593.237 1454.72 593.493C1454.25 593.237 1453.79 592.98 1453.32 592.724C1451.92 591.955 1450.64 591.186 1449.24 590.417Z" fill="#C7D9FA"/>
<path d="M1385.07 540.931C1386.35 542.085 1387.52 543.239 1388.8 544.521C1387.87 543.623 1387.17 542.854 1386.35 542.085C1386 541.7 1385.54 541.444 1385.19 541.059L1385.07 540.931Z" fill="#C7D9FA"/>
<path d="M1381.45 537.341C1382.15 537.982 1383.79 539.649 1385.07 540.931C1384.95 540.803 1384.84 540.675 1384.72 540.546C1383.67 539.521 1382.62 538.495 1381.45 537.341Z" fill="#C7D9FA"/>
<path d="M1381.45 537.341C1382.5 538.367 1383.55 539.521 1384.72 540.546C1384.84 540.675 1384.95 540.803 1385.07 540.931L1385.19 541.059C1385.54 541.444 1386 541.7 1386.35 542.085C1382.62 538.367 1381.22 537.085 1381.22 537.085C1381.22 537.085 1381.34 537.213 1381.45 537.341Z" fill="#9EBDF7"/>
<path d="M1449.24 590.416C1450.52 591.186 1451.92 591.955 1453.2 592.724C1453.67 592.98 1454.14 593.237 1454.6 593.493C1455.07 593.75 1455.42 593.878 1455.89 594.134C1450.99 591.186 1449.12 590.16 1448.89 590.16C1448.89 590.16 1449 590.288 1449.24 590.416Z" fill="#9EBDF7"/>
<path d="M484.323 1663.58C484.323 1663.58 483.857 1662.17 483.39 1660.25C483.973 1662.68 484.323 1663.58 484.323 1663.58Z" fill="#9EBDF7"/>
<path d="M2486.55 662.314C2445.05 633.719 2396.17 614.484 2344.06 607.175C2313.47 602.943 2283.18 601.148 2252.9 601.148C2228.92 601.148 2204.94 602.174 2180.66 603.969C2130.08 607.688 2079.51 613.202 2028.78 613.587C2026.79 613.587 2024.63 613.587 2022.63 613.587C2003.42 613.587 1984.21 612.817 1964.99 610.765C1946.24 607.944 1927.64 603.841 1909.65 598.071C1905.96 596.917 1902.43 595.634 1898.89 594.352C1899.66 594.737 1900.58 595.122 1901.51 595.506C1900.12 594.865 1898.74 594.224 1897.2 593.711C1896.74 593.455 1896.13 593.326 1895.51 593.07C1893.51 592.3 1891.05 591.146 1889.98 590.633C1882.75 587.428 1875.53 583.966 1868.61 580.247C1851.09 571.143 1834.18 560.756 1817.88 549.728C1814.35 547.292 1810.66 544.856 1807.12 542.291C1808.05 543.06 1809.12 543.83 1810.35 544.727C1808.82 543.573 1807.12 542.291 1805.43 541.137C1803.74 539.983 1801.59 538.316 1800.67 537.547C1794.06 532.674 1787.6 527.673 1781.15 522.544C1762.09 507.669 1743.18 492.153 1724.12 476.766C1723.35 476.894 1722.58 477.022 1721.81 477.15C1711.67 477.92 1701.37 478.305 1691.22 478.305C1681.23 478.305 1671.39 477.92 1661.4 477.279C1630.5 472.662 1600.68 464.84 1571.48 455.351C1529.97 439.836 1490.16 421.627 1450.19 403.547C1402.24 381.748 1354.12 361.359 1303.86 343.92C1289.71 346.869 1275.73 350.46 1262.2 354.435C1159.52 384.825 1071.13 440.605 983.204 496.77C937.857 525.749 892.05 554.345 843.168 577.939C831.332 583.709 819.342 588.838 807.198 594.096C805.046 594.865 802.741 595.763 800.588 596.532C793.671 599.097 786.6 601.405 779.683 603.713C754.935 611.535 729.725 617.177 704.055 620.896C636.727 628.076 568.938 624.486 501.302 628.205C471.789 629.743 442.736 632.821 414.299 638.078C383.863 688.088 354.811 738.61 314.844 784.003C273.341 826.832 226.15 865.429 181.879 906.206C134.535 949.676 87.9586 996.351 57.6764 1049.82C60.9044 1134.07 91.4941 1217.68 146.371 1284.48C166.354 1308.85 187.567 1331.67 213.238 1351.03C241.368 1372.32 271.035 1391.04 302.854 1407.33C359.422 1436.31 419.833 1459.26 473.48 1493.11C479.321 1496.83 485.008 1500.68 490.696 1504.52C494.078 1507.09 497.459 1509.65 500.841 1512.35C513.139 1522.09 524.821 1532.48 535.889 1543.51C541.884 1549.4 547.725 1555.43 553.259 1561.59C556.179 1564.66 563.865 1574.92 564.172 1574.92C564.326 1574.92 562.789 1572.87 558.792 1567.36C567.862 1579.8 577.7 1591.72 586.154 1604.67C594.608 1617.49 602.448 1630.83 609.519 1644.42C611.21 1647.5 612.747 1650.71 614.284 1653.91C615.053 1655.45 616.282 1658.53 617.205 1660.96C616.59 1659.43 615.821 1657.25 614.591 1654.3C617.051 1660.84 620.125 1667.25 622.738 1673.79C633.191 1700.84 640.723 1728.93 645.488 1757.39C645.488 1757.65 645.488 1757.91 645.642 1758.03C685.147 1765.6 726.343 1768.93 766.617 1768.93C767.539 1768.93 768.615 1768.93 769.538 1768.93C876.524 1768.55 979.822 1742.9 1081.74 1718.67C1134 1706.23 1186.42 1694.82 1240.06 1687.89C1275.73 1684.56 1311.39 1683.02 1347.2 1683.02C1395.32 1683.02 1443.28 1685.84 1491.08 1690.71C1590.23 1702.77 1687.84 1722.51 1784.68 1743.93C1883.98 1765.86 1982.67 1791.25 2083.35 1808.56C2090.27 1809.71 2097.19 1810.86 2104.26 1811.89C2129.31 1803.43 2154.06 1794.07 2178.35 1783.55C2275.04 1742.13 2362.04 1679.69 2428.45 1601.85C2445.2 1582.23 2460.73 1562.1 2475.33 1541.33C2478.25 1515.42 2480.86 1489.52 2483.94 1463.75C2494.54 1372.32 2505 1280.89 2515.6 1189.59C2524.83 1109.71 2535.28 1029.82 2536.82 949.548C2538.35 866.711 2530.51 781.567 2502.23 701.808C2497.62 688.344 2492.39 675.265 2486.55 662.314ZM2088.58 1678.4C2088.58 1678.4 2090.12 1677.76 2094.73 1676.22C2091.81 1677.38 2088.58 1678.4 2088.58 1678.4ZM2230.77 1603C2231.54 1602.49 2232.46 1601.85 2233.23 1601.21C2232.77 1601.47 2231.84 1602.24 2230.77 1603ZM2364.81 746.56C2364.96 746.56 2367.88 747.458 2370.8 748.612C2366.19 747.073 2364.65 746.56 2364.81 746.56ZM2405.85 767.462C2406 767.59 2406.31 767.718 2406.47 767.846C2408 769.001 2409.54 770.283 2411.08 771.437C2412 772.206 2412.61 772.847 2412.46 772.847C2412.46 772.847 2410.62 771.437 2405.85 767.462Z" fill="#9EBDF7"/>
<path d="M1709.63 1600.64C1709.04 1601.28 1708.46 1601.79 1707.76 1602.43C1708.69 1601.66 1709.39 1600.89 1709.63 1600.64Z" fill="#9EBDF7"/>
<path d="M1814.15 748.231C1812.05 747.206 1809.72 746.18 1809.6 746.18C1809.49 746.18 1810.65 746.693 1814.15 748.231Z" fill="#9EBDF7"/>
<path d="M1841.22 767.461C1841.1 767.333 1840.87 767.205 1840.75 767.077C1844.37 771.051 1845.77 772.461 1845.89 772.461C1846 772.461 1845.54 771.948 1844.84 771.051C1843.67 769.897 1842.39 768.743 1841.22 767.461Z" fill="#9EBDF7"/>
<path d="M1604.63 1675.63C1601.25 1677.3 1599.96 1677.81 1599.96 1677.81C1599.96 1677.81 1602.41 1676.79 1604.63 1675.63Z" fill="#9EBDF7"/>
<path d="M822.527 257.095H294.631C282.848 257.095 273.398 267.608 273.398 280.428V700.797C273.398 713.745 282.964 724.129 294.631 724.129H822.527C834.31 724.129 843.759 713.617 843.759 700.797V280.428C843.876 267.608 834.31 257.095 822.527 257.095Z" fill="#E4E8EF"/>
<path d="M790.445 321.324H326.829C322.396 321.324 318.78 325.298 318.78 330.17V672.208C318.78 677.08 322.396 681.054 326.829 681.054H790.445C794.878 681.054 798.494 677.08 798.494 672.208V330.17C798.494 325.298 794.878 321.324 790.445 321.324Z" fill="white"/>
<path d="M701.288 300.688C706.994 299.208 710.527 292.924 709.18 286.654C707.832 280.383 702.114 276.5 696.408 277.981C690.702 279.462 687.169 285.745 688.516 292.015C689.864 298.286 695.581 302.169 701.288 300.688Z" fill="white"/>
<path d="M744.334 300.691C750.04 299.21 753.574 292.927 752.226 286.656C750.879 280.386 745.161 276.503 739.455 277.983C733.749 279.464 730.216 285.747 731.563 292.018C732.91 298.288 738.628 302.171 744.334 300.691Z" fill="white"/>
<path d="M784.962 301.068C790.825 301.068 795.578 295.845 795.578 289.402C795.578 282.959 790.825 277.735 784.962 277.735C779.098 277.735 774.345 282.959 774.345 289.402C774.345 295.845 779.098 301.068 784.962 301.068Z" fill="white"/>
<path d="M471.724 352.348H351.095V484.907H471.724V352.348Z" fill="#EFF1F4"/>
<path d="M618.951 352.348H498.323V484.907H618.951V352.348Z" fill="#AFC5E0"/>
<path d="M766.179 352.348H645.55V484.907H766.179V352.348Z" fill="#EFF1F4"/>
<path d="M618.951 508.368H498.323V640.927H618.951V508.368Z" fill="#EFF1F4"/>
<path d="M766.179 508.368H645.55V640.927H766.179V508.368Z" fill="#E4E8EF"/>
<path d="M396.827 542.085H133.287C115.554 542.085 101.088 557.982 101.088 577.468V903.482C101.088 922.968 115.554 938.865 133.287 938.865H396.827C414.559 938.865 429.025 922.968 429.025 903.482V577.468C429.025 557.982 414.559 542.085 396.827 542.085Z" fill="#EFF1F4"/>
<path d="M390.294 585.801H139.82C129.904 585.801 121.854 594.647 121.854 605.544V887.585C121.854 898.482 129.904 907.328 139.82 907.328H390.294C400.21 907.328 408.26 898.482 408.26 887.585V605.544C408.26 594.647 400.21 585.801 390.294 585.801Z" fill="url(#paint0_linear_10_2)"/>
<path d="M319.946 560.546H210.167V565.033H319.946V560.546Z" fill="#D1D7E0"/>
<path d="M264.999 765.153C295.281 765.153 319.83 738.177 319.83 704.899C319.83 671.622 295.281 644.645 264.999 644.645C234.716 644.645 210.167 671.622 210.167 704.899C210.167 738.177 234.716 765.153 264.999 765.153Z" fill="white"/>
<path d="M183.452 794.127H164.203V815.28H183.452V794.127Z" fill="white"/>
<path d="M350.162 794.127H198.151V798.358H350.162V794.127Z" fill="white"/>
<path d="M363.695 805.921H198.151V810.152H363.695V805.921Z" fill="white"/>
<path d="M356.812 817.716H198.151V821.946H356.812V817.716Z" fill="white"/>
<path d="M362.645 829.382H198.151V833.613H362.645V829.382Z" fill="white"/>
<path d="M1922.88 186.97H1459.74C1446.55 186.97 1435.94 198.636 1435.94 213.122V702.976C1435.94 717.463 1446.55 729.129 1459.74 729.129H1922.88C1936.07 729.129 1946.68 717.463 1946.68 702.976V213.122C1946.68 198.636 1936.07 186.97 1922.88 186.97Z" fill="url(#paint1_linear_10_2)"/>
<path d="M1750.46 205.43H1622.48V213.507H1750.46V205.43Z" fill="white"/>
<path d="M1897.68 240.173H1485.05C1476.65 240.173 1469.88 247.608 1469.88 256.839V436.191C1469.88 445.422 1476.65 452.857 1485.05 452.857H1897.68C1906.08 452.857 1912.85 445.422 1912.85 436.191V256.839C1912.85 247.608 1906.08 240.173 1897.68 240.173Z" fill="#E9EDF4"/>
<path d="M1897.68 471.831H1485.05C1476.65 471.831 1469.88 479.267 1469.88 488.497V682.208C1469.88 691.438 1476.65 698.874 1485.05 698.874H1897.68C1906.08 698.874 1912.85 691.438 1912.85 682.208V488.497C1912.85 479.267 1906.08 471.831 1897.68 471.831Z" fill="#E9EDF4"/>
<path d="M1592.61 425.166C1631.79 425.166 1663.54 390.268 1663.54 347.22C1663.54 304.172 1631.79 269.274 1592.61 269.274C1553.44 269.274 1521.68 304.172 1521.68 347.22C1521.68 390.268 1553.44 425.166 1592.61 425.166Z" fill="white"/>
<path d="M1860.94 288.889H1698.54V305.427H1860.94V288.889Z" fill="white"/>
<path d="M1860.94 321.324H1698.54V329.657H1860.94V321.324Z" fill="white"/>
<path d="M1860.94 341.579H1698.54V349.912H1860.94V341.579Z" fill="white"/>
<path d="M1860.94 361.835H1698.54V370.168H1860.94V361.835Z" fill="white"/>
<path d="M1860.94 382.091H1698.54V390.424H1860.94V382.091Z" fill="white"/>
<path d="M1860.94 402.475H1698.54V410.808H1860.94V402.475Z" fill="white"/>
<path d="M1726.07 556.571H1105.2C1092.02 556.571 1081.4 568.238 1081.4 582.724V1091.68C1081.4 1106.17 1092.02 1117.83 1105.2 1117.83H1726.07C1739.26 1117.83 1749.87 1106.17 1749.87 1091.68V582.724C1749.87 568.238 1739.26 556.571 1726.07 556.571Z" fill="white"/>
<path d="M1298.27 601.954H1136.93C1132.26 601.954 1128.41 606.185 1128.41 611.313V1063.09C1128.41 1068.22 1132.26 1072.45 1136.93 1072.45H1298.27C1302.94 1072.45 1306.79 1068.22 1306.79 1063.09V611.313C1306.79 606.057 1303.06 601.954 1298.27 601.954Z" fill="#E4E8EF"/>
<path d="M1234.57 770.421C1257.07 760.179 1267.75 731.83 1258.43 707.103C1249.11 682.377 1223.32 670.635 1200.82 680.877C1178.31 691.119 1167.63 719.468 1176.95 744.195C1186.27 768.921 1212.07 780.663 1234.57 770.421Z" fill="#AFC5E0"/>
<path d="M1250.68 786.179H1184.65V792.973H1250.68V786.179Z" fill="#AFC5E0"/>
<path d="M1261.76 804.255H1173.56V810.152H1261.76V804.255Z" fill="#AFC5E0"/>
<path d="M1226.05 960.351C1249.97 955.29 1265.62 929.881 1261.02 903.599C1256.41 877.317 1233.29 860.115 1209.38 865.176C1185.46 870.237 1169.8 895.645 1174.41 921.927C1179.02 948.209 1202.14 965.412 1226.05 960.351Z" fill="#AFC5E0"/>
<path d="M1250.68 973.223H1184.65V980.018H1250.68V973.223Z" fill="#AFC5E0"/>
<path d="M1261.76 991.299H1173.56V997.196H1261.76V991.299Z" fill="#AFC5E0"/>
<path d="M1705.66 940.788H1337.82C1332.46 940.788 1328.14 945.532 1328.14 951.429V1058.99C1328.14 1064.89 1332.46 1069.63 1337.82 1069.63H1705.66C1711.03 1069.63 1715.34 1064.89 1715.34 1058.99V951.429C1715.34 945.532 1711.03 940.788 1705.66 940.788Z" fill="#EFF1F4"/>
<path d="M1364.31 634.261H1342.14V658.619H1364.31V634.261Z" fill="#EFF1F4"/>
<path d="M1588.65 635.543H1393.82V638.748H1588.65V635.543Z" fill="#EFF1F4"/>
<path d="M1638.69 644.902H1393.82V648.107H1638.69V644.902Z" fill="#EFF1F4"/>
<path d="M1626.33 654.26H1393.82V657.465H1626.33V654.26Z" fill="#EFF1F4"/>
<path d="M1364.31 696.053H1342.14V720.412H1364.31V696.053Z" fill="#EFF1F4"/>
<path d="M1588.65 697.207H1393.82V700.412H1588.65V697.207Z" fill="#EFF1F4"/>
<path d="M1638.69 706.694H1393.82V709.899H1638.69V706.694Z" fill="#EFF1F4"/>
<path d="M1626.33 716.053H1393.82V719.258H1626.33V716.053Z" fill="#EFF1F4"/>
<path d="M1364.31 757.846H1342.14V782.204H1364.31V757.846Z" fill="#EFF1F4"/>
<path d="M1588.65 759H1393.82V762.205H1588.65V759Z" fill="#EFF1F4"/>
<path d="M1638.69 768.359H1393.82V771.564H1638.69V768.359Z" fill="#EFF1F4"/>
<path d="M1626.33 777.717H1393.82V780.922H1626.33V777.717Z" fill="#EFF1F4"/>
<path d="M1364.31 819.511H1342.14V843.869H1364.31V819.511Z" fill="#EFF1F4"/>
<path d="M1588.65 820.793H1393.82V823.998H1588.65V820.793Z" fill="#EFF1F4"/>
<path d="M1638.69 830.151H1393.82V833.356H1638.69V830.151Z" fill="#EFF1F4"/>
<path d="M1626.33 839.51H1393.82V842.715H1626.33V839.51Z" fill="#EFF1F4"/>
<path d="M1364.31 881.303H1342.14V905.661H1364.31V881.303Z" fill="#EFF1F4"/>
<path d="M1588.65 882.457H1393.82V885.662H1588.65V882.457Z" fill="#EFF1F4"/>
<path d="M1638.69 891.944H1393.82V895.149H1638.69V891.944Z" fill="#EFF1F4"/>
<path d="M1626.33 901.302H1393.82V904.508H1626.33V901.302Z" fill="#EFF1F4"/>
<path d="M1654.44 963.608H1357.31V967.71H1654.44V963.608Z" fill="white"/>
<path d="M1675.21 976.812H1357.31V980.915H1675.21V976.812Z" fill="white"/>
<path d="M1686.29 990.017H1357.31V994.12H1686.29V990.017Z" fill="white"/>
<path d="M1673.81 1003.09H1357.31V1007.2H1673.81V1003.09Z" fill="white"/>
<path d="M1673.81 1016.3H1357.31V1020.4H1673.81V1016.3Z" fill="white"/>
<path d="M1666.81 1029.5H1357.31V1033.61H1666.81V1029.5Z" fill="white"/>
<path d="M1654.44 1042.71H1357.31V1046.81H1654.44V1042.71Z" fill="white"/>
<path d="M1860.94 744.77C1859.19 744.77 1857.9 746.308 1857.9 748.103V756.18C1857.9 758.103 1859.3 759.513 1860.94 759.513C1862.57 759.513 1863.97 757.974 1863.97 756.18V748.103C1864.09 746.308 1862.69 744.77 1860.94 744.77Z" fill="white"/>
<path d="M1860.94 768.872C1859.19 768.872 1857.9 770.41 1857.9 772.205V788.102C1857.9 790.025 1859.3 791.435 1860.94 791.435C1862.57 791.435 1863.97 789.896 1863.97 788.102V772.205C1864.09 770.282 1862.69 768.872 1860.94 768.872Z" fill="white"/>
<path d="M1860.94 959.762C1859.19 959.762 1857.9 961.3 1857.9 963.095V978.992C1857.9 980.915 1859.3 982.325 1860.94 982.325C1862.57 982.325 1863.97 980.787 1863.97 978.992V963.223C1864.09 961.3 1862.69 959.762 1860.94 959.762Z" fill="white"/>
<path d="M1860.94 896.174C1859.19 896.174 1857.9 897.713 1857.9 899.508V915.404C1857.9 917.327 1859.3 918.738 1860.94 918.738C1862.57 918.738 1863.97 917.199 1863.97 915.404V899.508C1864.09 897.713 1862.69 896.174 1860.94 896.174Z" fill="white"/>
<path d="M1860.94 927.968C1859.19 927.968 1857.9 929.507 1857.9 931.301V947.198C1857.9 949.121 1859.3 950.531 1860.94 950.531C1862.57 950.531 1863.97 948.993 1863.97 947.198V931.301C1864.09 929.507 1862.69 927.968 1860.94 927.968Z" fill="white"/>
<path d="M1860.94 800.665C1859.19 800.665 1857.9 802.204 1857.9 803.998V819.895C1857.9 821.818 1859.3 823.228 1860.94 823.228C1862.57 823.228 1863.97 821.69 1863.97 819.895V803.998C1864.09 802.204 1862.69 800.665 1860.94 800.665Z" fill="white"/>
<path d="M1860.94 864.381C1859.19 864.381 1857.9 865.919 1857.9 867.714V883.611C1857.9 885.534 1859.3 886.944 1860.94 886.944C1862.57 886.944 1863.97 885.406 1863.97 883.611V867.714C1864.09 865.791 1862.69 864.381 1860.94 864.381Z" fill="white"/>
<path d="M1860.94 832.459C1859.19 832.459 1857.9 833.997 1857.9 835.792V851.689C1857.9 853.612 1859.3 855.022 1860.94 855.022C1862.57 855.022 1863.97 853.484 1863.97 851.689V835.792C1864.09 833.997 1862.69 832.459 1860.94 832.459Z" fill="white"/>
<path d="M1860.94 991.684C1859.19 991.684 1857.9 993.222 1857.9 995.017V999.76H1853.59C1851.84 999.76 1850.55 1001.3 1850.55 1003.09C1850.55 1005.02 1851.95 1006.43 1853.59 1006.43H1864.09V994.889C1864.09 993.222 1862.69 991.684 1860.94 991.684Z" fill="white"/>
<path d="M1802.49 999.76H1785.46C1783.71 999.76 1782.42 1001.3 1782.42 1003.09C1782.42 1005.02 1783.82 1006.43 1785.46 1006.43H1802.49C1804.24 1006.43 1805.52 1004.89 1805.52 1003.09C1805.52 1001.3 1804.12 999.76 1802.49 999.76Z" fill="white"/>
<path d="M1836.55 999.76H1819.52C1817.77 999.76 1816.49 1001.3 1816.49 1003.09C1816.49 1005.02 1817.89 1006.43 1819.52 1006.43H1836.55C1838.3 1006.43 1839.59 1004.89 1839.59 1003.09C1839.59 1001.3 1838.3 999.76 1836.55 999.76Z" fill="white"/>
<path d="M1768.42 999.76H1761.07C1759.32 999.76 1758.04 1001.3 1758.04 1003.09C1758.04 1005.02 1759.44 1006.43 1761.07 1006.43H1768.42C1770.17 1006.43 1771.46 1004.89 1771.46 1003.09C1771.46 1001.3 1770.06 999.76 1768.42 999.76Z" fill="white"/>
<path d="M1354.39 1241.42H1339.57C1337.82 1241.42 1336.54 1242.96 1336.54 1244.75C1336.54 1246.67 1337.94 1248.08 1339.57 1248.08H1354.39C1356.14 1248.08 1357.42 1246.55 1357.42 1244.75C1357.54 1242.96 1356.14 1241.42 1354.39 1241.42Z" fill="white"/>
<path d="M1413.54 1241.42H1398.72C1396.97 1241.42 1395.69 1242.96 1395.69 1244.75C1395.69 1246.67 1397.09 1248.08 1398.72 1248.08H1413.54C1415.29 1248.08 1416.57 1246.55 1416.57 1244.75C1416.57 1242.96 1415.17 1241.42 1413.54 1241.42Z" fill="white"/>
<path d="M1383.9 1241.42H1369.09C1367.34 1241.42 1366.06 1242.96 1366.06 1244.75C1366.06 1246.67 1367.46 1248.08 1369.09 1248.08H1383.9C1385.65 1248.08 1386.94 1246.55 1386.94 1244.75C1387.05 1242.96 1385.65 1241.42 1383.9 1241.42Z" fill="white"/>
<path d="M1324.87 1241.42H1310.06C1308.31 1241.42 1307.02 1242.96 1307.02 1244.75C1307.02 1246.67 1308.42 1248.08 1310.06 1248.08H1324.87C1326.62 1248.08 1327.91 1246.55 1327.91 1244.75C1328.02 1242.96 1326.62 1241.42 1324.87 1241.42Z" fill="white"/>
<path d="M1472.57 1241.42H1457.75C1456 1241.42 1454.72 1242.96 1454.72 1244.75C1454.72 1246.67 1456.12 1248.08 1457.75 1248.08H1472.57C1474.32 1248.08 1475.6 1246.55 1475.6 1244.75C1475.6 1242.96 1474.2 1241.42 1472.57 1241.42Z" fill="white"/>
<path d="M1443.05 1241.42H1428.24C1426.49 1241.42 1425.2 1242.96 1425.2 1244.75C1425.2 1246.67 1426.6 1248.08 1428.24 1248.08H1443.05C1444.8 1248.08 1446.09 1246.55 1446.09 1244.75C1446.09 1242.96 1444.69 1241.42 1443.05 1241.42Z" fill="white"/>
<path d="M1502.08 1241.42H1487.27C1485.52 1241.42 1484.23 1242.96 1484.23 1244.75C1484.23 1246.67 1485.63 1248.08 1487.27 1248.08H1502.08C1503.83 1248.08 1505.12 1246.55 1505.12 1244.75C1505.12 1242.96 1503.83 1241.42 1502.08 1241.42Z" fill="white"/>
<path d="M1295.36 1241.42H1280.54C1278.79 1241.42 1277.51 1242.96 1277.51 1244.75C1277.51 1246.67 1278.91 1248.08 1280.54 1248.08H1295.36C1297.11 1248.08 1298.39 1246.55 1298.39 1244.75C1298.39 1242.96 1297.11 1241.42 1295.36 1241.42Z" fill="white"/>
<path d="M1236.33 1241.42H1221.51C1219.76 1241.42 1218.48 1242.96 1218.48 1244.75C1218.48 1246.67 1219.88 1248.08 1221.51 1248.08H1236.33C1238.08 1248.08 1239.36 1246.55 1239.36 1244.75C1239.36 1242.96 1237.96 1241.42 1236.33 1241.42Z" fill="white"/>
<path d="M1809.6 1060.14C1807.85 1060.14 1806.57 1061.68 1806.57 1063.48V1079.76C1806.57 1081.68 1807.97 1083.09 1809.6 1083.09C1811.35 1083.09 1812.64 1081.55 1812.64 1079.76V1063.48C1812.64 1061.68 1811.35 1060.14 1809.6 1060.14Z" fill="white"/>
<path d="M1148.36 1192.06C1146.61 1192.06 1145.33 1193.6 1145.33 1195.39V1211.68C1145.33 1213.6 1146.73 1215.01 1148.36 1215.01C1150.11 1215.01 1151.4 1213.47 1151.4 1211.68V1195.39C1151.4 1193.6 1150 1192.06 1148.36 1192.06Z" fill="white"/>
<path d="M1148.36 1159.63C1146.61 1159.63 1145.33 1161.16 1145.33 1162.96V1179.24C1145.33 1181.16 1146.73 1182.57 1148.36 1182.57C1150.11 1182.57 1151.4 1181.04 1151.4 1179.24V1162.96C1151.4 1161.16 1150 1159.63 1148.36 1159.63Z" fill="white"/>
<path d="M1148.36 1224.5C1146.61 1224.5 1145.33 1226.03 1145.33 1227.83V1244.11C1145.33 1246.03 1146.73 1247.44 1148.36 1247.44C1150.11 1247.44 1151.4 1245.91 1151.4 1244.11V1227.83C1151.4 1226.03 1150 1224.5 1148.36 1224.5Z" fill="white"/>
<path d="M1206.81 1241.42H1192C1190.25 1241.42 1188.96 1242.96 1188.96 1244.75C1188.96 1246.67 1190.36 1248.08 1192 1248.08H1206.81C1208.56 1248.08 1209.84 1246.55 1209.84 1244.75C1209.84 1242.96 1208.44 1241.42 1206.81 1241.42Z" fill="white"/>
<path d="M1531.6 1241.42H1516.78C1515.03 1241.42 1513.75 1242.96 1513.75 1244.75C1513.75 1246.67 1515.15 1248.08 1516.78 1248.08H1531.6C1533.35 1248.08 1534.63 1246.55 1534.63 1244.75C1534.63 1242.96 1533.35 1241.42 1531.6 1241.42Z" fill="white"/>
<path d="M1265.84 1241.42H1251.03C1249.28 1241.42 1247.99 1242.96 1247.99 1244.75C1247.99 1246.67 1249.39 1248.08 1251.03 1248.08H1265.84C1267.59 1248.08 1268.88 1246.55 1268.88 1244.75C1268.88 1242.96 1267.48 1241.42 1265.84 1241.42Z" fill="white"/>
<path d="M1177.18 1241.42H1162.36C1160.61 1241.42 1159.33 1242.96 1159.33 1244.75C1159.33 1246.67 1160.73 1248.08 1162.36 1248.08H1177.18C1178.93 1248.08 1180.21 1246.55 1180.21 1244.75C1180.33 1242.96 1178.93 1241.42 1177.18 1241.42Z" fill="white"/>
<path d="M1148.36 1127.19C1146.61 1127.19 1145.33 1128.73 1145.33 1130.52V1146.81C1145.33 1148.73 1146.73 1150.14 1148.36 1150.14C1150.11 1150.14 1151.4 1148.6 1151.4 1146.81V1130.52C1151.4 1128.6 1150 1127.19 1148.36 1127.19Z" fill="white"/>
<path d="M1808.32 1052.07C1808.32 1050.14 1806.92 1048.73 1805.29 1048.73H1790.59C1788.84 1048.73 1787.56 1050.27 1787.56 1052.07C1787.56 1053.86 1788.96 1055.4 1790.59 1055.4H1805.4C1807.04 1055.4 1808.32 1053.86 1808.32 1052.07Z" fill="white"/>
<path d="M1809.6 1222.44C1807.85 1222.44 1806.57 1223.98 1806.57 1225.78V1242.06C1806.57 1243.98 1807.97 1245.39 1809.6 1245.39C1811.35 1245.39 1812.64 1243.85 1812.64 1242.06V1225.78C1812.64 1223.85 1811.35 1222.44 1809.6 1222.44Z" fill="white"/>
<path d="M1797.36 1241.42H1782.54C1780.79 1241.42 1779.51 1242.96 1779.51 1244.75C1779.51 1246.67 1780.91 1248.08 1782.54 1248.08H1797.36C1799.11 1248.08 1800.39 1246.55 1800.39 1244.75C1800.51 1242.96 1799.11 1241.42 1797.36 1241.42Z" fill="white"/>
<path d="M1775.77 1048.6H1760.96C1759.21 1048.6 1757.92 1050.14 1757.92 1051.94C1757.92 1053.73 1759.32 1055.27 1760.96 1055.27H1775.77C1777.52 1055.27 1778.81 1053.73 1778.81 1051.94C1778.81 1050.14 1777.52 1048.6 1775.77 1048.6Z" fill="white"/>
<path d="M1809.6 1189.88C1807.85 1189.88 1806.57 1191.42 1806.57 1193.22V1209.5C1806.57 1211.42 1807.97 1212.83 1809.6 1212.83C1811.35 1212.83 1812.64 1211.29 1812.64 1209.5V1193.22C1812.64 1191.42 1811.35 1189.88 1809.6 1189.88Z" fill="white"/>
<path d="M1561.11 1241.42H1546.3C1544.55 1241.42 1543.27 1242.96 1543.27 1244.75C1543.27 1246.67 1544.67 1248.08 1546.3 1248.08H1561.11C1562.86 1248.08 1564.15 1246.55 1564.15 1244.75C1564.26 1242.96 1562.86 1241.42 1561.11 1241.42Z" fill="white"/>
<path d="M1809.6 1157.45C1807.85 1157.45 1806.57 1158.99 1806.57 1160.78V1177.06C1806.57 1178.98 1807.97 1180.39 1809.6 1180.39C1811.35 1180.39 1812.64 1178.86 1812.64 1177.06V1160.78C1812.64 1158.99 1811.35 1157.45 1809.6 1157.45Z" fill="white"/>
<path d="M1809.6 1125.01C1807.85 1125.01 1806.57 1126.55 1806.57 1128.35V1144.63C1806.57 1146.55 1807.97 1147.96 1809.6 1147.96C1811.35 1147.96 1812.64 1146.42 1812.64 1144.63V1128.35C1812.64 1126.55 1811.35 1125.01 1809.6 1125.01Z" fill="white"/>
<path d="M1809.6 1092.58C1807.85 1092.58 1806.57 1094.12 1806.57 1095.91V1112.19C1806.57 1114.12 1807.97 1115.53 1809.6 1115.53C1811.35 1115.53 1812.64 1113.99 1812.64 1112.19V1095.91C1812.64 1094.12 1811.35 1092.58 1809.6 1092.58Z" fill="white"/>
<path d="M1649.78 1241.42H1634.96C1633.21 1241.42 1631.93 1242.96 1631.93 1244.75C1631.93 1246.67 1633.33 1248.08 1634.96 1248.08H1649.78C1651.53 1248.08 1652.81 1246.55 1652.81 1244.75C1652.81 1242.96 1651.41 1241.42 1649.78 1241.42Z" fill="white"/>
<path d="M1620.26 1241.42H1605.45C1603.7 1241.42 1602.41 1242.96 1602.41 1244.75C1602.41 1246.67 1603.81 1248.08 1605.45 1248.08H1620.26C1622.01 1248.08 1623.3 1246.55 1623.3 1244.75C1623.3 1242.96 1621.9 1241.42 1620.26 1241.42Z" fill="white"/>
<path d="M1767.84 1241.42H1753.02C1751.27 1241.42 1749.99 1242.96 1749.99 1244.75C1749.99 1246.67 1751.39 1248.08 1753.02 1248.08H1767.84C1769.59 1248.08 1770.87 1246.55 1770.87 1244.75C1770.99 1242.96 1769.59 1241.42 1767.84 1241.42Z" fill="white"/>
<path d="M1590.63 1241.42H1575.93C1574.18 1241.42 1572.9 1242.96 1572.9 1244.75C1572.9 1246.67 1574.3 1248.08 1575.93 1248.08H1590.75C1592.5 1248.08 1593.78 1246.55 1593.78 1244.75C1593.78 1242.96 1592.38 1241.42 1590.63 1241.42Z" fill="white"/>
<path d="M1738.32 1241.42H1723.51C1721.76 1241.42 1720.47 1242.96 1720.47 1244.75C1720.47 1246.67 1721.87 1248.08 1723.51 1248.08H1738.32C1740.07 1248.08 1741.36 1246.55 1741.36 1244.75C1741.36 1242.96 1740.07 1241.42 1738.32 1241.42Z" fill="white"/>
<path d="M1708.81 1241.42H1693.99C1692.24 1241.42 1690.96 1242.96 1690.96 1244.75C1690.96 1246.67 1692.36 1248.08 1693.99 1248.08H1708.81C1710.56 1248.08 1711.84 1246.55 1711.84 1244.75C1711.84 1242.96 1710.44 1241.42 1708.81 1241.42Z" fill="white"/>
<path d="M1679.29 1241.42H1664.48C1662.73 1241.42 1661.44 1242.96 1661.44 1244.75C1661.44 1246.67 1662.84 1248.08 1664.48 1248.08H1679.29C1681.04 1248.08 1682.33 1246.55 1682.33 1244.75C1682.33 1242.96 1680.93 1241.42 1679.29 1241.42Z" fill="white"/>
<path d="M1217.66 639.902C1250.46 639.902 1277.04 610.686 1277.04 574.648C1277.04 538.609 1250.46 509.394 1217.66 509.394C1184.87 509.394 1158.28 538.609 1158.28 574.648C1158.28 610.686 1184.87 639.902 1217.66 639.902Z" fill="#F77FA4"/>
<path d="M1242.98 547.854L1207.16 590.673L1192.35 571.443C1190.83 569.392 1188.03 569.135 1186.16 570.802C1184.3 572.468 1184.06 575.545 1185.58 577.596L1203.55 601.057C1204.36 602.083 1205.53 602.724 1206.81 602.724H1206.93C1208.21 602.724 1209.38 602.211 1210.19 601.185L1249.39 554.264C1251.03 552.341 1250.91 549.264 1249.16 547.469C1247.41 545.803 1244.61 545.931 1242.98 547.854Z" fill="white"/>
<path d="M339.196 205.431L319.946 201.456C318.196 193.892 315.397 186.841 312.013 180.303L323.096 162.483C325.196 159.022 324.846 154.407 322.163 151.586L316.446 145.305L310.73 139.023C308.047 136.074 303.847 135.689 300.814 137.997L284.598 150.176C278.648 146.33 272.232 143.382 265.348 141.458L261.732 120.305C261.032 116.203 257.765 113.254 254.032 113.254H245.983H237.933C234.2 113.254 230.933 116.203 230.233 120.305L226.617 141.458C219.734 143.382 213.317 146.458 207.367 150.176L191.151 137.997C188.002 135.689 183.802 136.074 181.235 139.023L175.519 145.305L169.802 151.586C167.119 154.535 166.769 159.15 168.869 162.483L179.952 180.303C176.452 186.841 173.769 193.892 172.019 201.456L152.77 205.431C149.036 206.2 146.353 209.789 146.353 213.892V222.738V231.583C146.353 235.686 149.036 239.275 152.77 240.045L172.019 244.019C173.769 251.583 176.569 258.634 179.952 265.172L168.869 282.992C166.769 286.453 167.119 291.068 169.802 293.889L175.519 300.171L181.235 306.453C183.918 309.401 188.118 309.786 191.151 307.478L207.367 295.299C213.317 299.145 219.734 302.094 226.617 304.017L230.233 325.17C230.933 329.272 234.2 332.221 237.933 332.221H245.983H254.032C257.765 332.221 261.032 329.272 261.732 325.17L265.348 304.017C272.232 302.094 278.648 299.017 284.598 295.299L300.814 307.478C303.964 309.786 308.163 309.401 310.73 306.453L316.446 300.171L322.163 293.889C324.846 290.94 325.196 286.325 323.096 282.992L312.013 265.172C315.513 258.634 318.196 251.583 319.946 244.019L339.196 240.045C342.929 239.275 345.612 235.686 345.612 231.583V222.738V213.892C345.612 209.789 342.929 206.2 339.196 205.431ZM245.749 276.966C218.45 276.966 196.401 252.736 196.401 222.738C196.401 192.739 218.45 168.509 245.749 168.509C273.048 168.509 295.097 192.739 295.097 222.738C295.097 252.736 273.048 276.966 245.749 276.966Z" fill="#A0BDE5"/>
<path d="M1997.9 1079.37L1983.2 1076.3C1981.8 1070.66 1979.81 1065.14 1977.13 1060.27L1985.53 1046.68C1987.16 1044.12 1986.81 1040.53 1984.83 1038.35L1980.51 1033.61L1976.2 1028.86C1974.21 1026.68 1970.95 1026.3 1968.62 1028.09L1956.25 1037.32C1951.7 1034.37 1946.8 1032.2 1941.67 1030.66L1938.87 1014.5C1938.28 1011.43 1935.83 1009.12 1933.03 1009.12H1926.85H1920.67C1917.75 1009.12 1915.3 1011.3 1914.83 1014.5L1912.03 1030.66C1906.9 1032.2 1901.88 1034.37 1897.45 1037.32L1885.09 1028.09C1882.75 1026.3 1879.49 1026.68 1877.5 1028.86L1873.19 1033.61L1868.87 1038.35C1866.89 1040.53 1866.54 1044.12 1868.17 1046.68L1876.57 1060.27C1873.89 1065.27 1871.9 1070.66 1870.5 1076.3L1855.8 1079.37C1853 1080.01 1850.9 1082.71 1850.9 1085.78V1092.58V1099.37C1850.9 1102.58 1852.89 1105.27 1855.8 1105.78L1870.5 1108.86C1871.9 1114.5 1873.89 1120.01 1876.57 1124.88L1868.17 1138.47C1866.54 1141.04 1866.89 1144.63 1868.87 1146.81L1873.19 1151.55L1877.5 1156.29C1879.49 1158.47 1882.75 1158.86 1885.09 1157.06L1897.45 1147.83C1902 1150.78 1906.9 1152.96 1912.03 1154.5L1914.83 1170.65C1915.42 1173.73 1917.87 1176.04 1920.67 1176.04H1926.85H1933.03C1935.95 1176.04 1938.4 1173.86 1938.87 1170.65L1941.67 1154.5C1946.8 1152.96 1951.82 1150.78 1956.25 1147.83L1968.62 1157.06C1970.95 1158.86 1974.21 1158.47 1976.2 1156.29L1980.51 1151.55L1984.83 1146.81C1986.81 1144.63 1987.16 1141.04 1985.53 1138.47L1977.13 1124.88C1979.81 1119.88 1981.8 1114.5 1983.2 1108.86L1997.9 1105.78C2000.7 1105.14 2002.8 1102.45 2002.8 1099.37V1092.58V1085.78C2002.8 1082.71 2000.7 1080.01 1997.9 1079.37ZM1926.97 1133.73C1906.2 1133.73 1889.52 1115.27 1889.52 1092.58C1889.52 1069.76 1906.32 1051.43 1926.97 1051.43C1947.62 1051.43 1964.42 1069.89 1964.42 1092.58C1964.42 1115.27 1947.62 1133.73 1926.97 1133.73Z" fill="#F8F9FB"/>
<path d="M1112.08 481.446L1101.82 479.267C1100.88 475.292 1099.37 471.446 1097.62 467.985L1103.57 458.498C1104.73 456.703 1104.5 454.267 1103.1 452.729L1100.07 449.396L1097.03 446.063C1095.63 444.524 1093.42 444.268 1091.78 445.55L1083.15 452.088C1080 450.037 1076.62 448.498 1072.88 447.473L1070.9 436.191C1070.55 434.012 1068.8 432.473 1066.82 432.473H1062.5H1058.18C1056.2 432.473 1054.45 434.012 1054.1 436.191L1052.12 447.473C1048.5 448.498 1045 450.165 1041.85 452.088L1033.22 445.55C1031.59 444.268 1029.37 444.524 1027.97 446.063L1024.94 449.396L1021.9 452.729C1020.5 454.267 1020.27 456.703 1021.44 458.498L1027.39 467.985C1025.52 471.446 1024.12 475.164 1023.19 479.267L1012.92 481.446C1010.94 481.831 1009.54 483.754 1009.54 485.933V490.676V495.42C1009.54 497.599 1010.94 499.522 1012.92 499.907L1023.19 502.086C1024.12 506.06 1025.64 509.906 1027.39 513.368L1021.44 522.855C1020.27 524.65 1020.5 527.085 1021.9 528.624L1024.94 531.957L1027.97 535.29C1029.37 536.829 1031.59 537.085 1033.22 535.803L1041.85 529.265C1045 531.316 1048.38 532.854 1052.12 533.88L1054.1 545.162C1054.45 547.341 1056.2 548.879 1058.18 548.879H1062.5H1066.82C1068.8 548.879 1070.55 547.341 1070.9 545.162L1072.88 533.88C1076.5 532.854 1080 531.188 1083.15 529.265L1091.78 535.803C1093.42 537.085 1095.63 536.829 1097.03 535.29L1100.07 531.957L1103.1 528.624C1104.5 527.085 1104.73 524.65 1103.57 522.855L1097.62 513.368C1099.48 509.906 1100.88 506.189 1101.82 502.086L1112.08 499.907C1114.07 499.522 1115.47 497.599 1115.47 495.42V490.676V485.933C1115.47 483.754 1114.07 481.831 1112.08 481.446ZM1062.38 519.522C1047.92 519.522 1036.13 506.573 1036.13 490.676C1036.13 474.78 1047.92 461.831 1062.38 461.831C1076.85 461.831 1088.63 474.78 1088.63 490.676C1088.63 506.573 1076.97 519.522 1062.38 519.522Z" fill="#F8F9FB"/>
<path d="M934.872 641.312C933.122 641.312 931.839 642.85 931.839 644.645V660.927C931.839 662.85 933.239 664.26 934.872 664.26C936.622 664.26 937.905 662.722 937.905 660.927V644.645C937.905 642.85 936.622 641.312 934.872 641.312Z" fill="white"/>
<path d="M934.872 738.744C933.122 738.744 931.839 740.283 931.839 742.078V758.359C931.839 760.282 933.239 761.692 934.872 761.692C936.622 761.692 937.905 760.154 937.905 758.359V742.078C937.905 740.155 936.622 738.744 934.872 738.744Z" fill="white"/>
<path d="M934.872 706.181C933.122 706.181 931.839 707.72 931.839 709.515V725.796C931.839 727.719 933.239 729.129 934.872 729.129C936.622 729.129 937.905 727.591 937.905 725.796V709.515C937.905 707.72 936.622 706.181 934.872 706.181Z" fill="white"/>
<path d="M934.872 673.747C933.122 673.747 931.839 675.285 931.839 677.08V693.361C931.839 695.284 933.239 696.695 934.872 696.695C936.622 696.695 937.905 695.156 937.905 693.361V677.08C937.905 675.285 936.622 673.747 934.872 673.747Z" fill="white"/>
<path d="M934.872 771.179C933.122 771.179 931.839 772.717 931.839 774.512V790.794C931.839 792.717 933.239 794.127 934.872 794.127C936.622 794.127 937.905 792.589 937.905 790.794V774.512C937.905 772.717 936.622 771.179 934.872 771.179Z" fill="white"/>
<path d="M887.157 515.291H872.342C870.592 515.291 869.308 516.829 869.308 518.624C869.308 520.547 870.708 521.957 872.342 521.957H887.157C888.907 521.957 890.191 520.419 890.191 518.624C890.191 516.829 888.791 515.291 887.157 515.291Z" fill="white"/>
<path d="M916.673 515.291H901.857C900.107 515.291 898.824 516.829 898.824 518.624C898.824 520.547 900.224 521.957 901.857 521.957H916.673C918.423 521.957 919.706 520.419 919.706 518.624C919.706 516.829 918.306 515.291 916.673 515.291Z" fill="white"/>
<path d="M934.872 836.048C933.122 836.048 931.839 837.587 931.839 839.382V855.663C931.839 857.586 933.239 858.996 934.872 858.996C936.622 858.996 937.905 857.458 937.905 855.663V839.382C937.905 837.587 936.622 836.048 934.872 836.048Z" fill="white"/>
<path d="M934.872 803.614C933.122 803.614 931.839 805.152 931.839 806.947V823.228C931.839 825.151 933.239 826.562 934.872 826.562C936.622 826.562 937.905 825.023 937.905 823.228V806.947C937.905 805.152 936.622 803.614 934.872 803.614Z" fill="white"/>
<path d="M934.872 868.483C933.122 868.483 931.839 870.022 931.839 871.817V888.098C931.839 890.021 933.239 891.431 934.872 891.431C936.622 891.431 937.905 889.893 937.905 888.098V871.817C937.905 870.022 936.622 868.483 934.872 868.483Z" fill="white"/>
<path d="M1017.12 891.687H1002.3C1000.55 891.687 999.27 893.226 999.27 895.021C999.27 896.815 1000.67 898.354 1002.3 898.354H1017.12C1018.87 898.354 1020.15 896.815 1020.15 895.021C1020.15 893.226 1018.87 891.687 1017.12 891.687Z" fill="white"/>
<path d="M1046.63 891.687H1031.82C1030.07 891.687 1028.79 893.226 1028.79 895.021C1028.79 896.815 1030.19 898.354 1031.82 898.354H1046.63C1048.38 898.354 1049.67 896.815 1049.67 895.021C1049.67 893.226 1048.38 891.687 1046.63 891.687Z" fill="white"/>
<path d="M987.604 891.687H972.787C971.038 891.687 969.754 893.226 969.754 895.021C969.754 896.815 971.154 898.354 972.787 898.354H987.604C989.354 898.354 990.637 896.815 990.637 895.021C990.637 893.226 989.354 891.687 987.604 891.687Z" fill="white"/>
<path d="M1063.43 891.687H1061.45C1059.7 891.687 1058.42 893.226 1058.42 895.021C1058.42 896.815 1059.82 898.354 1061.45 898.354H1063.43C1065.18 898.354 1066.47 896.815 1066.47 895.021C1066.47 893.226 1065.18 891.687 1063.43 891.687Z" fill="white"/>
<path d="M934.872 576.443C933.122 576.443 931.839 577.981 931.839 579.776V596.057C931.839 597.98 933.239 599.391 934.872 599.391C936.622 599.391 937.905 597.852 937.905 596.057V579.776C937.905 577.981 936.622 576.443 934.872 576.443Z" fill="white"/>
<path d="M934.872 544.008C933.122 544.008 931.839 545.546 931.839 547.341V563.623C931.839 565.546 933.239 566.956 934.872 566.956C936.622 566.956 937.905 565.417 937.905 563.623V547.341C937.905 545.546 936.622 544.008 934.872 544.008Z" fill="white"/>
<path d="M934.872 608.877C933.122 608.877 931.839 610.416 931.839 612.211V628.492C931.839 630.415 933.239 631.825 934.872 631.825C936.622 631.825 937.905 630.287 937.905 628.492V612.211C937.905 610.416 936.622 608.877 934.872 608.877Z" fill="white"/>
<path d="M958.088 891.687H943.272C941.522 891.687 940.239 893.226 940.239 895.021C940.239 896.815 941.639 898.354 943.272 898.354H958.088C959.838 898.354 961.121 896.815 961.121 895.021C961.121 893.226 959.838 891.687 958.088 891.687Z" fill="white"/>
<path d="M928.339 518.752C928.339 520.675 929.739 522.086 931.372 522.086H931.722V531.06C931.722 532.983 933.122 534.393 934.756 534.393C936.506 534.393 937.789 532.855 937.789 531.06V515.291H931.256C929.739 515.291 928.339 516.829 928.339 518.752Z" fill="white"/>
<path d="M355.062 1048.6H340.245C338.496 1048.6 337.212 1050.14 337.212 1051.94C337.212 1053.73 338.612 1055.27 340.245 1055.27H355.062C356.811 1055.27 358.095 1053.73 358.095 1051.94C358.095 1050.14 356.811 1048.6 355.062 1048.6Z" fill="white"/>
<path d="M443.725 1048.6H428.909C427.159 1048.6 425.876 1050.14 425.876 1051.94C425.876 1053.73 427.275 1055.27 428.909 1055.27H443.725C445.475 1055.27 446.758 1053.73 446.758 1051.94C446.758 1050.14 445.358 1048.6 443.725 1048.6Z" fill="white"/>
<path d="M325.546 1048.6H310.73C308.98 1048.6 307.697 1050.14 307.697 1051.94C307.697 1053.73 309.097 1055.27 310.73 1055.27H325.546C327.296 1055.27 328.579 1053.73 328.579 1051.94C328.579 1050.14 327.296 1048.6 325.546 1048.6Z" fill="white"/>
<path d="M384.577 1048.6H369.761C368.011 1048.6 366.728 1050.14 366.728 1051.94C366.728 1053.73 368.128 1055.27 369.761 1055.27H384.577C386.327 1055.27 387.61 1053.73 387.61 1051.94C387.61 1050.14 386.327 1048.6 384.577 1048.6Z" fill="white"/>
<path d="M414.093 1048.6H399.277C397.527 1048.6 396.243 1050.14 396.243 1051.94C396.243 1053.73 397.643 1055.27 399.277 1055.27H414.093C415.843 1055.27 417.126 1053.73 417.126 1051.94C417.126 1050.14 415.843 1048.6 414.093 1048.6Z" fill="white"/>
<path d="M245.749 980.787C247.499 980.787 248.782 979.248 248.782 977.454V961.172C248.782 959.249 247.383 957.839 245.749 957.839C243.999 957.839 242.716 959.377 242.716 961.172V977.325C242.716 979.248 244.116 980.787 245.749 980.787Z" fill="white"/>
<path d="M245.749 1013.22C247.499 1013.22 248.782 1011.68 248.782 1009.89V993.607C248.782 991.684 247.383 990.274 245.749 990.274C243.999 990.274 242.716 991.812 242.716 993.607V1009.89C242.716 1011.68 244.116 1013.22 245.749 1013.22Z" fill="white"/>
<path d="M248.899 1026.04C248.899 1024.12 247.499 1022.71 245.866 1022.71C244.116 1022.71 242.833 1024.25 242.833 1026.04V1042.32C242.833 1044.25 244.233 1045.66 245.866 1045.66C247.616 1045.66 248.899 1044.12 248.899 1042.32V1026.04Z" fill="white"/>
<path d="M266.515 1048.6H251.699C249.949 1048.6 248.666 1050.14 248.666 1051.94C248.666 1053.73 250.066 1055.27 251.699 1055.27H266.515C268.265 1055.27 269.548 1053.73 269.548 1051.94C269.548 1050.14 268.148 1048.6 266.515 1048.6Z" fill="white"/>
<path d="M296.031 1048.6H281.215C279.465 1048.6 278.181 1050.14 278.181 1051.94C278.181 1053.73 279.581 1055.27 281.215 1055.27H296.031C297.781 1055.27 299.064 1053.73 299.064 1051.94C299.064 1050.14 297.664 1048.6 296.031 1048.6Z" fill="white"/>
<path d="M471.84 917.328C470.091 917.328 468.807 918.866 468.807 920.661V936.942C468.807 938.865 470.207 940.275 471.84 940.275C473.474 940.275 474.874 938.737 474.874 936.942V920.661C474.99 918.866 473.59 917.328 471.84 917.328Z" fill="white"/>
<path d="M471.84 787.589C470.091 787.589 468.807 789.127 468.807 790.922V807.203C468.807 809.126 470.207 810.537 471.84 810.537C473.474 810.537 474.874 808.998 474.874 807.203V790.922C474.99 789.127 473.59 787.589 471.84 787.589Z" fill="white"/>
<path d="M471.84 820.023C470.091 820.023 468.807 821.562 468.807 823.357V839.638C468.807 841.561 470.207 842.971 471.84 842.971C473.474 842.971 474.874 841.433 474.874 839.638V823.357C474.99 821.562 473.59 820.023 471.84 820.023Z" fill="white"/>
<path d="M471.84 852.458C470.091 852.458 468.807 853.997 468.807 855.791V872.073C468.807 873.996 470.207 875.406 471.84 875.406C473.474 875.406 474.874 873.868 474.874 872.073V855.791C474.99 853.997 473.59 852.458 471.84 852.458Z" fill="white"/>
<path d="M471.84 755.154C470.091 755.154 468.807 756.692 468.807 758.487V774.769C468.807 776.692 470.207 778.102 471.84 778.102C473.474 778.102 474.874 776.563 474.874 774.769V758.487C474.99 756.564 473.59 755.154 471.84 755.154Z" fill="white"/>
<path d="M471.84 1047.19C470.79 1047.19 469.857 1047.71 469.274 1048.6H458.308C456.558 1048.6 455.274 1050.14 455.274 1051.94C455.274 1053.73 456.674 1055.27 458.308 1055.27H474.874V1050.4C474.99 1048.73 473.59 1047.19 471.84 1047.19Z" fill="white"/>
<path d="M471.84 1014.76C470.091 1014.76 468.807 1016.3 468.807 1018.09V1034.37C468.807 1036.3 470.207 1037.71 471.84 1037.71C473.474 1037.71 474.874 1036.17 474.874 1034.37V1018.09C474.99 1016.3 473.59 1014.76 471.84 1014.76Z" fill="white"/>
<path d="M471.84 884.893C470.091 884.893 468.807 886.431 468.807 888.226V904.508C468.807 906.431 470.207 907.841 471.84 907.841C473.474 907.841 474.874 906.302 474.874 904.508V888.226C474.99 886.431 473.59 884.893 471.84 884.893Z" fill="white"/>
<path d="M471.84 982.325C470.091 982.325 468.807 983.864 468.807 985.658V1001.94C468.807 1003.86 470.207 1005.27 471.84 1005.27C473.474 1005.27 474.874 1003.73 474.874 1001.94V985.658C474.99 983.735 473.59 982.325 471.84 982.325Z" fill="white"/>
<path d="M471.84 949.762C470.091 949.762 468.807 951.301 468.807 953.096V969.377C468.807 971.3 470.207 972.71 471.84 972.71C473.474 972.71 474.874 971.172 474.874 969.377V953.096C474.99 951.301 473.59 949.762 471.84 949.762Z" fill="white"/>
<path d="M85.3949 1757.04C57.4358 1780.37 41.7477 1811.14 42.0584 1843.32C42.5243 1883.32 64.8916 1917.93 98.4424 1945.37C84.7735 1883.19 105.743 1814.86 150.943 1764.35C170.515 1742.55 193.658 1723.45 219.288 1707.04C203.444 1710.25 187.445 1713.71 171.913 1717.81C140.381 1726.14 108.694 1737.68 85.3949 1757.04Z" fill="#CFF0EF"/>
<path d="M912.206 1675.5C979.463 1690.38 1048.12 1701.02 1117.24 1708.71C1128.42 1709.86 1139.45 1710.89 1150.63 1711.91C1083.53 1700.76 1017.67 1685.89 953.678 1666.4C945.756 1638.58 915.933 1616.4 877.412 1616.4C877.257 1616.4 876.946 1616.4 876.791 1616.4C818.853 1616.79 760.916 1619.99 703.289 1625.38C748.801 1627.3 794.467 1629.35 839.978 1629.48C876.325 1629.48 904.284 1649.48 912.206 1675.5Z" fill="#CFF0EF"/>
<path d="M929.292 2017.03C914.535 2015.75 899.624 2015.11 884.868 2015.11C871.975 2015.11 858.928 2015.62 846.036 2016.65C822.736 2019.59 800.059 2024.08 777.847 2029.47C805.495 2033.31 832.522 2038.83 858.773 2046.77C917.176 2067.93 968.745 2100.87 1032.58 2112.03C1052.93 2115.62 1073.13 2117.28 1093.32 2117.28C1116 2117.28 1138.83 2115.23 1161.51 2111.39C1188.07 2106.9 1213.85 2099.34 1239.02 2091C1221.46 2087.41 1204.22 2083.31 1187.14 2078.95C1101.86 2056.77 1018.45 2028.06 929.292 2017.03Z" fill="#CFF0EF"/>
<path d="M2231.41 1725.25C2207.02 1724.73 2182.79 1724.61 2158.4 1724.61C2113.36 1724.61 2068.31 1725.38 2023.27 1726.4C2048.12 1727.55 2072.97 1728.84 2097.82 1730.5C2174.24 1735.76 2248.49 1744.22 2318.7 1769.48C2383.47 1792.81 2432.56 1833.19 2459.74 1884.09C2483.97 1850.88 2478.53 1807.94 2448.86 1777.81C2397.76 1726.02 2307.21 1726.79 2231.41 1725.25Z" fill="#CFF0EF"/>
<path d="M679.99 2024.59C604.967 2024.59 529.788 2030.75 454.765 2031.39C450.26 2031.39 445.911 2031.52 441.406 2031.52C341.065 2031.52 234.82 2020.49 148.924 1977.42C130.595 1968.19 113.509 1957.42 98.5977 1945.24C104.345 1971.52 116.305 1996.65 135.255 2018.95C171.136 2061.39 223.947 2089.98 285.302 2105.87C319.629 2114.72 355.199 2118.44 390.77 2118.44C417.797 2118.44 444.979 2116.39 471.851 2112.92C579.338 2098.95 674.864 2054.21 778.002 2029.34C775.051 2028.95 771.944 2028.57 768.993 2028.18C739.17 2025.62 709.503 2024.59 679.99 2024.59Z" fill="#CFF0EF"/>
<path d="M337.337 1682.56C393.566 1671.15 450.105 1660.38 507.11 1651.02C571.882 1640.38 637.43 1631.4 703.29 1625.25C683.252 1624.35 663.215 1623.58 643.022 1622.94C626.713 1622.43 610.403 1622.17 594.249 1622.17C545.632 1622.17 497.325 1624.48 449.018 1630.38C365.762 1640.51 284.215 1665.38 219.443 1706.79C230.005 1704.61 240.568 1702.56 250.974 1700.25C279.71 1694.35 308.446 1688.33 337.337 1682.56Z" fill="#CFF0EF"/>
<path d="M1300.06 1730.37C1381.76 1736.91 1463.93 1739.35 1545.94 1739.35C1613.98 1739.35 1682.17 1737.68 1750.2 1735.5C1841.22 1732.55 1932.24 1728.71 2023.27 1726.4C1951.66 1723.2 1879.9 1722.3 1808.14 1722.3C1746.01 1722.3 1684.03 1722.94 1621.9 1723.58C1579.65 1723.96 1537.25 1724.35 1495 1724.35C1384.71 1724.35 1274.59 1722.17 1164.77 1713.2C1160.11 1712.81 1155.29 1712.43 1150.63 1712.04C1185.27 1717.81 1220.22 1722.55 1255.17 1726.4C1270.24 1727.81 1285.15 1729.09 1300.06 1730.37Z" fill="#CFF0EF"/>
<path d="M2459.89 1884.09C2457.72 1887.04 2455.39 1889.86 2452.9 1892.55C2426.96 1920.24 2391.24 1939.21 2352.72 1954.98C2229.23 2005.75 2088.5 2018.95 1950.57 2018.95C1943.43 2018.95 1936.44 2018.95 1929.29 2018.83C1834.08 2017.93 1738.86 2011.65 1643.64 2011.65C1597.36 2011.65 1550.91 2013.18 1504.78 2017.42C1454.46 2023.31 1405.06 2032.93 1357.84 2047.67C1327.24 2058.18 1297.57 2070.23 1266.97 2080.87C1257.65 2084.08 1248.34 2087.41 1239.02 2090.49C1285.92 2100.23 1334.23 2106.64 1382.38 2106.64C1416.09 2106.64 1449.64 2103.57 1482.72 2096.26C1541.13 2083.44 1593.16 2058.44 1648.3 2039.21C1670.05 2032.54 1692.11 2027.41 1715.1 2024.34C1727.68 2023.31 1740.26 2022.93 1752.84 2022.93C1769.31 2022.93 1785.77 2023.7 1802.23 2025.11C1948.09 2043.06 2079.34 2106.64 2227.99 2114.08C2234.67 2114.46 2241.5 2114.59 2248.49 2114.59C2314.35 2114.59 2385.18 2098.69 2428.83 2058.57C2478.38 2012.93 2491.27 1949.85 2465.02 1893.57C2463.16 1890.5 2461.6 1887.29 2459.89 1884.09Z" fill="#CFF0EF"/>
<path d="M2318.86 1769.6C2248.65 1744.35 2174.4 1735.89 2097.98 1730.63C2073.13 1728.96 2048.27 1727.55 2023.42 1726.53C1932.4 1728.84 1841.38 1732.68 1750.36 1735.63C1682.32 1737.81 1614.13 1739.48 1546.1 1739.48C1463.93 1739.48 1381.92 1737.17 1300.21 1730.5C1285.3 1729.35 1270.39 1727.94 1255.48 1726.4C1220.38 1722.55 1185.43 1717.81 1150.94 1712.04C1139.76 1711.02 1128.73 1709.99 1117.55 1708.84C1048.27 1701.15 979.618 1690.5 912.516 1675.63C904.594 1649.61 876.635 1629.48 840.289 1629.48C794.622 1629.35 749.111 1627.3 703.6 1625.38C637.741 1631.53 572.193 1640.51 507.421 1651.15C450.571 1660.51 394.032 1671.27 337.648 1682.68C308.757 1688.58 280.021 1694.61 251.13 1700.63C240.723 1702.81 230.161 1704.99 219.598 1707.17C193.814 1723.58 170.67 1742.68 151.254 1764.48C106.054 1814.86 85.0843 1883.19 98.7531 1945.5C113.665 1957.67 130.751 1968.44 149.079 1977.67C234.976 2020.75 341.22 2031.77 441.562 2031.77C446.066 2031.77 450.571 2031.77 454.92 2031.65C529.944 2030.88 605.122 2024.85 680.146 2024.85C709.813 2024.85 739.481 2025.75 768.993 2028.44C771.944 2028.83 775.051 2029.21 778.002 2029.59C800.369 2024.21 823.047 2019.85 846.191 2016.77C859.083 2015.75 872.131 2015.24 885.023 2015.24C899.779 2015.24 914.691 2015.88 929.447 2017.16C1018.61 2028.18 1102.02 2056.9 1187.14 2078.82C1204.22 2083.18 1221.46 2087.28 1239.02 2090.87C1248.49 2087.67 1257.81 2084.46 1266.97 2081.26C1297.42 2070.49 1327.24 2058.57 1357.84 2048.06C1405.22 2033.31 1454.61 2023.7 1504.78 2017.8C1551.07 2013.44 1597.36 2012.03 1643.64 2012.03C1738.86 2012.03 1834.08 2018.31 1929.29 2019.21C1936.28 2019.34 1943.43 2019.34 1950.57 2019.34C2088.5 2019.34 2229.23 2006.13 2352.72 1955.37C2391.24 1939.6 2426.96 1920.62 2452.9 1892.93C2455.54 1890.24 2457.87 1887.29 2459.89 1884.47C2432.71 1833.19 2383.78 1792.81 2318.86 1769.6Z" fill="#AFE6E4"/>
<path d="M807.827 1750.63H1675.33C1692.83 1750.63 1706.94 1735.12 1706.94 1715.89V1694.48H807.827V1750.63Z" fill="url(#paint2_linear_10_2)"/>
<path d="M1016.19 1224.5C1007.79 1213.47 997.636 1204.5 988.653 1194.11C984.337 1189.11 981.77 1185.65 978.504 1179.75C977.921 1178.73 977.337 1177.57 976.871 1176.55C976.987 1176.81 975.471 1173.22 975.471 1173.22C975.004 1171.68 974.537 1170.14 974.187 1168.6C974.071 1168.22 973.604 1165.14 973.487 1165.14C972.087 1151.93 979.554 1136.81 980.837 1122.32C980.954 1120.78 981.07 1119.12 981.07 1117.58C987.137 1109.37 992.387 1100.91 994.72 1091.17C998.453 1076.04 995.77 1059.12 987.487 1046.43C979.32 1033.86 966.838 1026.17 954.938 1018.48C941.055 1009.63 925.889 998.863 922.739 980.146C921.806 974.505 913.873 976.813 914.806 982.582C920.289 1015.53 953.888 1023.35 973.604 1042.96C984.804 1054.12 990.52 1070.66 987.02 1087.06C985.737 1093.35 983.17 1099.12 980.02 1104.37C976.754 1081.17 963.804 1059.89 949.688 1042.71C940.472 1031.55 930.439 1021.43 921.223 1010.27C917.49 1005.79 914.34 1001.81 911.423 997.068C908.157 991.812 904.307 984.376 902.79 980.018C901.857 977.197 900.924 974.249 900.34 971.428C899.99 969.633 899.64 967.967 899.29 966.172C899.174 965.531 899.057 965.018 899.057 964.762C899.057 964.505 899.057 963.993 899.057 963.352C898.94 956.044 898.94 953.736 901.04 946.685C903.49 938.352 898.124 928.866 890.657 926.686C887.624 925.789 884.591 925.917 881.908 927.071C851.809 893.354 805.961 883.354 763.962 892.969C712.514 904.764 669.933 944.25 632.251 982.197C592.119 1022.71 555.021 1069.89 539.038 1128.35C524.222 1182.83 530.988 1242.83 565.987 1286.29C582.086 1306.16 604.135 1320.9 628.051 1325.77C658.383 1331.93 687.199 1324.49 717.181 1320.13C716.248 1320.26 718.581 1320.01 718.697 1320.01C720.447 1319.88 722.081 1319.75 723.831 1319.75C723.714 1319.75 726.397 1320.01 726.98 1320.01C727.68 1320.26 728.847 1320.52 729.314 1320.65C729.664 1320.9 730.247 1321.29 730.83 1321.54C731.18 1321.93 731.88 1322.57 732.347 1323.08C732.58 1323.34 732.814 1323.72 732.93 1323.98C733.514 1325.01 734.097 1326.16 734.563 1327.18C734.563 1327.44 735.497 1329.62 735.613 1329.88C735.963 1330.77 736.197 1331.8 736.43 1332.7C737.247 1335.65 737.947 1338.59 738.763 1341.54C740.397 1347.82 742.147 1353.98 744.713 1359.88C754.863 1383.85 778.195 1395.9 800.478 1401.67C813.31 1405 826.493 1406.8 839.559 1408.59C854.259 1410.77 869.192 1412.31 884.008 1412.57C912.123 1413.08 940.122 1408.46 966.021 1396.16C988.77 1385.26 1009.42 1367.57 1022.25 1343.98C1035.32 1320.01 1040.33 1290.39 1034.5 1263.08C1031.47 1248.6 1024.82 1235.91 1016.19 1224.5ZM732.347 1322.83C731.53 1321.93 731.88 1322.31 732.347 1322.83V1322.83ZM770.729 1344.36C769.912 1342.7 770.495 1343.72 770.729 1344.36V1344.36Z" fill="url(#paint3_linear_10_2)"/>
<path d="M893.924 753.872C894.391 754.128 894.857 754.385 895.324 754.641H895.441C892.057 752.975 891.591 752.718 893.924 753.872Z" fill="url(#paint4_linear_10_2)"/>
<path d="M914.806 767.333C915.156 767.718 915.506 767.974 915.856 768.359C915.973 768.359 915.973 768.359 916.09 768.359C913.173 765.923 912.823 765.538 914.806 767.333Z" fill="url(#paint5_linear_10_2)"/>
<path d="M943.389 883.226C943.155 883.739 942.922 884.38 942.689 884.893C941.872 887.072 942.105 886.559 943.389 883.226Z" fill="url(#paint6_linear_10_2)"/>
<path d="M950.505 731.565C936.156 718.104 920.406 708.104 902.557 701.31C890.657 696.823 875.725 706.438 873.041 719.771C870.008 734.514 877.125 747.334 889.841 752.205C890.774 752.59 894.391 754.641 895.441 754.513C894.974 754.257 894.507 754 894.041 753.744C891.707 752.59 892.174 752.846 895.557 754.385H895.441C895.907 754.641 896.374 754.769 896.724 755.026C900.34 756.949 903.957 759.128 907.34 761.436C908.507 762.205 914.34 767.718 915.856 767.974C915.506 767.589 915.156 767.333 914.806 766.948C912.823 765.154 913.29 765.538 916.09 767.974C916.09 767.974 915.973 767.974 915.856 767.974C916.323 768.359 916.673 768.743 917.14 769.128C918.656 770.538 920.173 772.076 921.573 773.615C924.489 776.692 927.289 779.897 929.856 783.358C930.789 784.64 931.722 785.922 932.772 787.204C928.106 781.307 932.539 787.076 933.472 788.614C935.806 792.332 937.906 796.05 939.772 800.024C940.705 801.947 941.639 803.998 942.455 805.921C942.572 806.306 942.805 806.691 942.922 807.075C942.805 806.947 942.805 806.691 942.689 806.562C941.989 804.639 942.339 805.537 943.622 808.998C943.389 808.357 943.155 807.716 942.805 807.075C944.089 811.049 945.489 815.024 946.422 819.126C947.005 821.434 947.472 823.869 947.939 826.177C948.289 827.844 949.572 831.818 949.105 833.356C948.638 829.382 948.522 828.869 948.872 831.818C948.988 832.972 949.105 834.254 949.222 835.407C949.338 837.202 949.455 838.997 949.455 840.92C949.572 845.792 949.455 850.663 949.105 855.535C948.988 856.689 948.872 857.971 948.755 859.125C948.405 862.073 948.522 861.56 948.988 857.586C949.572 858.74 948.055 863.483 947.822 864.765C947.005 868.996 946.072 873.098 944.789 877.073C944.089 879.38 943.272 881.688 942.572 883.995C942.455 884.124 942.455 884.252 942.455 884.508C942.689 883.995 942.922 883.354 943.155 882.842C941.872 886.047 941.639 886.688 942.455 884.508C942.222 885.021 941.989 885.662 941.755 886.175C939.889 890.534 937.672 894.892 935.339 898.995C928.689 910.789 932.656 928.609 943.972 935.147C955.755 941.942 969.754 938.224 976.871 925.661C1011.99 863.996 1001.25 779.256 950.505 731.565Z" fill="url(#paint7_linear_10_2)"/>
<path d="M942.805 806.819C942.922 806.947 942.922 807.203 943.039 807.332C943.272 807.973 943.622 808.614 943.855 809.255C942.455 805.793 942.105 805.024 942.805 806.819Z" fill="url(#paint8_linear_10_2)"/>
<path d="M793.828 1191.55C771.779 1169.11 793.828 1077.45 793.828 1077.45L799.544 1009.12L707.614 969.249C707.614 969.249 709.714 1167.45 540.088 1240.91C365.678 1316.54 415.259 1682.68 415.259 1682.68L1077.43 1694.48C1077.43 1694.48 1077.43 1363.34 987.837 1260.65C946.655 1213.47 815.877 1213.98 793.828 1191.55Z" fill="url(#paint9_linear_10_2)"/>
<path d="M889.957 696.438C641.934 661.055 632.951 866.56 642.517 980.915C652.083 1095.14 788.695 1153.73 844.926 1160.52C887.624 1165.65 907.923 1108.22 923.673 1033.99L940.472 945.019C943.972 925.789 947.705 906.559 951.672 888.098C978.737 762.974 889.957 696.438 889.957 696.438Z" fill="url(#paint10_linear_10_2)"/>
<path d="M976.404 1249.5C941.289 1220.01 874.325 1209.75 829.176 1201.68C829.176 1201.55 829.293 1201.42 829.293 1201.16C830.926 1192.45 828.593 1183.6 822.527 1177.57C810.744 1166.16 794.528 1169.88 783.328 1179.88C780.878 1182.06 778.662 1184.5 776.328 1186.81C775.395 1187.83 774.462 1188.86 773.412 1189.75C773.412 1189.75 773.412 1189.75 773.295 1189.75C773.062 1189.88 772.595 1190.27 771.895 1190.78C771.195 1191.29 770.495 1191.68 769.912 1191.93C769.679 1191.55 769.445 1191.04 769.329 1190.65C766.412 1184.5 763.612 1178.47 757.779 1174.88C751.363 1170.78 743.663 1170.91 737.013 1174.5C733.164 1176.55 729.897 1179.75 726.864 1183.09C725.814 1184.24 724.764 1185.52 723.714 1186.68C720.797 1181.55 717.764 1176.68 712.748 1173.6C700.848 1166.29 689.765 1172.96 679.382 1179.75C679.032 1180.01 678.682 1180.14 678.449 1180.4C677.982 1178.6 677.516 1176.81 677.049 1175.01C674.832 1167.06 671.099 1159.24 664.45 1154.76C657.45 1150.14 648.817 1149.37 641 1151.93C623.968 1157.58 617.201 1175.52 613.818 1193.09C593.869 1211.68 569.603 1228.21 540.204 1240.91C365.795 1316.54 415.376 1682.68 415.376 1682.68L1077.55 1694.48C1077.43 1694.48 1077.43 1334.24 976.404 1249.5Z" fill="url(#paint11_linear_10_2)"/>
<path d="M976.404 1249.49C944.905 1222.96 887.857 1212.06 843.759 1204.24C855.659 1262.96 863.008 1318.72 867.208 1378.21C871.641 1440.39 872.108 1502.82 869.308 1565C867.908 1596.15 865.692 1627.3 862.658 1658.33C861.608 1669.61 860.325 1680.25 859.042 1690.63L1077.43 1694.48C1077.43 1694.48 1077.43 1334.24 976.404 1249.49Z" fill="url(#paint12_linear_10_2)"/>
<path d="M713.914 1408.59C681.599 1349.11 644.734 1292.83 614.051 1232.32C609.385 1223.09 604.952 1213.86 600.635 1204.5C583.369 1218.47 563.303 1230.91 540.088 1241.03C365.678 1316.67 415.259 1682.81 415.259 1682.81L789.861 1689.48C792.195 1659.35 790.211 1629.22 785.311 1599.48C773.995 1531.28 745.996 1467.56 713.914 1408.59Z" fill="url(#paint13_linear_10_2)"/>
<path d="M1234.69 1344.24C1202.03 1366.67 1179.51 1404.87 1146.85 1452.05C1114.18 1499.23 813.777 1674.35 813.777 1674.35L619.651 1368.98L482.807 1543.97C482.807 1543.97 734.097 1865.11 789.278 1867.29C844.459 1869.6 1202.03 1526.02 1202.03 1526.02C1371.66 1483.33 1363.49 1344.11 1363.49 1344.11C1363.49 1344.11 1267.48 1321.67 1234.69 1344.24Z" fill="#F47D7D"/>
<path d="M901.04 1622.17C851.226 1652.43 813.894 1674.22 813.894 1674.22L608.218 1409.62L510.456 1545.13C510.456 1545.13 734.213 1865.11 789.395 1867.29C811.91 1868.19 884.591 1811.65 962.871 1744.35C917.606 1699.61 904.657 1649.74 901.04 1622.17Z" fill="#F8F9FB"/>
<path d="M848.309 1653.84C827.077 1666.53 813.777 1674.22 813.777 1674.22L619.651 1368.85L482.807 1543.97C482.807 1543.97 734.097 1865.11 789.278 1867.29C807.477 1868.06 858.925 1830.88 919.356 1781.01C880.624 1750.25 857.525 1684.74 848.309 1653.84Z" fill="#3576EE"/>
<path d="M1826.17 1185.39L1279.61 1184.75C1256.04 1184.75 1235.39 1201.8 1228.74 1226.55L1104.03 1694.61H1707.76L1845.54 1214.75C1849.74 1200.14 1839.94 1185.39 1826.17 1185.39Z" fill="url(#paint14_linear_10_2)"/>
<path d="M923.556 728.616C923.556 726.052 921.806 724.642 920.056 724.386C918.89 720.54 916.906 716.822 914.106 713.489C862.192 650.799 776.795 631.44 703.881 652.722C629.218 674.516 568.67 739.001 534.605 813.613C525.622 833.228 518.272 853.868 512.089 874.765C506.139 895.149 500.773 915.789 493.89 935.788C493.19 937.839 492.373 939.891 491.673 941.942C491.323 942.839 490.856 943.865 490.506 944.762C488.873 948.865 487.006 952.839 485.14 956.685C471.024 970.274 454.108 981.299 439.992 993.735C427.042 1005.02 415.143 1018.48 408.26 1035.14C401.143 1052.32 400.91 1070.4 406.626 1088.09C412.226 1105.4 420.509 1121.81 428.559 1138.09C404.643 1174.11 368.478 1202.45 355.995 1246.29C338.962 1305.77 379.561 1372.82 434.275 1384.23C437.192 1384.87 440.108 1385.26 443.025 1385.52C465.074 1399.75 490.973 1407.69 515.589 1412.57C525.038 1414.49 534.488 1416.03 544.054 1417.44C545.921 1417.69 547.787 1417.95 549.537 1418.08C563.42 1420.51 577.42 1420.64 591.302 1418.72C606.002 1420.13 621.285 1417.05 634.584 1410.51C665.266 1395.39 680.666 1358.59 684.399 1323.98C688.482 1286.03 674.716 1248.34 659.783 1215.01C656.283 1207.32 652.783 1199.75 649.517 1192.06C648.234 1188.98 646.95 1186.04 645.784 1182.96C645.55 1182.19 645.084 1181.29 644.85 1180.52C643.917 1178.09 643.1 1175.65 642.284 1173.22C639.951 1166.04 638.317 1158.73 636.917 1151.17C636.917 1150.52 636.684 1149.75 636.684 1149.24C636.684 1148.86 636.684 1148.34 636.567 1147.96C642.05 1136.42 652.667 1127.19 662.7 1120.91C679.032 1110.65 696.065 1102.58 710.998 1089.89C724.531 1078.35 736.197 1063.99 742.38 1046.17C749.963 1024.12 746.58 1000.14 742.38 977.71C740.98 970.274 739.463 962.839 738.297 955.275C738.063 952.711 737.83 950.147 737.713 947.583C737.48 943.48 737.363 939.378 737.363 935.276C737.363 933.353 737.48 931.558 737.597 929.635C737.597 929.378 737.597 929.122 737.713 928.737C738.297 925.276 739.23 921.943 740.28 918.609C741.097 916.943 741.913 915.276 742.73 913.61C743.43 912.199 744.246 910.917 745.18 909.507C745.296 909.379 745.296 909.251 745.413 909.123C747.513 906.559 749.613 903.995 751.946 901.559C752.996 900.405 754.163 899.379 755.329 898.226C755.446 898.097 755.679 897.969 755.913 897.713C756.613 897.2 758.713 895.405 759.296 895.021C760.812 893.867 762.329 892.841 763.846 891.816C766.412 890.021 769.095 888.354 771.895 886.816C773.529 885.918 775.045 885.021 776.679 884.252C777.262 883.995 779.012 883.098 779.945 882.585C780.762 882.2 781.462 881.944 781.812 881.816C783.562 881.047 785.311 880.406 787.061 879.637C791.145 877.97 795.228 876.56 799.311 875.021C803.044 873.739 806.661 872.457 810.394 871.175C813.427 871.175 816.577 871.175 819.61 871.047C835.71 870.406 852.509 868.868 868.025 863.868C882.141 859.253 895.324 851.176 904.657 838.484C913.756 826.177 919.356 811.178 922.039 795.793C925.656 775.794 924.839 755.282 923.673 735.026C923.556 732.847 923.673 730.796 923.556 728.616ZM374.544 1327.31C360.428 1302.31 355.995 1272.06 365.211 1244.11C371.744 1224.24 383.527 1207.44 396.243 1191.68C389.71 1204.24 385.044 1217.96 382.711 1232.19C375.478 1275.52 384.461 1319.11 409.426 1353.85C414.443 1360.77 420.042 1366.93 426.109 1372.44C404.876 1364.88 386.327 1348.21 374.544 1327.31ZM471.257 979.889C459.824 994.376 445.591 1005.91 434.392 1020.79C426.809 1030.78 420.859 1040.66 416.893 1052.96C413.743 1062.71 412.926 1072.83 413.859 1082.96C409.543 1067.71 409.66 1052.19 416.426 1037.19C428.209 1011.04 450.841 995.658 471.957 979.12C471.607 979.248 471.49 979.633 471.257 979.889ZM738.53 1007.58C739.23 1017.96 738.763 1028.48 735.963 1038.73C730.597 1058.6 716.947 1074.24 701.898 1086.04C686.265 1098.35 668.066 1105.78 652.083 1117.32C647.184 1120.91 642.4 1125.27 638.317 1130.14C638.667 1128.99 639.017 1127.7 639.367 1126.55C639.951 1125.27 640.534 1123.99 641.234 1122.7C641.934 1121.42 642.634 1120.14 643.45 1118.86C643.684 1118.6 644.034 1117.96 644.384 1117.45C644.5 1117.32 644.5 1117.32 644.5 1117.19C645.434 1116.04 646.367 1114.88 647.3 1113.73C650.8 1109.76 654.533 1106.17 658.383 1102.58C659.316 1101.81 660.366 1101.04 661.3 1100.27C663.516 1098.47 665.733 1096.81 668.066 1095.14C688.832 1079.63 709.948 1065.4 724.997 1042.84C732.114 1032.2 736.197 1020.14 738.53 1007.58ZM885.058 845.663C871.175 855.535 854.375 858.996 838.043 860.663C840.959 859.509 843.759 858.227 846.559 856.945C876.775 842.971 903.024 819.254 914.456 784.64C914.69 783.743 915.04 782.973 915.273 782.076C912.94 807.203 905.473 831.177 885.058 845.663Z" fill="url(#paint15_linear_10_2)"/>
<path d="M1499.01 1460.97C1514.81 1444.7 1518.82 1421.2 1507.98 1408.5C1497.14 1395.79 1475.55 1398.68 1459.75 1414.96C1443.96 1431.23 1439.95 1454.72 1450.79 1467.43C1461.63 1480.13 1483.22 1477.24 1499.01 1460.97Z" fill="#A0BDE5"/>
<path d="M1508.03 1429.74C1501.73 1450.39 1481.9 1466.67 1463.82 1466.03C1455.89 1465.77 1449.59 1462.18 1445.5 1456.67C1448.07 1467.44 1456.12 1474.87 1467.9 1475.26C1485.98 1475.9 1505.82 1459.62 1512.12 1438.98C1515.62 1427.44 1514.22 1416.92 1509.08 1409.87C1510.48 1415.64 1510.25 1422.44 1508.03 1429.74Z" fill="#94B2D6"/>
<path d="M377.227 1386.8C373.611 1379.23 369.644 1372.05 366.378 1364.36C362.995 1356.41 360.895 1348.08 360.195 1339.36C358.795 1322.7 359.612 1306.16 355.645 1289.88C352.378 1276.29 346.895 1263.21 339.662 1251.67C323.33 1225.52 298.481 1205.78 270.132 1198.98C266.282 1198.09 263.482 1202.96 266.282 1206.16C295.564 1239.75 295.214 1290.65 287.864 1333.34C283.314 1359.49 276.431 1385 271.882 1411.16C267.448 1436.92 265.932 1463.08 267.565 1489.23C269.315 1516.79 274.565 1544.1 283.081 1570C282.498 1571.66 283.314 1573.84 284.831 1575C286.581 1579.48 292.997 1577.94 292.531 1573.59C317.496 1560.64 341.179 1543.46 359.145 1520.13C377.811 1495.77 389.594 1464.49 388.544 1432.31C387.96 1416.16 383.877 1401.03 377.227 1386.8Z" fill="url(#paint16_linear_10_2)"/>
<path d="M359.728 1417.69C355.762 1424.36 351.445 1430.64 346.545 1436.41C347.362 1425 347.012 1413.46 345.495 1402.05C343.629 1387.95 339.312 1375 334.879 1361.93C342.812 1346.16 347.595 1328.98 349.112 1310.9C349.695 1304.11 340.129 1304.24 339.546 1310.9C338.496 1323.85 335.346 1336.54 330.446 1348.34C326.479 1334.36 325.429 1320.39 324.729 1305.65C323.913 1288.47 322.513 1271.03 313.997 1256.16C310.73 1250.39 302.447 1255.78 305.714 1261.42C313.063 1274.24 314.347 1289.11 315.047 1303.98C315.047 1304.62 315.163 1305.26 315.163 1305.77C312.713 1304.11 310.147 1302.44 307.697 1300.9C302.447 1297.44 297.547 1306.54 302.914 1310.01C307.113 1312.83 311.43 1315.65 315.63 1318.47C315.747 1318.47 315.746 1318.59 315.863 1318.59C316.563 1328.85 317.613 1338.98 320.413 1348.72C324.729 1363.85 331.263 1378.08 334.529 1393.72C334.646 1394.23 334.762 1394.75 334.879 1395.39C328.929 1392.05 323.796 1387.31 319.946 1381.28C316.33 1375.77 308.047 1381.03 311.663 1386.54C318.08 1396.28 326.363 1403.34 336.629 1407.57H336.746C337.912 1418.33 338.029 1429.23 336.979 1440.13C335.346 1457.82 330.563 1475.13 323.213 1491.02C320.413 1497.05 328.696 1502.31 331.496 1496.28C337.912 1482.69 342.345 1468.08 344.795 1453.08C345.379 1452.82 346.079 1452.44 346.662 1451.8C354.828 1443.21 362.061 1433.59 368.244 1423.08C371.394 1417.18 363.111 1411.92 359.728 1417.69Z" fill="#F8F9FB"/>
<path d="M309.68 1402.18C301.747 1386.41 290.664 1373.72 277.365 1363.47C262.899 1352.18 246.916 1343.34 235.016 1328.59C223.467 1314.36 216.117 1296.03 214.134 1277.06C211.801 1255.14 215.301 1233.21 216.7 1211.42C218.917 1177.19 213.317 1132.45 180.769 1117.06C176.802 1115.27 173.302 1118.22 173.886 1122.83C177.152 1146.93 166.186 1170.78 152.186 1188.47C137.137 1207.45 118.238 1221.8 100.972 1237.96C84.989 1252.83 69.8229 1270.01 61.3066 1291.42C52.6736 1313.34 52.6736 1337.82 60.0233 1360.13C67.2563 1382.18 80.7891 1401.03 97.4718 1415.51C105.988 1422.82 114.971 1429.23 124.537 1434.62C133.52 1439.74 142.97 1443.85 152.303 1448.46C161.169 1452.82 170.152 1457.82 177.502 1465C185.318 1472.69 190.451 1482.44 193.251 1493.59C198.851 1515.13 197.101 1537.95 201.184 1559.74C205.034 1580.25 214.251 1600.25 232.567 1608.97C253.449 1618.84 276.198 1612.17 295.914 1602.3C297.664 1601.41 299.531 1600.51 301.28 1599.48C299.297 1610.64 297.664 1621.79 296.381 1633.07C295.681 1639.61 305.014 1639.48 305.714 1633.07C307.114 1620.12 309.214 1607.05 311.547 1593.84C311.663 1593.71 311.78 1593.71 311.897 1593.58C314.93 1591.92 314.697 1588.2 312.947 1586.02C324.263 1524.1 338.846 1460 309.68 1402.18Z" fill="url(#paint17_linear_10_2)"/>
<path d="M280.515 1442.56C278.065 1455.64 274.915 1468.46 270.948 1481.02C270.832 1480.38 270.715 1479.74 270.715 1479.1C268.265 1462.44 265.465 1445.51 259.865 1429.74C254.616 1414.87 246.916 1401.41 235.483 1391.41C234.433 1390.52 233.383 1389.62 232.217 1388.72C235.6 1377.05 236.3 1365 234.783 1352.82C233.733 1344.75 222.65 1348.21 223.7 1356.16C224.75 1364.75 224.167 1373.21 222.184 1381.41C214.367 1376.29 206.201 1371.93 198.151 1367.31C187.068 1361.03 175.752 1353.98 167.352 1343.72C181.819 1331.67 190.568 1312.83 190.568 1292.57C190.568 1284.49 179.019 1284.49 179.019 1292.57C179.019 1308.6 172.252 1323.85 160.703 1333.47C155.103 1321.67 154.52 1308.21 157.553 1295.01C165.953 1258.21 193.835 1230.52 196.518 1191.55C197.101 1183.47 185.552 1183.47 184.968 1191.55C182.985 1221.03 164.436 1244.88 153.236 1271.16C148.687 1262.19 146.703 1251.93 148.103 1241.67C149.27 1233.73 138.187 1230.26 137.02 1238.34C134.804 1253.6 137.604 1268.98 145.653 1281.8C146.47 1282.96 147.403 1283.72 148.337 1284.24C143.787 1299.24 142.037 1315.9 146.937 1330.9C148.92 1337.18 151.953 1342.7 155.57 1347.82C140.87 1352.44 126.287 1345.13 119.754 1329.49C116.721 1322.06 106.805 1328.47 109.838 1335.9C118.704 1357.31 141.803 1367.57 161.753 1358.85C162.569 1358.47 163.269 1357.95 163.736 1357.44C166.302 1360 168.986 1362.44 171.786 1364.75C190.452 1379.75 214.717 1387.18 231.633 1404.62C215.534 1418.34 193.485 1418.98 176.219 1407.05C169.919 1402.69 164.203 1413.59 170.386 1417.95C192.085 1432.95 219.267 1430.9 239.216 1413.98C240.033 1415.26 240.85 1416.54 241.666 1417.82C249.366 1431.15 253.216 1446.67 256.132 1461.92C258.466 1474.36 260.332 1486.92 261.732 1499.61C249.366 1498.59 238.283 1492.31 230 1482.31C224.984 1476.28 216.934 1485.26 221.834 1491.28C232.333 1503.97 246.683 1511.15 262.082 1512.31C262.315 1512.31 262.665 1512.31 262.899 1512.31C263.015 1514.1 263.132 1515.9 263.249 1517.69C266.049 1559.74 263.365 1602.05 255.199 1643.2C253.682 1651.15 264.765 1654.48 266.282 1646.53C273.515 1609.87 276.781 1572.3 275.498 1534.74C275.148 1525.38 274.682 1516.02 273.748 1506.67C281.565 1487.05 287.514 1466.79 291.481 1445.77C293.114 1437.95 282.031 1434.49 280.515 1442.56Z" fill="#F8F9FB"/>
<path d="M487.706 1375.64C484.907 1362.7 484.44 1349.49 485.957 1336.16C489.106 1310.13 497.973 1285.39 500.773 1259.24C503.223 1236.03 499.839 1213.86 489.34 1193.47C473.94 1163.86 448.741 1142.32 429.142 1116.17C425.526 1104.12 419.226 1092.96 409.893 1084.12C405.343 1079.76 399.51 1085.4 401.96 1091.04C406.743 1102.19 413.043 1112.06 419.926 1121.42C425.642 1141.68 423.426 1165.14 417.243 1185.01C404.526 1225.52 378.044 1258.85 365.678 1299.62C360.078 1318.08 357.512 1337.83 360.661 1357.18C363.695 1375.52 373.261 1391.28 377.461 1409.1C387.96 1453.59 342.346 1477.56 316.797 1500.51C285.298 1528.84 260.215 1565.51 243.999 1606.53C243.533 1607.82 243.416 1609.1 243.649 1610.25C242.016 1612.05 240.499 1613.84 238.983 1615.89C235.016 1621.53 242.249 1629.35 246.333 1623.71C261.382 1602.56 287.164 1600.64 309.68 1598.84C314.463 1598.46 319.246 1598.07 324.146 1597.43C336.629 1600.51 349.345 1601.28 362.178 1597.3C373.261 1593.97 382.361 1586.92 389.944 1577.43C397.293 1568.2 403.36 1557.18 412.576 1549.87C427.742 1537.69 447.575 1535.89 465.074 1529.74C484.44 1522.95 499.956 1509.74 505.789 1487.56C512.439 1462.69 506.256 1436.67 498.789 1412.95C494.706 1400.9 490.506 1388.59 487.706 1375.64Z" fill="url(#paint18_linear_10_2)"/>
<path d="M457.724 1275.39C454.341 1287.57 447.925 1298.34 439.058 1306.29C440.925 1299.36 443.025 1292.57 445.125 1285.78C454.808 1254.37 464.957 1219.88 453.874 1187.19C451.308 1179.63 440.225 1182.96 442.792 1190.52C447.691 1205.14 448.041 1220.14 445.941 1235.01C443.608 1230.14 442.442 1224.75 442.558 1218.86C442.675 1210.78 431.242 1210.78 431.009 1218.86C430.775 1231.03 434.975 1242.83 442.792 1251.42C440.458 1261.29 437.542 1271.03 434.625 1280.52C430.192 1295.01 425.642 1309.62 423.309 1324.75C421.676 1335.65 421.326 1346.67 421.676 1357.7C412.109 1349.23 405.693 1337.06 404.526 1323.34C403.826 1315.26 392.277 1315.26 392.977 1323.34C394.843 1344.36 405.693 1363.34 422.609 1373.59C424.359 1394.75 427.392 1417.18 424.359 1438.46C423.426 1439.87 423.192 1441.54 423.542 1443.21C422.492 1448.85 420.976 1454.49 418.759 1459.87C411.993 1476.92 399.277 1486.79 385.394 1495.13C386.21 1486.54 387.494 1478.08 389.36 1469.62C391.11 1461.67 380.027 1458.33 378.277 1466.28C375.711 1478.08 374.078 1490.13 373.378 1502.18C369.178 1504.61 365.095 1507.05 361.128 1509.61C349.462 1517.31 338.146 1527.31 332.313 1541.15C326.713 1554.48 325.896 1570.38 333.246 1583.2C337.212 1590 347.129 1583.71 343.162 1576.79C336.979 1566.02 338.962 1552.82 344.795 1542.43C361.711 1544.23 378.627 1541.41 394.26 1534.23C397.177 1532.95 399.16 1530.13 398.227 1526.41C397.527 1523.46 394.027 1520.64 391.11 1522.05C379.211 1527.56 366.845 1530.25 354.245 1530.38C360.311 1524.61 367.545 1520.13 374.428 1516.02C385.744 1509.36 397.527 1503.46 407.793 1494.74C417.593 1486.41 424.942 1476.03 429.725 1463.46C431.942 1457.69 433.459 1451.8 434.509 1445.9C449.558 1434.87 458.891 1416.54 459.824 1396.54C460.174 1388.46 448.625 1388.46 448.275 1396.54C447.808 1408.21 443.492 1418.98 436.492 1427.44C437.192 1411.28 435.675 1394.75 434.275 1378.72C432.875 1362.7 431.709 1346.29 433.925 1330.26C434.275 1327.83 434.625 1325.52 435.092 1323.08C436.259 1323.34 437.542 1323.08 438.825 1322.18C453.174 1312.19 463.674 1296.93 468.691 1278.98C471.024 1271.03 459.941 1267.7 457.724 1275.39Z" fill="#F8F9FB"/>
<path d="M421.676 1573.46H310.73H199.784C185.435 1573.46 174.935 1591.15 178.319 1609.48L219.384 1833.19C224.633 1861.52 243.883 1881.52 265.932 1881.52H310.73H355.645C377.811 1881.52 397.06 1861.52 402.193 1833.19L443.258 1609.48C446.525 1591.15 436.025 1573.46 421.676 1573.46Z" fill="url(#paint19_linear_10_2)"/>
<path d="M161.286 303.504L151.836 298.632C151.836 294.658 151.253 290.556 150.203 286.581L158.019 279.017C159.536 277.607 159.886 275.171 158.836 273.248L156.619 269.146L154.403 265.044C153.353 263.121 151.253 262.351 149.386 263.121L139.587 267.095C136.903 264.146 133.87 261.839 130.72 259.916L131.304 248.506C131.42 246.326 130.137 244.275 128.154 243.762L123.954 242.609L119.754 241.455C117.771 240.942 115.788 241.968 114.971 244.019L110.538 254.403C106.921 254.403 103.188 255.044 99.5716 256.198L92.6885 247.608C91.4052 245.942 89.1886 245.557 87.4387 246.711L83.7055 249.147L79.9723 251.583C78.2224 252.736 77.5224 255.044 78.2224 257.095L81.8389 267.864C79.1557 270.813 77.0558 274.146 75.3058 277.607L64.9229 276.966C62.9397 276.838 61.0731 278.248 60.6064 280.428L59.5564 285.043L58.5065 289.658C58.0398 291.838 58.9731 294.017 60.8397 294.914L70.2894 299.786C70.2894 303.76 70.8727 307.863 71.9226 311.837L64.1063 319.401C62.5897 320.811 62.2397 323.247 63.2896 325.17L65.5062 329.272L67.7228 333.375C68.7728 335.298 70.8727 336.067 72.7393 335.298L82.5389 331.323C85.2221 334.272 88.2553 336.58 91.4052 338.503L90.8219 349.912C90.7052 352.092 91.9885 354.143 93.9718 354.656L98.1716 355.81L102.371 356.963C104.355 357.476 106.338 356.451 107.155 354.399L111.588 344.015C115.204 344.015 118.937 343.374 122.554 342.22L129.437 350.81C130.72 352.476 132.937 352.861 134.687 351.707L138.42 349.271L142.153 346.836C143.903 345.682 144.603 343.374 143.903 341.323L140.287 330.554C142.97 327.605 145.07 324.272 146.82 320.811L157.203 321.452C159.186 321.58 161.053 320.17 161.519 317.99L162.569 313.375L163.619 308.76C164.086 306.709 163.036 304.529 161.286 303.504ZM124.537 324.016C112.054 332.221 95.955 327.734 88.4887 314.144C81.0223 300.427 85.1054 282.735 97.4716 274.53C109.954 266.326 126.054 270.813 133.52 284.402C140.987 298.119 136.903 315.811 124.537 324.016Z" fill="#A0BDE5"/>
</g>
<defs>
<linearGradient id="paint0_linear_10_2" x1="121.786" y1="746.561" x2="408.278" y2="746.561" gradientUnits="userSpaceOnUse">
<stop stop-color="#A0BDE5"/>
<stop offset="1" stop-color="#6ED1CE"/>
</linearGradient>
<linearGradient id="paint1_linear_10_2" x1="1573.85" y1="458.009" x2="2084.53" y2="458.009" gradientUnits="userSpaceOnUse">
<stop stop-color="#A0BDE5"/>
<stop offset="1" stop-color="#6ED1CE"/>
</linearGradient>
<linearGradient id="paint2_linear_10_2" x1="1257.34" y1="1757.71" x2="1257.34" y2="1595.67" gradientUnits="userSpaceOnUse">
<stop stop-color="#F8F9FB"/>
<stop offset="1" stop-color="#A0BDE5"/>
</linearGradient>
<linearGradient id="paint3_linear_10_2" x1="796.941" y1="1302.85" x2="753.131" y2="1115.34" gradientUnits="userSpaceOnUse">
<stop stop-color="#2A4A93"/>
<stop offset="1" stop-color="#22395E"/>
</linearGradient>
<linearGradient id="paint4_linear_10_2" x1="894.203" y1="754.284" x2="893.379" y2="752.967" gradientUnits="userSpaceOnUse">
<stop stop-color="#2A4A93"/>
<stop offset="1" stop-color="#22395E"/>
</linearGradient>
<linearGradient id="paint5_linear_10_2" x1="915.032" y1="767.728" x2="914.106" y2="766.246" gradientUnits="userSpaceOnUse">
<stop stop-color="#2A4A93"/>
<stop offset="1" stop-color="#22395E"/>
</linearGradient>
<linearGradient id="paint6_linear_10_2" x1="942.944" y1="884.998" x2="942.383" y2="884.101" gradientUnits="userSpaceOnUse">
<stop stop-color="#2A4A93"/>
<stop offset="1" stop-color="#22395E"/>
</linearGradient>
<linearGradient id="paint7_linear_10_2" x1="956.226" y1="845.687" x2="885.136" y2="732.006" gradientUnits="userSpaceOnUse">
<stop stop-color="#2A4A93"/>
<stop offset="1" stop-color="#22395E"/>
</linearGradient>
<linearGradient id="paint8_linear_10_2" x1="943.39" y1="808.106" x2="942.328" y2="806.408" gradientUnits="userSpaceOnUse">
<stop stop-color="#2A4A93"/>
<stop offset="1" stop-color="#22395E"/>
</linearGradient>
<linearGradient id="paint9_linear_10_2" x1="861.022" y1="1284.31" x2="921.554" y2="1165.78" gradientUnits="userSpaceOnUse">
<stop stop-color="#F47D7D"/>
<stop offset="1" stop-color="#E56767"/>
</linearGradient>
<linearGradient id="paint10_linear_10_2" x1="853.618" y1="993.57" x2="751.429" y2="846.424" gradientUnits="userSpaceOnUse">
<stop stop-color="#F47D7D"/>
<stop offset="1" stop-color="#E56767"/>
</linearGradient>
<linearGradient id="paint11_linear_10_2" x1="717.765" y1="1498.79" x2="809.959" y2="1678.02" gradientUnits="userSpaceOnUse">
<stop stop-color="#F8F9FB"/>
<stop offset="1" stop-color="#A0BDE5"/>
</linearGradient>
<linearGradient id="paint12_linear_10_2" x1="961.434" y1="1444.82" x2="931.671" y2="1580.05" gradientUnits="userSpaceOnUse">
<stop stop-color="#3576EE"/>
<stop offset="1" stop-color="#296BCC"/>
</linearGradient>
<linearGradient id="paint13_linear_10_2" x1="570.97" y1="1529.3" x2="709.205" y2="1684.98" gradientUnits="userSpaceOnUse">
<stop stop-color="#3576EE"/>
<stop offset="1" stop-color="#296BCC"/>
</linearGradient>
<linearGradient id="paint14_linear_10_2" x1="1476.19" y1="1478" x2="1499.88" y2="2057.4" gradientUnits="userSpaceOnUse">
<stop stop-color="#F8F9FB"/>
<stop offset="1" stop-color="#A0BDE5"/>
</linearGradient>
<linearGradient id="paint15_linear_10_2" x1="639.874" y1="1013.22" x2="722.586" y2="602.71" gradientUnits="userSpaceOnUse">
<stop stop-color="#2A4A93"/>
<stop offset="1" stop-color="#22395E"/>
</linearGradient>
<linearGradient id="paint16_linear_10_2" x1="336.623" y1="1249" x2="311.908" y2="1403.87" gradientUnits="userSpaceOnUse">
<stop stop-color="#3576EE"/>
<stop offset="1" stop-color="#F77FA4"/>
</linearGradient>
<linearGradient id="paint17_linear_10_2" x1="190.709" y1="1116.43" x2="190.709" y2="1637.79" gradientUnits="userSpaceOnUse">
<stop stop-color="#3576EE"/>
<stop offset="1" stop-color="#F77FA4"/>
</linearGradient>
<linearGradient id="paint18_linear_10_2" x1="426.927" y1="1157.3" x2="385.408" y2="1405.51" gradientUnits="userSpaceOnUse">
<stop stop-color="#3576EE"/>
<stop offset="1" stop-color="#F77FA4"/>
</linearGradient>
<linearGradient id="paint19_linear_10_2" x1="310.776" y1="1640.01" x2="310.776" y2="1948.06" gradientUnits="userSpaceOnUse">
<stop stop-color="#6ED1CE"/>
<stop offset="1" stop-color="#45A1D0"/>
</linearGradient>
<clipPath id="clip0_10_2">
<rect width="2597" height="2246" fill="white"/>
</clipPath>
</defs>
</svg>
